<?xml version='1.0' encoding='utf-8'?>
<svg xmlns="http://www.w3.org/2000/svg" width="0.243056in" height="0.400278in" x="0px" y="0px" version="1.1"  viewBox="0 0 17.5 28.82">
    <desc>
        <referenceFile>capacitor_tantalum_leg.svg</referenceFile>
    </desc>
    <g  id="breadboard" gorn="0.0">
        <rect width="2.083" height="1" x="4.292" y="27.82" fill="none"  id="connector0pin" gorn="0.0.0"/>
        <rect width="2.275" height="1" x="11.365" y="27.82" fill="none"  id="connector1pin" gorn="0.0.1"/>
        <line y1="28.82" y2="49.0" x1="5.332" x2="5.332" fill="none"  stroke-linecap="round" stroke-width="2.146" id="connector0leg" stroke="#8C8C8C" gorn="0.0.2"/>
        <line y1="28.82" y2="49.0" x1="12.502" x2="12.502" fill="none"  stroke-linecap="round" stroke-width="2.346" id="connector1leg" stroke="#8C8C8C" gorn="0.0.3"/>
        <g >
            <rect width="2.146" height="13.92" x="4.259" y="14.828" fill="#8C8C8C" />
            <path d="M13.68,28.229c0-1.467-1.331-2.628-2.609-3.739c-0.521-0.459-1.5-1.252-1.5-1.781v-6.838H7.203v7.226c0,1.323,1.186,2.349,2.435,3.437c0.556,0.47,1.687,1.563,1.687,2.211c0,0.263,0.004,0,0.004,0h2.355" fill="#8C8C8C" />
            <path d="M17.5,8.287c0,7.082-0.467,12.509-1.626,16.485c-0.642,2.207-5.005,0.779-6.853,0.779c-1.881,0-6.19,1.39-6.854-0.854c-1.002-3.388-1.628-9.401-1.628-16.41c0-8.092,3.77-8.092,8.481-8.092C13.732,0.195,17.5,0.195,17.5,8.287z" opacity="0.9904" fill="#EA9821"  fill-opacity="0.9961"/>
            <path d="M14.083,4.408l1.491-0.285c-0.873-1.174-2.164-2.033-3.68-2.325l0.264,1.123C12.953,3.201,13.621,3.73,14.083,4.408z" opacity="0.5" fill="#FFFFFF" />
            <g opacity="0.9904" >
                <g transform="matrix(1 0.0025 -0.0025 1 11.2793 22.9248)" >
                    <text fill="#684312" font-family="'ocra10'"  font-size="7.4812">+</text>
                </g>
            </g>
            <path d="M3.826,5.273l-1.644-0.24c1.195-2.371,2.58-3.188,4.872-3.451l-0.111,1.51C5.384,3.092,4.241,3.716,3.826,5.273z" opacity="0.5" fill="#FFFFFF" />
            <path d="M5.835,25.951c-0.373,0.078,0.697-1.939,0.592-2.631c-0.108-0.691-0.483-0.535,0.326-0.729c0.813-0.197,3.083-0.144,3.68,0s0.642-0.067,0.54,0.729c-0.107,0.795,0.801,2.596,0.489,2.526C9.332,25.354,7.384,25.561,5.835,25.951z" opacity="0.1632" fill="#550000" />
        </g>
    </g>
</svg>
