<?xml version='1.0' encoding='utf-8'?>
<!DOCTYPE svg>
<!-- Generator: Adobe Illustrator 14.0.0, SVG Export Plug-In . SVG Version: 6.00 Build 43363)  -->
<svg xmlns="http://www.w3.org/2000/svg" xml:space="preserve" width="0.444444in" height="0.444444in" x="0px" y="0px" xmlns:xml="http://www.w3.org/XML/1998/namespace" version="1.1" enable-background="new 0 0 32 32"  id="Layer_1" viewBox="0 0 32 32" gorn="0">
    <desc>
        <referenceFile>capacitor_tantalum.svg</referenceFile>
    </desc>
    <g  id="breadboard" gorn="0.0">
        <rect width="2.083" height="8.633" x="11.125" y="43.366" fill="none"  id="connector0pin" gorn="0.0.0"/>
        <rect width="2.274" height="8.498" x="18.198" y="43.341" fill="none"  id="connector1pin" gorn="0.0.1"/>
        <rect width="2.231" height="1.314" x="18.198" y="50.567" fill="none"  id="connector1terminal" gorn="0.0.2"/>
        <rect width="2.107" height="1.34" x="11.118" y="50.45" fill="none"  id="connector0terminal" gorn="0.0.3"/>
        <rect width="2.146" height="34.123" x="11.092" y="17.829" fill="#8C8C8C"  id="rect2854-7" gorn="0.0.4"/>
        <path d="M20.514,31.229c0-1.467-1.33-2.627-2.609-3.738c-0.521-0.459-1.5-1.252-1.5-1.781v-6.838h-2.368v7.227c0,1.322,1.186,2.348,2.437,3.438c0.555,0.469,1.687,1.563,1.687,2.211c0,0.262,0.004,20.256,0.004,20.256h2.354L20.514,31.229z" fill="#8C8C8C"  id="path2856" gorn="0.0.5"/>
        <path d="M24.333,11.288c0,7.083-0.467,12.508-1.626,16.485c-0.643,2.207-5.005,0.779-6.854,0.779c-1.88,0-6.189,1.391-6.854-0.854c-1.002-3.389-1.628-9.402-1.628-16.411c0-8.092,3.77-8.092,8.481-8.092C20.564,3.195,24.333,3.195,24.333,11.288z" opacity="0.9904" fill="#EA9821" enable-background="new    "  id="path2880" fill-opacity="0.9961" gorn="0.0.6"/>
        <path d="M20.916,7.409l1.491-0.285c-0.873-1.174-2.164-2.033-3.681-2.325l0.265,1.123C19.786,6.202,20.454,6.73,20.916,7.409z" opacity="0.5" fill="#FFFFFF" enable-background="new    "  id="path34-1" gorn="0.0.7"/>
        <g opacity="0.9904" enable-background="new    " >
            <g >
                <g transform="matrix(1 0.0025 -0.0025 1 18.1123 25.9248)" >
                    <text fill="#684312" font-family="'ocra10'"  font-size="7.4812">+</text>
                </g>
            </g>
        </g>
        <path d="M10.659,8.273l-1.644-0.24c1.195-2.371,2.58-3.188,4.872-3.451l-0.111,1.51C12.217,6.092,11.074,6.716,10.659,8.273z" opacity="0.5" fill="#FFFFFF" enable-background="new    "  id="path34-1-1" gorn="0.0.9"/>
        <path d="M12.668,28.952c-0.373,0.078,0.697-1.939,0.592-2.631c-0.108-0.691-0.483-0.535,0.326-0.73c0.813-0.195,3.083-0.143,3.682,0c0.596,0.145,0.642-0.066,0.539,0.73c-0.106,0.795,0.801,2.596,0.488,2.525C16.165,28.354,14.217,28.562,12.668,28.952z" opacity="0.1632" fill="#550000" enable-background="new    " />
    </g>
</svg>
