<?xml version='1.0' encoding='UTF-8' standalone='no'?>
<svg xmlns="http://www.w3.org/2000/svg" baseProfile="tiny" width="0.2in" height="0.17in" version="1.2"  viewBox="0 0 200 170">
    <desc>
        <referenceFile>screw_terminal_2_100mil_bread.svg</referenceFile>
    </desc>
    <g  id="breadboard" gorn="0.0">
        <polygon points="196.012,39.9487 196.012,0 0,0 0,39.9487 3.98829,39.9487 3.98829,72.4061 0,72.4061 0,157.607 196.012,157.607 196.012,72.4061 200,72.4061 200,39.9487" fill="#254E89"  id="background" gorn="0.0.0"/>
        <rect width="192.745" height="5.76036" x="1.75594" y="2.38169" fill="#456DAB"  stroke-width="0" id="upperstripe" gorn="0.0.1"/>
        <rect width="196.012" height="71.4784" x="0" y="86.1147" fill="#123C66"  stroke-width="0" id="lowerrect" gorn="0.0.2"/>
        <g transform="translate(0,0)" >
            <g  id="plus0" gorn="0.0.3.0">
                <g >
                    <path d="M49.0302,81.9883c19.0567,0,34.5743,-15.7579,34.5743,-35.1715L14.4423,46.8168C14.4286,66.2442,29.9326,81.9883,49.0302,81.9883z" fill="#3A5C8E" />
                    <path d="M49.0302,11.6592c-19.0839,0,-34.5879,15.7718,-34.5879,35.1576l69.1622,0C83.6044,27.4033,68.1141,11.6592,49.0302,11.6592z" fill="#123C66" />
                </g>
                <g >
                    <g >
                        <path d="M49.0302,75.3417c-15.4904,0,-28.0678,-12.7947,-28.0678,-28.5526c0,-15.7302,12.5774,-28.5387,28.0678,-28.5387c15.4768,0,28.0542,12.7947,28.0542,28.5387C77.0707,62.547,64.4933,75.3417,49.0302,75.3417L49.0302,75.3417z" fill="#8B8B8B" />
                        <path d="M49.0302,18.8043c15.2045,0,27.5097,12.5454,27.5097,27.9848c0,15.4533,-12.3052,27.9987,-27.5097,27.9987S21.4932,62.2424,21.4932,46.7891C21.4796,31.3497,33.812,18.8043,49.0302,18.8043M49.0302,17.7796c-15.749,0,-28.585,13.0301,-28.585,29.0511c0,16.021,12.8088,29.0788,28.585,29.0788c15.7218,0,28.5578,-13.0162,28.5578,-29.0788C77.5744,30.8096,64.7655,17.7796,49.0302,17.7796L49.0302,17.7796z" />
                    </g>
                    <g >
                        <path d="M22.3236,40.2395C21.8199,42.3581,21.4796,44.5736,21.4796,46.8307c0,2.28476,0.340298,4.45874,0.843939,6.63273l53.386,0c0.503641,-2.1186,0.843939,-4.32027,0.843939,-6.63273c0,-2.25707,-0.313074,-4.43105,-0.843939,-6.59119L22.3236,40.2395z" fill="#707070" />
                    </g>
                    <g >
                        <rect width="12.9586" height="47.4676" x="42.5373" y="23.083" fill="#545252"  stroke-width="0"/>
                        <rect width="40.8222" height="13.1685" x="28.6123" y="40.2395" fill="#545252"  stroke-width="0"/>
                    </g>
                    <g opacity="0.5" >
                        <path d="M49.0302,21.1167c13.8978,0,25.2365,11.5346,25.2365,25.6724c0,14.1655,-11.3387,25.6862,-25.2365,25.6862c-13.925,0,-25.2637,-11.5346,-25.2637,-25.6862C23.7528,32.6513,35.0915,21.1167,49.0302,21.1167M49.0302,18.8043c-15.2045,0,-27.5369,12.5454,-27.5369,27.9848c0,15.4533,12.3324,27.9987,27.5369,27.9987s27.5097,-12.5454,27.5097,-27.9987C76.5671,31.3497,64.2347,18.8043,49.0302,18.8043L49.0302,18.8043z" />
                    </g>
                </g>
            </g>
        </g>
        <g transform="translate(0,0)" >
            <g  id="maul0" gorn="0.0.4.0">
                <rect width="69.1758" height="28.151" x="14.4286" y="93.966" fill="#103656"  stroke-width="0"/>
                <rect width="69.1758" height="29.2034" x="14.4286" y="122.131" fill="#254E89"  stroke-width="0"/>
                <rect width="33.8665" height="35.0745" x="32.0833" y="122.491" fill="#254E89"  stroke-width="0"/>
                <rect width="63.5405" height="52.868" x="17.2599" y="96.4307" fill="#8D8C8C"  stroke-width="0"/>
                <path d="M49.0302,146.197c15.0684,0,27.3327,-9.08365,27.3327,-20.3551l-54.7199,0C21.6702,137.113,33.9209,146.197,49.0302,146.197z" fill="#A0A0A0" />
                <path d="M49.0302,105.584c-15.0956,0,-27.3872,9.08365,-27.3872,20.3136l54.7199,0C76.3493,114.667,64.1258,105.584,49.0302,105.584z" fill="#565656" />
                <ellipse cx="49.0165" cy="125.897" fill="#383838" rx="21.2074" ry="15.7579"  stroke-width="0"/>
                <g >
                    <polygon points="30.8446,116.467,21.8335,103.631,17.2599,103.271,18.1175,96.0569,80.8004,96.9431,79.9292,104.157,76.989,103.271,67.0115,116.467" fill="#919291" />
                    <g >
                        <path d="M79.0581,97.8293l0,4.55567L77.0027,102.385L76.1179,102.385L75.6142,103.105L66.5895,115.581L31.7158,115.581L22.5413,103.091L22.0105,102.385L21.1529,102.385L19.0159,102.385L19.0159,97.8293L79.0581,97.8293M80.8004,96.0569L17.2599,96.0569l0,8.10051l3.8794,0l9.7053,13.1962l36.5889,0l9.54196,-13.1962l3.79773,0L80.8004,96.0569L80.8004,96.0569z" fill="#57585A" />
                    </g>
                </g>
                <rect width="28.5034" height="20.8398" x="34.7785" y="149.105" fill="#8C8C8C"  stroke-width="0"/>
            </g>
        </g>
        <rect width="31.5235" height="60.0844" x="34.2884" y="109.874" fill="none"  stroke-width="0" id="connector0pin" gorn="0.0.5"/>
        <g transform="translate(100,0)" >
            <g  id="plus1" gorn="0.0.6.0">
                <g >
                    <path d="M49.0302,81.9883c19.0567,0,34.5743,-15.7579,34.5743,-35.1715L14.4423,46.8168C14.4286,66.2442,29.9326,81.9883,49.0302,81.9883z" fill="#3A5C8E" />
                    <path d="M49.0302,11.6592c-19.0839,0,-34.5879,15.7718,-34.5879,35.1576l69.1622,0C83.6044,27.4033,68.1141,11.6592,49.0302,11.6592z" fill="#123C66" />
                </g>
                <g >
                    <g >
                        <path d="M49.0302,75.3417c-15.4904,0,-28.0678,-12.7947,-28.0678,-28.5526c0,-15.7302,12.5774,-28.5387,28.0678,-28.5387c15.4768,0,28.0542,12.7947,28.0542,28.5387C77.0707,62.547,64.4933,75.3417,49.0302,75.3417L49.0302,75.3417z" fill="#8B8B8B" />
                        <path d="M49.0302,18.8043c15.2045,0,27.5097,12.5454,27.5097,27.9848c0,15.4533,-12.3052,27.9987,-27.5097,27.9987S21.4932,62.2424,21.4932,46.7891C21.4796,31.3497,33.812,18.8043,49.0302,18.8043M49.0302,17.7796c-15.749,0,-28.585,13.0301,-28.585,29.0511c0,16.021,12.8088,29.0788,28.585,29.0788c15.7218,0,28.5578,-13.0162,28.5578,-29.0788C77.5744,30.8096,64.7655,17.7796,49.0302,17.7796L49.0302,17.7796z" />
                    </g>
                    <g >
                        <path d="M22.3236,40.2395C21.8199,42.3581,21.4796,44.5736,21.4796,46.8307c0,2.28476,0.340298,4.45874,0.843939,6.63273l53.386,0c0.503641,-2.1186,0.843939,-4.32027,0.843939,-6.63273c0,-2.25707,-0.313074,-4.43105,-0.843939,-6.59119L22.3236,40.2395z" fill="#707070" />
                    </g>
                    <g >
                        <rect width="12.9586" height="47.4676" x="42.5373" y="23.083" fill="#545252"  stroke-width="0"/>
                        <rect width="40.8222" height="13.1685" x="28.6123" y="40.2395" fill="#545252"  stroke-width="0"/>
                    </g>
                    <g opacity="0.5" >
                        <path d="M49.0302,21.1167c13.8978,0,25.2365,11.5346,25.2365,25.6724c0,14.1655,-11.3387,25.6862,-25.2365,25.6862c-13.925,0,-25.2637,-11.5346,-25.2637,-25.6862C23.7528,32.6513,35.0915,21.1167,49.0302,21.1167M49.0302,18.8043c-15.2045,0,-27.5369,12.5454,-27.5369,27.9848c0,15.4533,12.3324,27.9987,27.5369,27.9987s27.5097,-12.5454,27.5097,-27.9987C76.5671,31.3497,64.2347,18.8043,49.0302,18.8043L49.0302,18.8043z" />
                    </g>
                </g>
            </g>
        </g>
        <g transform="translate(100,0)" >
            <g  id="maul1" gorn="0.0.7.0">
                <rect width="69.1758" height="28.151" x="14.4286" y="93.966" fill="#103656"  stroke-width="0"/>
                <rect width="69.1758" height="29.2034" x="14.4286" y="122.131" fill="#254E89"  stroke-width="0"/>
                <rect width="33.8665" height="35.0745" x="32.0833" y="122.491" fill="#254E89"  stroke-width="0"/>
                <rect width="63.5405" height="52.868" x="17.2599" y="96.4307" fill="#8D8C8C"  stroke-width="0"/>
                <path d="M49.0302,146.197c15.0684,0,27.3327,-9.08365,27.3327,-20.3551l-54.7199,0C21.6702,137.113,33.9209,146.197,49.0302,146.197z" fill="#A0A0A0" />
                <path d="M49.0302,105.584c-15.0956,0,-27.3872,9.08365,-27.3872,20.3136l54.7199,0C76.3493,114.667,64.1258,105.584,49.0302,105.584z" fill="#565656" />
                <ellipse cx="49.0165" cy="125.897" fill="#383838" rx="21.2074" ry="15.7579"  stroke-width="0"/>
                <g >
                    <polygon points="30.8446,116.467,21.8335,103.631,17.2599,103.271,18.1175,96.0569,80.8004,96.9431,79.9292,104.157,76.989,103.271,67.0115,116.467" fill="#919291" />
                    <g >
                        <path d="M79.0581,97.8293l0,4.55567L77.0027,102.385L76.1179,102.385L75.6142,103.105L66.5895,115.581L31.7158,115.581L22.5413,103.091L22.0105,102.385L21.1529,102.385L19.0159,102.385L19.0159,97.8293L79.0581,97.8293M80.8004,96.0569L17.2599,96.0569l0,8.10051l3.8794,0l9.7053,13.1962l36.5889,0l9.54196,-13.1962l3.79773,0L80.8004,96.0569L80.8004,96.0569z" fill="#57585A" />
                    </g>
                </g>
                <rect width="28.5034" height="20.8398" x="34.7785" y="149.105" fill="#8C8C8C"  stroke-width="0"/>
            </g>
        </g>
        <rect width="31.5235" height="60.0844" x="134.2884" y="109.874" fill="none"  stroke-width="0" id="connector1pin" gorn="0.0.8"/>
    </g>
</svg>
