G04 MADE WITH FRITZING*
G04 WWW.FRITZING.ORG*
G04 DOUBLE SIDED*
G04 HOLES PLATED*
G04 CONTOUR ON CENTER OF CONTOUR VECTOR*
%ASAXBY*%
%FSLAX23Y23*%
%MOIN*%
%OFA0B0*%
%SFA1.0B1.0*%
%ADD10C,0.075000*%
%ADD11C,0.039370*%
%ADD12C,0.079370*%
%ADD13C,0.078000*%
%ADD14C,0.070000*%
%ADD15C,0.080000*%
%ADD16C,0.073889*%
%ADD17C,0.074000*%
%ADD18R,0.080000X0.080000*%
%ADD19C,0.024000*%
%LNCOPPER0*%
G90*
G70*
G54D10*
X1767Y1572D03*
G54D11*
X574Y1071D03*
X674Y1071D03*
G54D12*
X574Y271D03*
X474Y271D03*
X374Y271D03*
X274Y271D03*
X174Y271D03*
X74Y271D03*
X574Y171D03*
X474Y171D03*
X374Y171D03*
X274Y171D03*
X174Y171D03*
X74Y171D03*
X574Y371D03*
X474Y371D03*
X374Y371D03*
X274Y371D03*
X174Y371D03*
X74Y371D03*
X574Y571D03*
X474Y571D03*
X374Y571D03*
X274Y571D03*
X174Y571D03*
X74Y571D03*
X574Y471D03*
X474Y471D03*
X374Y471D03*
X274Y471D03*
X174Y471D03*
X74Y471D03*
X574Y671D03*
X474Y671D03*
X374Y671D03*
X274Y671D03*
X174Y671D03*
X74Y671D03*
G54D13*
X1374Y171D03*
X1274Y171D03*
X1174Y171D03*
X1074Y171D03*
X1374Y271D03*
X1274Y271D03*
X1174Y271D03*
X1074Y271D03*
G54D10*
X1074Y1071D03*
X1074Y671D03*
X974Y971D03*
X974Y571D03*
G54D11*
X1374Y471D03*
X1174Y471D03*
X874Y571D03*
X874Y371D03*
G54D14*
X174Y1371D03*
X274Y1371D03*
X174Y871D03*
X274Y871D03*
G54D15*
X174Y1571D03*
X274Y1571D03*
G54D16*
X2074Y1171D03*
X2074Y1271D03*
X2074Y1371D03*
X2074Y1471D03*
G54D17*
X274Y1121D03*
X224Y1196D03*
X174Y1121D03*
G54D13*
X1474Y1471D03*
X1474Y1371D03*
X1474Y1271D03*
X1474Y1171D03*
X1474Y1071D03*
X1474Y971D03*
X1474Y871D03*
X1474Y771D03*
X1474Y671D03*
X1474Y571D03*
X1474Y471D03*
X774Y1471D03*
X774Y1371D03*
X774Y1271D03*
X774Y1171D03*
X774Y1071D03*
X774Y971D03*
X774Y871D03*
X774Y771D03*
X774Y671D03*
X774Y571D03*
X774Y471D03*
X474Y1371D03*
X474Y1271D03*
X474Y1171D03*
X474Y1071D03*
X474Y971D03*
X474Y871D03*
X1674Y971D03*
X1674Y871D03*
G54D10*
X1674Y1371D03*
X1674Y1471D03*
X2074Y871D03*
X2074Y615D03*
X1896Y871D03*
X1896Y615D03*
G54D11*
X74Y1471D03*
X374Y1471D03*
G54D10*
X1924Y371D03*
X2024Y371D03*
X1924Y221D03*
X2024Y221D03*
G54D13*
X1674Y621D03*
X1674Y521D03*
G54D11*
X1523Y372D03*
X1174Y372D03*
X1774Y471D03*
X1924Y471D03*
G54D18*
X174Y1571D03*
G54D19*
X174Y1540D02*
X174Y1398D01*
D02*
X274Y1398D02*
X274Y1540D01*
D02*
X74Y1371D02*
X75Y1122D01*
D02*
X75Y1122D02*
X147Y1122D01*
D02*
X272Y1271D02*
X239Y1219D01*
D02*
X274Y1094D02*
X274Y898D01*
D02*
X174Y1094D02*
X174Y898D01*
D02*
X147Y1371D02*
X74Y1371D01*
D02*
X273Y1345D02*
X272Y1271D01*
D02*
X2172Y1623D02*
X2172Y1170D01*
D02*
X2172Y1170D02*
X2175Y520D01*
D02*
X744Y1372D02*
X673Y1373D01*
D02*
X673Y1373D02*
X674Y1623D01*
D02*
X674Y1623D02*
X2172Y1623D01*
D02*
X774Y1502D02*
X774Y1570D01*
D02*
X1674Y1471D02*
X1702Y1471D01*
D02*
X774Y1570D02*
X1674Y1570D01*
D02*
X1674Y1570D02*
X1674Y1471D01*
D02*
X875Y1070D02*
X875Y973D01*
D02*
X674Y372D02*
X674Y771D01*
D02*
X374Y771D02*
X374Y872D01*
D02*
X804Y1471D02*
X874Y1471D01*
D02*
X743Y1371D02*
X504Y1371D01*
D02*
X504Y1071D02*
X555Y1071D01*
D02*
X874Y1471D02*
X875Y1070D01*
D02*
X674Y771D02*
X374Y771D01*
D02*
X626Y974D02*
X504Y972D01*
D02*
X1774Y872D02*
X1868Y872D01*
D02*
X743Y1171D02*
X674Y1171D01*
D02*
X674Y1171D02*
X674Y1090D01*
D02*
X626Y1269D02*
X626Y974D01*
D02*
X744Y1271D02*
X626Y1269D01*
D02*
X1674Y1343D02*
X1674Y1071D01*
D02*
X1674Y1071D02*
X1504Y1071D01*
D02*
X2074Y900D02*
X2074Y1137D01*
D02*
X1074Y202D02*
X1074Y241D01*
D02*
X1823Y372D02*
X1542Y372D01*
D02*
X1174Y202D02*
X1174Y241D01*
D02*
X1823Y520D02*
X1823Y372D01*
D02*
X2024Y520D02*
X1823Y520D01*
D02*
X2175Y520D02*
X2024Y520D01*
D02*
X1273Y672D02*
X1274Y1471D01*
D02*
X1374Y302D02*
X1374Y452D01*
D02*
X1274Y1471D02*
X1444Y1471D01*
D02*
X1274Y302D02*
X1273Y672D01*
D02*
X1274Y241D02*
X1274Y202D01*
D02*
X1374Y241D02*
X1374Y202D01*
D02*
X875Y973D02*
X945Y972D01*
D02*
X875Y1070D02*
X1045Y1071D01*
D02*
X875Y973D02*
X874Y590D01*
D02*
X374Y872D02*
X300Y872D01*
D02*
X1072Y372D02*
X1073Y302D01*
D02*
X893Y371D02*
X1072Y372D01*
D02*
X674Y372D02*
X855Y371D01*
D02*
X2039Y1471D02*
X1702Y1471D01*
D02*
X1573Y573D02*
X1504Y572D01*
D02*
X1675Y721D02*
X1573Y721D01*
D02*
X1573Y721D02*
X1573Y573D01*
D02*
X1674Y841D02*
X1675Y721D01*
D02*
X1702Y1371D02*
X2039Y1371D01*
D02*
X74Y1490D02*
X75Y1572D01*
D02*
X75Y1572D02*
X142Y1572D01*
D02*
X1273Y672D02*
X1102Y671D01*
D02*
X804Y471D02*
X975Y471D01*
D02*
X975Y471D02*
X1155Y471D01*
D02*
X975Y471D02*
X974Y543D01*
D02*
X1573Y971D02*
X1573Y770D01*
D02*
X1573Y770D02*
X1504Y771D01*
D02*
X1644Y971D02*
X1573Y971D01*
D02*
X2052Y221D02*
X2225Y220D01*
D02*
X2172Y1170D02*
X2108Y1171D01*
D02*
X143Y671D02*
X104Y671D01*
D02*
X243Y671D02*
X204Y671D01*
D02*
X443Y671D02*
X404Y671D01*
D02*
X543Y671D02*
X504Y671D01*
D02*
X543Y571D02*
X504Y571D01*
D02*
X443Y571D02*
X404Y571D01*
D02*
X243Y571D02*
X204Y571D01*
D02*
X143Y571D02*
X104Y571D01*
D02*
X143Y471D02*
X104Y471D01*
D02*
X243Y471D02*
X204Y471D01*
D02*
X443Y471D02*
X404Y471D01*
D02*
X543Y471D02*
X504Y471D01*
D02*
X143Y371D02*
X104Y371D01*
D02*
X243Y371D02*
X204Y371D01*
D02*
X443Y371D02*
X404Y371D01*
D02*
X543Y371D02*
X504Y371D01*
D02*
X143Y271D02*
X104Y271D01*
D02*
X243Y271D02*
X204Y271D01*
D02*
X443Y271D02*
X404Y271D01*
D02*
X543Y271D02*
X504Y271D01*
D02*
X143Y171D02*
X104Y171D01*
D02*
X243Y171D02*
X204Y171D01*
D02*
X443Y171D02*
X404Y171D01*
D02*
X543Y171D02*
X504Y171D01*
D02*
X1174Y353D02*
X1174Y302D01*
D02*
X473Y1471D02*
X473Y1402D01*
D02*
X393Y1471D02*
X473Y1471D01*
D02*
X424Y1570D02*
X424Y1672D01*
D02*
X424Y1672D02*
X2225Y1672D01*
D02*
X2225Y1672D02*
X2225Y220D01*
D02*
X305Y1571D02*
X424Y1570D01*
D02*
X1924Y452D02*
X1924Y400D01*
D02*
X2024Y520D02*
X2024Y400D01*
D02*
X1704Y871D02*
X1868Y871D01*
D02*
X1573Y520D02*
X1573Y471D01*
D02*
X1644Y521D02*
X1573Y520D01*
D02*
X1573Y471D02*
X1504Y471D01*
D02*
X1774Y622D02*
X1774Y490D01*
D02*
X1704Y622D02*
X1774Y622D01*
D02*
X1924Y250D02*
X1924Y343D01*
G36*
X1716Y1450D02*
X1716Y1448D01*
X1714Y1448D01*
X1714Y1446D01*
X1712Y1446D01*
X1712Y1442D01*
X1710Y1442D01*
X1710Y1440D01*
X1708Y1440D01*
X1708Y1438D01*
X1706Y1438D01*
X1706Y1436D01*
X1704Y1436D01*
X1704Y1434D01*
X1700Y1434D01*
X1700Y1432D01*
X1698Y1432D01*
X1698Y1412D01*
X1700Y1412D01*
X1700Y1410D01*
X1702Y1410D01*
X1702Y1408D01*
X1706Y1408D01*
X1706Y1406D01*
X1708Y1406D01*
X1708Y1404D01*
X1710Y1404D01*
X1710Y1400D01*
X1712Y1400D01*
X1712Y1398D01*
X1714Y1398D01*
X1714Y1394D01*
X2034Y1394D01*
X2034Y1398D01*
X2036Y1398D01*
X2036Y1400D01*
X2038Y1400D01*
X2038Y1404D01*
X2040Y1404D01*
X2040Y1406D01*
X2044Y1406D01*
X2044Y1408D01*
X2046Y1408D01*
X2046Y1410D01*
X2048Y1410D01*
X2048Y1412D01*
X2050Y1412D01*
X2050Y1432D01*
X2048Y1432D01*
X2048Y1434D01*
X2044Y1434D01*
X2044Y1436D01*
X2042Y1436D01*
X2042Y1438D01*
X2040Y1438D01*
X2040Y1440D01*
X2038Y1440D01*
X2038Y1442D01*
X2036Y1442D01*
X2036Y1446D01*
X2034Y1446D01*
X2034Y1448D01*
X2032Y1448D01*
X2032Y1450D01*
X1716Y1450D01*
G37*
D02*
G36*
X648Y1248D02*
X648Y1192D01*
X668Y1192D01*
X668Y1194D01*
X730Y1194D01*
X730Y1196D01*
X732Y1196D01*
X732Y1198D01*
X734Y1198D01*
X734Y1202D01*
X736Y1202D01*
X736Y1204D01*
X738Y1204D01*
X738Y1206D01*
X740Y1206D01*
X740Y1208D01*
X742Y1208D01*
X742Y1210D01*
X744Y1210D01*
X744Y1212D01*
X746Y1212D01*
X746Y1232D01*
X744Y1232D01*
X744Y1234D01*
X742Y1234D01*
X742Y1236D01*
X740Y1236D01*
X740Y1238D01*
X738Y1238D01*
X738Y1240D01*
X736Y1240D01*
X736Y1242D01*
X734Y1242D01*
X734Y1244D01*
X732Y1244D01*
X732Y1248D01*
X648Y1248D01*
G37*
D02*
G36*
X516Y1050D02*
X516Y1046D01*
X514Y1046D01*
X514Y1042D01*
X566Y1042D01*
X566Y1044D01*
X560Y1044D01*
X560Y1046D01*
X558Y1046D01*
X558Y1048D01*
X554Y1048D01*
X554Y1050D01*
X516Y1050D01*
G37*
D02*
G36*
X580Y1044D02*
X580Y1042D01*
X604Y1042D01*
X604Y1044D01*
X580Y1044D01*
G37*
D02*
G36*
X512Y1042D02*
X512Y1040D01*
X604Y1040D01*
X604Y1042D01*
X512Y1042D01*
G37*
D02*
G36*
X512Y1042D02*
X512Y1040D01*
X604Y1040D01*
X604Y1042D01*
X512Y1042D01*
G37*
D02*
G36*
X510Y1040D02*
X510Y1038D01*
X508Y1038D01*
X508Y1036D01*
X506Y1036D01*
X506Y1034D01*
X504Y1034D01*
X504Y1032D01*
X500Y1032D01*
X500Y1012D01*
X502Y1012D01*
X502Y1010D01*
X504Y1010D01*
X504Y1008D01*
X508Y1008D01*
X508Y1006D01*
X510Y1006D01*
X510Y1002D01*
X512Y1002D01*
X512Y1000D01*
X514Y1000D01*
X514Y998D01*
X516Y998D01*
X516Y994D01*
X546Y994D01*
X546Y996D01*
X604Y996D01*
X604Y1040D01*
X510Y1040D01*
G37*
D02*
G36*
X1594Y950D02*
X1594Y744D01*
X1652Y744D01*
X1652Y828D01*
X1650Y828D01*
X1650Y830D01*
X1646Y830D01*
X1646Y832D01*
X1644Y832D01*
X1644Y834D01*
X1642Y834D01*
X1642Y836D01*
X1640Y836D01*
X1640Y838D01*
X1638Y838D01*
X1638Y840D01*
X1636Y840D01*
X1636Y842D01*
X1634Y842D01*
X1634Y844D01*
X1632Y844D01*
X1632Y848D01*
X1630Y848D01*
X1630Y852D01*
X1628Y852D01*
X1628Y858D01*
X1626Y858D01*
X1626Y866D01*
X1624Y866D01*
X1624Y878D01*
X1626Y878D01*
X1626Y886D01*
X1628Y886D01*
X1628Y892D01*
X1630Y892D01*
X1630Y896D01*
X1632Y896D01*
X1632Y898D01*
X1634Y898D01*
X1634Y902D01*
X1636Y902D01*
X1636Y904D01*
X1638Y904D01*
X1638Y906D01*
X1640Y906D01*
X1640Y908D01*
X1642Y908D01*
X1642Y910D01*
X1644Y910D01*
X1644Y912D01*
X1646Y912D01*
X1646Y932D01*
X1644Y932D01*
X1644Y934D01*
X1642Y934D01*
X1642Y936D01*
X1640Y936D01*
X1640Y938D01*
X1638Y938D01*
X1638Y940D01*
X1636Y940D01*
X1636Y942D01*
X1634Y942D01*
X1634Y944D01*
X1632Y944D01*
X1632Y948D01*
X1630Y948D01*
X1630Y950D01*
X1594Y950D01*
G37*
D02*
G36*
X1516Y748D02*
X1516Y746D01*
X1514Y746D01*
X1514Y742D01*
X1512Y742D01*
X1512Y740D01*
X1510Y740D01*
X1510Y738D01*
X1508Y738D01*
X1508Y736D01*
X1506Y736D01*
X1506Y734D01*
X1504Y734D01*
X1504Y732D01*
X1500Y732D01*
X1500Y712D01*
X1502Y712D01*
X1502Y710D01*
X1504Y710D01*
X1504Y708D01*
X1508Y708D01*
X1508Y706D01*
X1510Y706D01*
X1510Y702D01*
X1512Y702D01*
X1512Y700D01*
X1514Y700D01*
X1514Y698D01*
X1516Y698D01*
X1516Y694D01*
X1518Y694D01*
X1518Y690D01*
X1520Y690D01*
X1520Y684D01*
X1522Y684D01*
X1522Y660D01*
X1520Y660D01*
X1520Y654D01*
X1518Y654D01*
X1518Y650D01*
X1516Y650D01*
X1516Y646D01*
X1514Y646D01*
X1514Y642D01*
X1512Y642D01*
X1512Y640D01*
X1510Y640D01*
X1510Y638D01*
X1508Y638D01*
X1508Y636D01*
X1506Y636D01*
X1506Y634D01*
X1504Y634D01*
X1504Y632D01*
X1500Y632D01*
X1500Y612D01*
X1502Y612D01*
X1502Y610D01*
X1504Y610D01*
X1504Y608D01*
X1508Y608D01*
X1508Y606D01*
X1510Y606D01*
X1510Y602D01*
X1512Y602D01*
X1512Y600D01*
X1514Y600D01*
X1514Y598D01*
X1516Y598D01*
X1516Y594D01*
X1550Y594D01*
X1550Y724D01*
X1552Y724D01*
X1552Y748D01*
X1516Y748D01*
G37*
D02*
G36*
X1516Y550D02*
X1516Y546D01*
X1514Y546D01*
X1514Y542D01*
X1512Y542D01*
X1512Y540D01*
X1510Y540D01*
X1510Y538D01*
X1508Y538D01*
X1508Y536D01*
X1506Y536D01*
X1506Y534D01*
X1504Y534D01*
X1504Y532D01*
X1500Y532D01*
X1500Y512D01*
X1502Y512D01*
X1502Y510D01*
X1504Y510D01*
X1504Y508D01*
X1508Y508D01*
X1508Y506D01*
X1510Y506D01*
X1510Y502D01*
X1512Y502D01*
X1512Y500D01*
X1514Y500D01*
X1514Y498D01*
X1516Y498D01*
X1516Y494D01*
X1550Y494D01*
X1550Y522D01*
X1552Y522D01*
X1552Y530D01*
X1554Y530D01*
X1554Y550D01*
X1516Y550D01*
G37*
D02*
G36*
X40Y1694D02*
X40Y1622D01*
X280Y1622D01*
X280Y1620D01*
X290Y1620D01*
X290Y1618D01*
X294Y1618D01*
X294Y1616D01*
X298Y1616D01*
X298Y1614D01*
X302Y1614D01*
X302Y1612D01*
X304Y1612D01*
X304Y1610D01*
X306Y1610D01*
X306Y1608D01*
X308Y1608D01*
X308Y1606D01*
X310Y1606D01*
X310Y1604D01*
X312Y1604D01*
X312Y1602D01*
X314Y1602D01*
X314Y1600D01*
X316Y1600D01*
X316Y1596D01*
X318Y1596D01*
X318Y1594D01*
X358Y1594D01*
X358Y1592D01*
X402Y1592D01*
X402Y1694D01*
X40Y1694D01*
G37*
D02*
G36*
X446Y1650D02*
X446Y1592D01*
X1682Y1592D01*
X1682Y1590D01*
X1686Y1590D01*
X1686Y1588D01*
X1688Y1588D01*
X1688Y1586D01*
X1690Y1586D01*
X1690Y1584D01*
X1692Y1584D01*
X1692Y1580D01*
X1694Y1580D01*
X1694Y1576D01*
X1696Y1576D01*
X1696Y1518D01*
X2086Y1518D01*
X2086Y1516D01*
X2092Y1516D01*
X2092Y1514D01*
X2096Y1514D01*
X2096Y1512D01*
X2100Y1512D01*
X2100Y1510D01*
X2102Y1510D01*
X2102Y1508D01*
X2104Y1508D01*
X2104Y1506D01*
X2106Y1506D01*
X2106Y1504D01*
X2108Y1504D01*
X2108Y1502D01*
X2110Y1502D01*
X2110Y1500D01*
X2112Y1500D01*
X2112Y1496D01*
X2114Y1496D01*
X2114Y1494D01*
X2116Y1494D01*
X2116Y1490D01*
X2118Y1490D01*
X2118Y1482D01*
X2120Y1482D01*
X2120Y1460D01*
X2118Y1460D01*
X2118Y1454D01*
X2116Y1454D01*
X2116Y1450D01*
X2114Y1450D01*
X2114Y1446D01*
X2112Y1446D01*
X2112Y1444D01*
X2110Y1444D01*
X2110Y1442D01*
X2108Y1442D01*
X2108Y1438D01*
X2104Y1438D01*
X2104Y1436D01*
X2102Y1436D01*
X2102Y1434D01*
X2100Y1434D01*
X2100Y1432D01*
X2096Y1432D01*
X2096Y1412D01*
X2100Y1412D01*
X2100Y1410D01*
X2102Y1410D01*
X2102Y1408D01*
X2104Y1408D01*
X2104Y1406D01*
X2106Y1406D01*
X2106Y1404D01*
X2108Y1404D01*
X2108Y1402D01*
X2110Y1402D01*
X2110Y1400D01*
X2112Y1400D01*
X2112Y1396D01*
X2114Y1396D01*
X2114Y1394D01*
X2116Y1394D01*
X2116Y1390D01*
X2118Y1390D01*
X2118Y1382D01*
X2120Y1382D01*
X2120Y1360D01*
X2118Y1360D01*
X2118Y1354D01*
X2116Y1354D01*
X2116Y1350D01*
X2114Y1350D01*
X2114Y1346D01*
X2112Y1346D01*
X2112Y1344D01*
X2110Y1344D01*
X2110Y1342D01*
X2108Y1342D01*
X2108Y1338D01*
X2104Y1338D01*
X2104Y1336D01*
X2102Y1336D01*
X2102Y1334D01*
X2100Y1334D01*
X2100Y1332D01*
X2096Y1332D01*
X2096Y1312D01*
X2100Y1312D01*
X2100Y1310D01*
X2102Y1310D01*
X2102Y1308D01*
X2104Y1308D01*
X2104Y1306D01*
X2106Y1306D01*
X2106Y1304D01*
X2108Y1304D01*
X2108Y1302D01*
X2110Y1302D01*
X2110Y1300D01*
X2112Y1300D01*
X2112Y1296D01*
X2114Y1296D01*
X2114Y1294D01*
X2116Y1294D01*
X2116Y1290D01*
X2118Y1290D01*
X2118Y1282D01*
X2120Y1282D01*
X2120Y1260D01*
X2118Y1260D01*
X2118Y1254D01*
X2116Y1254D01*
X2116Y1250D01*
X2114Y1250D01*
X2114Y1246D01*
X2112Y1246D01*
X2112Y1244D01*
X2110Y1244D01*
X2110Y1242D01*
X2108Y1242D01*
X2108Y1238D01*
X2104Y1238D01*
X2104Y1236D01*
X2102Y1236D01*
X2102Y1234D01*
X2100Y1234D01*
X2100Y1232D01*
X2096Y1232D01*
X2096Y1212D01*
X2100Y1212D01*
X2100Y1210D01*
X2102Y1210D01*
X2102Y1208D01*
X2104Y1208D01*
X2104Y1206D01*
X2106Y1206D01*
X2106Y1204D01*
X2108Y1204D01*
X2108Y1202D01*
X2110Y1202D01*
X2110Y1200D01*
X2112Y1200D01*
X2112Y1196D01*
X2114Y1196D01*
X2114Y1194D01*
X2116Y1194D01*
X2116Y1190D01*
X2118Y1190D01*
X2118Y1182D01*
X2120Y1182D01*
X2120Y1160D01*
X2118Y1160D01*
X2118Y1154D01*
X2116Y1154D01*
X2116Y1150D01*
X2114Y1150D01*
X2114Y1146D01*
X2112Y1146D01*
X2112Y1144D01*
X2110Y1144D01*
X2110Y1142D01*
X2108Y1142D01*
X2108Y1138D01*
X2104Y1138D01*
X2104Y1136D01*
X2102Y1136D01*
X2102Y1134D01*
X2100Y1134D01*
X2100Y1132D01*
X2096Y1132D01*
X2096Y1130D01*
X2092Y1130D01*
X2092Y1128D01*
X2088Y1128D01*
X2088Y1126D01*
X2078Y1126D01*
X2078Y1124D01*
X2202Y1124D01*
X2202Y1650D01*
X446Y1650D01*
G37*
D02*
G36*
X40Y1622D02*
X40Y1522D01*
X124Y1522D01*
X124Y1622D01*
X40Y1622D01*
G37*
D02*
G36*
X224Y1622D02*
X224Y1610D01*
X244Y1610D01*
X244Y1612D01*
X246Y1612D01*
X246Y1614D01*
X250Y1614D01*
X250Y1616D01*
X252Y1616D01*
X252Y1618D01*
X258Y1618D01*
X258Y1620D01*
X266Y1620D01*
X266Y1622D01*
X224Y1622D01*
G37*
D02*
G36*
X446Y1592D02*
X446Y1564D01*
X444Y1564D01*
X444Y1560D01*
X442Y1560D01*
X442Y1556D01*
X440Y1556D01*
X440Y1554D01*
X438Y1554D01*
X438Y1552D01*
X434Y1552D01*
X434Y1550D01*
X428Y1550D01*
X428Y1548D01*
X752Y1548D01*
X752Y1576D01*
X754Y1576D01*
X754Y1580D01*
X756Y1580D01*
X756Y1584D01*
X758Y1584D01*
X758Y1586D01*
X760Y1586D01*
X760Y1588D01*
X762Y1588D01*
X762Y1590D01*
X766Y1590D01*
X766Y1592D01*
X446Y1592D01*
G37*
D02*
G36*
X318Y1550D02*
X318Y1548D01*
X356Y1548D01*
X356Y1550D01*
X318Y1550D01*
G37*
D02*
G36*
X316Y1548D02*
X316Y1546D01*
X752Y1546D01*
X752Y1548D01*
X316Y1548D01*
G37*
D02*
G36*
X316Y1548D02*
X316Y1546D01*
X752Y1546D01*
X752Y1548D01*
X316Y1548D01*
G37*
D02*
G36*
X796Y1548D02*
X796Y1520D01*
X1486Y1520D01*
X1486Y1518D01*
X1492Y1518D01*
X1492Y1516D01*
X1496Y1516D01*
X1496Y1514D01*
X1500Y1514D01*
X1500Y1512D01*
X1502Y1512D01*
X1502Y1510D01*
X1504Y1510D01*
X1504Y1508D01*
X1508Y1508D01*
X1508Y1506D01*
X1510Y1506D01*
X1510Y1502D01*
X1512Y1502D01*
X1512Y1500D01*
X1514Y1500D01*
X1514Y1498D01*
X1516Y1498D01*
X1516Y1494D01*
X1518Y1494D01*
X1518Y1490D01*
X1520Y1490D01*
X1520Y1484D01*
X1522Y1484D01*
X1522Y1460D01*
X1520Y1460D01*
X1520Y1454D01*
X1518Y1454D01*
X1518Y1450D01*
X1516Y1450D01*
X1516Y1446D01*
X1514Y1446D01*
X1514Y1442D01*
X1512Y1442D01*
X1512Y1440D01*
X1510Y1440D01*
X1510Y1438D01*
X1508Y1438D01*
X1508Y1436D01*
X1506Y1436D01*
X1506Y1434D01*
X1504Y1434D01*
X1504Y1432D01*
X1500Y1432D01*
X1500Y1412D01*
X1502Y1412D01*
X1502Y1410D01*
X1504Y1410D01*
X1504Y1408D01*
X1508Y1408D01*
X1508Y1406D01*
X1510Y1406D01*
X1510Y1402D01*
X1512Y1402D01*
X1512Y1400D01*
X1514Y1400D01*
X1514Y1398D01*
X1516Y1398D01*
X1516Y1394D01*
X1518Y1394D01*
X1518Y1390D01*
X1520Y1390D01*
X1520Y1384D01*
X1522Y1384D01*
X1522Y1360D01*
X1520Y1360D01*
X1520Y1354D01*
X1518Y1354D01*
X1518Y1350D01*
X1516Y1350D01*
X1516Y1346D01*
X1514Y1346D01*
X1514Y1342D01*
X1512Y1342D01*
X1512Y1340D01*
X1510Y1340D01*
X1510Y1338D01*
X1508Y1338D01*
X1508Y1336D01*
X1506Y1336D01*
X1506Y1334D01*
X1504Y1334D01*
X1504Y1332D01*
X1500Y1332D01*
X1500Y1312D01*
X1502Y1312D01*
X1502Y1310D01*
X1504Y1310D01*
X1504Y1308D01*
X1508Y1308D01*
X1508Y1306D01*
X1510Y1306D01*
X1510Y1302D01*
X1512Y1302D01*
X1512Y1300D01*
X1514Y1300D01*
X1514Y1298D01*
X1516Y1298D01*
X1516Y1294D01*
X1518Y1294D01*
X1518Y1290D01*
X1520Y1290D01*
X1520Y1284D01*
X1522Y1284D01*
X1522Y1260D01*
X1520Y1260D01*
X1520Y1254D01*
X1518Y1254D01*
X1518Y1250D01*
X1516Y1250D01*
X1516Y1246D01*
X1514Y1246D01*
X1514Y1242D01*
X1512Y1242D01*
X1512Y1240D01*
X1510Y1240D01*
X1510Y1238D01*
X1508Y1238D01*
X1508Y1236D01*
X1506Y1236D01*
X1506Y1234D01*
X1504Y1234D01*
X1504Y1232D01*
X1500Y1232D01*
X1500Y1212D01*
X1502Y1212D01*
X1502Y1210D01*
X1504Y1210D01*
X1504Y1208D01*
X1508Y1208D01*
X1508Y1206D01*
X1510Y1206D01*
X1510Y1202D01*
X1512Y1202D01*
X1512Y1200D01*
X1514Y1200D01*
X1514Y1198D01*
X1516Y1198D01*
X1516Y1194D01*
X1518Y1194D01*
X1518Y1190D01*
X1520Y1190D01*
X1520Y1184D01*
X1522Y1184D01*
X1522Y1160D01*
X1520Y1160D01*
X1520Y1154D01*
X1518Y1154D01*
X1518Y1150D01*
X1516Y1150D01*
X1516Y1146D01*
X1514Y1146D01*
X1514Y1142D01*
X1512Y1142D01*
X1512Y1140D01*
X1510Y1140D01*
X1510Y1138D01*
X1508Y1138D01*
X1508Y1136D01*
X1506Y1136D01*
X1506Y1134D01*
X1504Y1134D01*
X1504Y1132D01*
X1500Y1132D01*
X1500Y1112D01*
X1502Y1112D01*
X1502Y1110D01*
X1504Y1110D01*
X1504Y1108D01*
X1508Y1108D01*
X1508Y1106D01*
X1510Y1106D01*
X1510Y1102D01*
X1512Y1102D01*
X1512Y1100D01*
X1514Y1100D01*
X1514Y1098D01*
X1516Y1098D01*
X1516Y1094D01*
X1652Y1094D01*
X1652Y1330D01*
X1650Y1330D01*
X1650Y1332D01*
X1646Y1332D01*
X1646Y1334D01*
X1644Y1334D01*
X1644Y1336D01*
X1642Y1336D01*
X1642Y1338D01*
X1640Y1338D01*
X1640Y1340D01*
X1638Y1340D01*
X1638Y1342D01*
X1636Y1342D01*
X1636Y1344D01*
X1634Y1344D01*
X1634Y1348D01*
X1632Y1348D01*
X1632Y1352D01*
X1630Y1352D01*
X1630Y1356D01*
X1628Y1356D01*
X1628Y1364D01*
X1626Y1364D01*
X1626Y1380D01*
X1628Y1380D01*
X1628Y1388D01*
X1630Y1388D01*
X1630Y1392D01*
X1632Y1392D01*
X1632Y1396D01*
X1634Y1396D01*
X1634Y1400D01*
X1636Y1400D01*
X1636Y1402D01*
X1638Y1402D01*
X1638Y1404D01*
X1640Y1404D01*
X1640Y1406D01*
X1642Y1406D01*
X1642Y1408D01*
X1644Y1408D01*
X1644Y1410D01*
X1648Y1410D01*
X1648Y1412D01*
X1650Y1412D01*
X1650Y1432D01*
X1646Y1432D01*
X1646Y1434D01*
X1644Y1434D01*
X1644Y1436D01*
X1642Y1436D01*
X1642Y1438D01*
X1640Y1438D01*
X1640Y1440D01*
X1638Y1440D01*
X1638Y1442D01*
X1636Y1442D01*
X1636Y1444D01*
X1634Y1444D01*
X1634Y1448D01*
X1632Y1448D01*
X1632Y1452D01*
X1630Y1452D01*
X1630Y1456D01*
X1628Y1456D01*
X1628Y1464D01*
X1626Y1464D01*
X1626Y1480D01*
X1628Y1480D01*
X1628Y1488D01*
X1630Y1488D01*
X1630Y1492D01*
X1632Y1492D01*
X1632Y1496D01*
X1634Y1496D01*
X1634Y1500D01*
X1636Y1500D01*
X1636Y1502D01*
X1638Y1502D01*
X1638Y1504D01*
X1640Y1504D01*
X1640Y1506D01*
X1642Y1506D01*
X1642Y1508D01*
X1644Y1508D01*
X1644Y1510D01*
X1648Y1510D01*
X1648Y1512D01*
X1650Y1512D01*
X1650Y1514D01*
X1652Y1514D01*
X1652Y1548D01*
X796Y1548D01*
G37*
D02*
G36*
X316Y1546D02*
X316Y1544D01*
X314Y1544D01*
X314Y1542D01*
X312Y1542D01*
X312Y1538D01*
X310Y1538D01*
X310Y1536D01*
X308Y1536D01*
X308Y1534D01*
X304Y1534D01*
X304Y1532D01*
X302Y1532D01*
X302Y1530D01*
X300Y1530D01*
X300Y1528D01*
X296Y1528D01*
X296Y1502D01*
X376Y1502D01*
X376Y1500D01*
X386Y1500D01*
X386Y1498D01*
X388Y1498D01*
X388Y1496D01*
X392Y1496D01*
X392Y1494D01*
X394Y1494D01*
X394Y1492D01*
X396Y1492D01*
X396Y1490D01*
X398Y1490D01*
X398Y1486D01*
X400Y1486D01*
X400Y1484D01*
X402Y1484D01*
X402Y1474D01*
X404Y1474D01*
X404Y1470D01*
X402Y1470D01*
X402Y1460D01*
X400Y1460D01*
X400Y1456D01*
X398Y1456D01*
X398Y1454D01*
X396Y1454D01*
X396Y1452D01*
X394Y1452D01*
X394Y1450D01*
X392Y1450D01*
X392Y1448D01*
X390Y1448D01*
X390Y1446D01*
X386Y1446D01*
X386Y1444D01*
X380Y1444D01*
X380Y1442D01*
X734Y1442D01*
X734Y1444D01*
X732Y1444D01*
X732Y1448D01*
X730Y1448D01*
X730Y1452D01*
X728Y1452D01*
X728Y1458D01*
X726Y1458D01*
X726Y1466D01*
X724Y1466D01*
X724Y1478D01*
X726Y1478D01*
X726Y1486D01*
X728Y1486D01*
X728Y1492D01*
X730Y1492D01*
X730Y1496D01*
X732Y1496D01*
X732Y1498D01*
X734Y1498D01*
X734Y1502D01*
X736Y1502D01*
X736Y1504D01*
X738Y1504D01*
X738Y1506D01*
X740Y1506D01*
X740Y1508D01*
X742Y1508D01*
X742Y1510D01*
X744Y1510D01*
X744Y1512D01*
X748Y1512D01*
X748Y1514D01*
X752Y1514D01*
X752Y1546D01*
X316Y1546D01*
G37*
D02*
G36*
X224Y1532D02*
X224Y1522D01*
X252Y1522D01*
X252Y1528D01*
X248Y1528D01*
X248Y1530D01*
X244Y1530D01*
X244Y1532D01*
X224Y1532D01*
G37*
D02*
G36*
X40Y1522D02*
X40Y1520D01*
X252Y1520D01*
X252Y1522D01*
X40Y1522D01*
G37*
D02*
G36*
X40Y1522D02*
X40Y1520D01*
X252Y1520D01*
X252Y1522D01*
X40Y1522D01*
G37*
D02*
G36*
X40Y1520D02*
X40Y1502D01*
X76Y1502D01*
X76Y1500D01*
X86Y1500D01*
X86Y1498D01*
X88Y1498D01*
X88Y1496D01*
X92Y1496D01*
X92Y1494D01*
X94Y1494D01*
X94Y1492D01*
X96Y1492D01*
X96Y1490D01*
X98Y1490D01*
X98Y1486D01*
X100Y1486D01*
X100Y1484D01*
X102Y1484D01*
X102Y1474D01*
X104Y1474D01*
X104Y1470D01*
X102Y1470D01*
X102Y1460D01*
X100Y1460D01*
X100Y1456D01*
X98Y1456D01*
X98Y1454D01*
X96Y1454D01*
X96Y1452D01*
X94Y1452D01*
X94Y1450D01*
X92Y1450D01*
X92Y1448D01*
X90Y1448D01*
X90Y1446D01*
X86Y1446D01*
X86Y1444D01*
X80Y1444D01*
X80Y1442D01*
X252Y1442D01*
X252Y1520D01*
X40Y1520D01*
G37*
D02*
G36*
X796Y1520D02*
X796Y1514D01*
X800Y1514D01*
X800Y1512D01*
X802Y1512D01*
X802Y1510D01*
X804Y1510D01*
X804Y1508D01*
X808Y1508D01*
X808Y1506D01*
X810Y1506D01*
X810Y1502D01*
X812Y1502D01*
X812Y1500D01*
X814Y1500D01*
X814Y1498D01*
X816Y1498D01*
X816Y1494D01*
X878Y1494D01*
X878Y1492D01*
X884Y1492D01*
X884Y1490D01*
X888Y1490D01*
X888Y1488D01*
X890Y1488D01*
X890Y1486D01*
X892Y1486D01*
X892Y1482D01*
X894Y1482D01*
X894Y1476D01*
X896Y1476D01*
X896Y1120D01*
X1076Y1120D01*
X1076Y1118D01*
X1086Y1118D01*
X1086Y1116D01*
X1092Y1116D01*
X1092Y1114D01*
X1096Y1114D01*
X1096Y1112D01*
X1100Y1112D01*
X1100Y1110D01*
X1102Y1110D01*
X1102Y1108D01*
X1106Y1108D01*
X1106Y1106D01*
X1108Y1106D01*
X1108Y1104D01*
X1110Y1104D01*
X1110Y1100D01*
X1112Y1100D01*
X1112Y1098D01*
X1114Y1098D01*
X1114Y1094D01*
X1116Y1094D01*
X1116Y1090D01*
X1118Y1090D01*
X1118Y1084D01*
X1120Y1084D01*
X1120Y1074D01*
X1122Y1074D01*
X1122Y1070D01*
X1120Y1070D01*
X1120Y1058D01*
X1118Y1058D01*
X1118Y1052D01*
X1116Y1052D01*
X1116Y1048D01*
X1114Y1048D01*
X1114Y1046D01*
X1112Y1046D01*
X1112Y1042D01*
X1110Y1042D01*
X1110Y1040D01*
X1108Y1040D01*
X1108Y1038D01*
X1106Y1038D01*
X1106Y1036D01*
X1104Y1036D01*
X1104Y1034D01*
X1100Y1034D01*
X1100Y1032D01*
X1098Y1032D01*
X1098Y1030D01*
X1094Y1030D01*
X1094Y1028D01*
X1088Y1028D01*
X1088Y1026D01*
X1082Y1026D01*
X1082Y1024D01*
X1250Y1024D01*
X1250Y1034D01*
X1252Y1034D01*
X1252Y1480D01*
X1254Y1480D01*
X1254Y1484D01*
X1256Y1484D01*
X1256Y1486D01*
X1258Y1486D01*
X1258Y1488D01*
X1260Y1488D01*
X1260Y1490D01*
X1264Y1490D01*
X1264Y1492D01*
X1268Y1492D01*
X1268Y1494D01*
X1430Y1494D01*
X1430Y1496D01*
X1432Y1496D01*
X1432Y1498D01*
X1434Y1498D01*
X1434Y1502D01*
X1436Y1502D01*
X1436Y1504D01*
X1438Y1504D01*
X1438Y1506D01*
X1440Y1506D01*
X1440Y1508D01*
X1442Y1508D01*
X1442Y1510D01*
X1444Y1510D01*
X1444Y1512D01*
X1448Y1512D01*
X1448Y1514D01*
X1452Y1514D01*
X1452Y1516D01*
X1456Y1516D01*
X1456Y1518D01*
X1462Y1518D01*
X1462Y1520D01*
X796Y1520D01*
G37*
D02*
G36*
X1696Y1518D02*
X1696Y1512D01*
X1700Y1512D01*
X1700Y1510D01*
X1702Y1510D01*
X1702Y1508D01*
X1706Y1508D01*
X1706Y1506D01*
X1708Y1506D01*
X1708Y1504D01*
X1710Y1504D01*
X1710Y1500D01*
X1712Y1500D01*
X1712Y1498D01*
X1714Y1498D01*
X1714Y1494D01*
X2034Y1494D01*
X2034Y1498D01*
X2036Y1498D01*
X2036Y1500D01*
X2038Y1500D01*
X2038Y1504D01*
X2040Y1504D01*
X2040Y1506D01*
X2044Y1506D01*
X2044Y1508D01*
X2046Y1508D01*
X2046Y1510D01*
X2048Y1510D01*
X2048Y1512D01*
X2052Y1512D01*
X2052Y1514D01*
X2056Y1514D01*
X2056Y1516D01*
X2062Y1516D01*
X2062Y1518D01*
X1696Y1518D01*
G37*
D02*
G36*
X40Y1502D02*
X40Y1498D01*
X62Y1498D01*
X62Y1500D01*
X70Y1500D01*
X70Y1502D01*
X40Y1502D01*
G37*
D02*
G36*
X296Y1502D02*
X296Y1442D01*
X366Y1442D01*
X366Y1444D01*
X360Y1444D01*
X360Y1446D01*
X358Y1446D01*
X358Y1448D01*
X354Y1448D01*
X354Y1450D01*
X352Y1450D01*
X352Y1452D01*
X350Y1452D01*
X350Y1456D01*
X348Y1456D01*
X348Y1458D01*
X346Y1458D01*
X346Y1464D01*
X344Y1464D01*
X344Y1478D01*
X346Y1478D01*
X346Y1484D01*
X348Y1484D01*
X348Y1488D01*
X350Y1488D01*
X350Y1490D01*
X352Y1490D01*
X352Y1492D01*
X354Y1492D01*
X354Y1494D01*
X356Y1494D01*
X356Y1496D01*
X358Y1496D01*
X358Y1498D01*
X362Y1498D01*
X362Y1500D01*
X370Y1500D01*
X370Y1502D01*
X296Y1502D01*
G37*
D02*
G36*
X816Y1450D02*
X816Y1446D01*
X814Y1446D01*
X814Y1442D01*
X812Y1442D01*
X812Y1440D01*
X810Y1440D01*
X810Y1438D01*
X808Y1438D01*
X808Y1436D01*
X806Y1436D01*
X806Y1434D01*
X804Y1434D01*
X804Y1432D01*
X800Y1432D01*
X800Y1412D01*
X802Y1412D01*
X802Y1410D01*
X804Y1410D01*
X804Y1408D01*
X808Y1408D01*
X808Y1406D01*
X810Y1406D01*
X810Y1402D01*
X812Y1402D01*
X812Y1400D01*
X814Y1400D01*
X814Y1398D01*
X816Y1398D01*
X816Y1394D01*
X818Y1394D01*
X818Y1390D01*
X820Y1390D01*
X820Y1384D01*
X822Y1384D01*
X822Y1360D01*
X820Y1360D01*
X820Y1354D01*
X818Y1354D01*
X818Y1350D01*
X816Y1350D01*
X816Y1346D01*
X814Y1346D01*
X814Y1342D01*
X812Y1342D01*
X812Y1340D01*
X810Y1340D01*
X810Y1338D01*
X808Y1338D01*
X808Y1336D01*
X806Y1336D01*
X806Y1334D01*
X804Y1334D01*
X804Y1332D01*
X800Y1332D01*
X800Y1312D01*
X802Y1312D01*
X802Y1310D01*
X804Y1310D01*
X804Y1308D01*
X808Y1308D01*
X808Y1306D01*
X810Y1306D01*
X810Y1302D01*
X812Y1302D01*
X812Y1300D01*
X814Y1300D01*
X814Y1298D01*
X816Y1298D01*
X816Y1294D01*
X818Y1294D01*
X818Y1290D01*
X820Y1290D01*
X820Y1284D01*
X822Y1284D01*
X822Y1260D01*
X820Y1260D01*
X820Y1254D01*
X818Y1254D01*
X818Y1250D01*
X816Y1250D01*
X816Y1246D01*
X814Y1246D01*
X814Y1242D01*
X812Y1242D01*
X812Y1240D01*
X810Y1240D01*
X810Y1238D01*
X808Y1238D01*
X808Y1236D01*
X806Y1236D01*
X806Y1234D01*
X804Y1234D01*
X804Y1232D01*
X800Y1232D01*
X800Y1212D01*
X802Y1212D01*
X802Y1210D01*
X804Y1210D01*
X804Y1208D01*
X808Y1208D01*
X808Y1206D01*
X810Y1206D01*
X810Y1202D01*
X812Y1202D01*
X812Y1200D01*
X814Y1200D01*
X814Y1198D01*
X816Y1198D01*
X816Y1194D01*
X818Y1194D01*
X818Y1190D01*
X820Y1190D01*
X820Y1184D01*
X822Y1184D01*
X822Y1160D01*
X820Y1160D01*
X820Y1154D01*
X818Y1154D01*
X818Y1150D01*
X816Y1150D01*
X816Y1146D01*
X814Y1146D01*
X814Y1142D01*
X812Y1142D01*
X812Y1140D01*
X810Y1140D01*
X810Y1138D01*
X808Y1138D01*
X808Y1136D01*
X806Y1136D01*
X806Y1134D01*
X804Y1134D01*
X804Y1132D01*
X800Y1132D01*
X800Y1112D01*
X802Y1112D01*
X802Y1110D01*
X804Y1110D01*
X804Y1108D01*
X808Y1108D01*
X808Y1106D01*
X810Y1106D01*
X810Y1102D01*
X812Y1102D01*
X812Y1100D01*
X814Y1100D01*
X814Y1098D01*
X816Y1098D01*
X816Y1094D01*
X818Y1094D01*
X818Y1090D01*
X820Y1090D01*
X820Y1084D01*
X822Y1084D01*
X822Y1060D01*
X820Y1060D01*
X820Y1054D01*
X818Y1054D01*
X818Y1050D01*
X816Y1050D01*
X816Y1046D01*
X814Y1046D01*
X814Y1042D01*
X812Y1042D01*
X812Y1040D01*
X810Y1040D01*
X810Y1038D01*
X808Y1038D01*
X808Y1036D01*
X806Y1036D01*
X806Y1034D01*
X804Y1034D01*
X804Y1032D01*
X800Y1032D01*
X800Y1012D01*
X802Y1012D01*
X802Y1010D01*
X804Y1010D01*
X804Y1008D01*
X808Y1008D01*
X808Y1006D01*
X810Y1006D01*
X810Y1002D01*
X812Y1002D01*
X812Y1000D01*
X814Y1000D01*
X814Y998D01*
X816Y998D01*
X816Y994D01*
X818Y994D01*
X818Y990D01*
X820Y990D01*
X820Y984D01*
X822Y984D01*
X822Y960D01*
X820Y960D01*
X820Y954D01*
X818Y954D01*
X818Y950D01*
X816Y950D01*
X816Y946D01*
X814Y946D01*
X814Y942D01*
X812Y942D01*
X812Y940D01*
X810Y940D01*
X810Y938D01*
X808Y938D01*
X808Y936D01*
X806Y936D01*
X806Y934D01*
X804Y934D01*
X804Y932D01*
X800Y932D01*
X800Y912D01*
X802Y912D01*
X802Y910D01*
X804Y910D01*
X804Y908D01*
X808Y908D01*
X808Y906D01*
X810Y906D01*
X810Y902D01*
X812Y902D01*
X812Y900D01*
X814Y900D01*
X814Y898D01*
X816Y898D01*
X816Y894D01*
X818Y894D01*
X818Y890D01*
X820Y890D01*
X820Y884D01*
X822Y884D01*
X822Y860D01*
X820Y860D01*
X820Y854D01*
X818Y854D01*
X818Y850D01*
X816Y850D01*
X816Y846D01*
X814Y846D01*
X814Y842D01*
X812Y842D01*
X812Y840D01*
X810Y840D01*
X810Y838D01*
X808Y838D01*
X808Y836D01*
X806Y836D01*
X806Y834D01*
X804Y834D01*
X804Y832D01*
X800Y832D01*
X800Y812D01*
X802Y812D01*
X802Y810D01*
X804Y810D01*
X804Y808D01*
X808Y808D01*
X808Y806D01*
X810Y806D01*
X810Y802D01*
X812Y802D01*
X812Y800D01*
X814Y800D01*
X814Y798D01*
X816Y798D01*
X816Y794D01*
X818Y794D01*
X818Y790D01*
X820Y790D01*
X820Y784D01*
X822Y784D01*
X822Y760D01*
X820Y760D01*
X820Y754D01*
X818Y754D01*
X818Y750D01*
X816Y750D01*
X816Y746D01*
X814Y746D01*
X814Y742D01*
X812Y742D01*
X812Y740D01*
X810Y740D01*
X810Y738D01*
X808Y738D01*
X808Y736D01*
X806Y736D01*
X806Y734D01*
X804Y734D01*
X804Y732D01*
X800Y732D01*
X800Y712D01*
X802Y712D01*
X802Y710D01*
X804Y710D01*
X804Y708D01*
X808Y708D01*
X808Y706D01*
X810Y706D01*
X810Y702D01*
X812Y702D01*
X812Y700D01*
X814Y700D01*
X814Y698D01*
X816Y698D01*
X816Y694D01*
X818Y694D01*
X818Y690D01*
X820Y690D01*
X820Y684D01*
X822Y684D01*
X822Y660D01*
X820Y660D01*
X820Y654D01*
X818Y654D01*
X818Y650D01*
X816Y650D01*
X816Y646D01*
X814Y646D01*
X814Y642D01*
X812Y642D01*
X812Y640D01*
X810Y640D01*
X810Y638D01*
X808Y638D01*
X808Y636D01*
X806Y636D01*
X806Y634D01*
X804Y634D01*
X804Y632D01*
X800Y632D01*
X800Y612D01*
X802Y612D01*
X802Y610D01*
X804Y610D01*
X804Y608D01*
X808Y608D01*
X808Y606D01*
X810Y606D01*
X810Y602D01*
X812Y602D01*
X812Y600D01*
X814Y600D01*
X814Y598D01*
X816Y598D01*
X816Y594D01*
X818Y594D01*
X818Y590D01*
X820Y590D01*
X820Y584D01*
X822Y584D01*
X822Y560D01*
X820Y560D01*
X820Y554D01*
X818Y554D01*
X818Y550D01*
X816Y550D01*
X816Y546D01*
X814Y546D01*
X814Y542D01*
X866Y542D01*
X866Y544D01*
X860Y544D01*
X860Y546D01*
X858Y546D01*
X858Y548D01*
X854Y548D01*
X854Y550D01*
X852Y550D01*
X852Y552D01*
X850Y552D01*
X850Y556D01*
X848Y556D01*
X848Y558D01*
X846Y558D01*
X846Y564D01*
X844Y564D01*
X844Y580D01*
X846Y580D01*
X846Y584D01*
X848Y584D01*
X848Y588D01*
X850Y588D01*
X850Y590D01*
X852Y590D01*
X852Y1450D01*
X816Y1450D01*
G37*
D02*
G36*
X1296Y1450D02*
X1296Y1026D01*
X1294Y1026D01*
X1294Y502D01*
X1376Y502D01*
X1376Y500D01*
X1386Y500D01*
X1386Y498D01*
X1388Y498D01*
X1388Y496D01*
X1392Y496D01*
X1392Y494D01*
X1394Y494D01*
X1394Y492D01*
X1396Y492D01*
X1396Y490D01*
X1398Y490D01*
X1398Y486D01*
X1400Y486D01*
X1400Y484D01*
X1402Y484D01*
X1402Y474D01*
X1404Y474D01*
X1404Y470D01*
X1402Y470D01*
X1402Y460D01*
X1400Y460D01*
X1400Y456D01*
X1398Y456D01*
X1398Y454D01*
X1396Y454D01*
X1396Y422D01*
X1468Y422D01*
X1468Y424D01*
X1460Y424D01*
X1460Y426D01*
X1454Y426D01*
X1454Y428D01*
X1450Y428D01*
X1450Y430D01*
X1446Y430D01*
X1446Y432D01*
X1444Y432D01*
X1444Y434D01*
X1442Y434D01*
X1442Y436D01*
X1440Y436D01*
X1440Y438D01*
X1438Y438D01*
X1438Y440D01*
X1436Y440D01*
X1436Y442D01*
X1434Y442D01*
X1434Y444D01*
X1432Y444D01*
X1432Y448D01*
X1430Y448D01*
X1430Y452D01*
X1428Y452D01*
X1428Y458D01*
X1426Y458D01*
X1426Y466D01*
X1424Y466D01*
X1424Y478D01*
X1426Y478D01*
X1426Y486D01*
X1428Y486D01*
X1428Y492D01*
X1430Y492D01*
X1430Y496D01*
X1432Y496D01*
X1432Y498D01*
X1434Y498D01*
X1434Y502D01*
X1436Y502D01*
X1436Y504D01*
X1438Y504D01*
X1438Y506D01*
X1440Y506D01*
X1440Y508D01*
X1442Y508D01*
X1442Y510D01*
X1444Y510D01*
X1444Y512D01*
X1446Y512D01*
X1446Y532D01*
X1444Y532D01*
X1444Y534D01*
X1442Y534D01*
X1442Y536D01*
X1440Y536D01*
X1440Y538D01*
X1438Y538D01*
X1438Y540D01*
X1436Y540D01*
X1436Y542D01*
X1434Y542D01*
X1434Y544D01*
X1432Y544D01*
X1432Y548D01*
X1430Y548D01*
X1430Y552D01*
X1428Y552D01*
X1428Y558D01*
X1426Y558D01*
X1426Y566D01*
X1424Y566D01*
X1424Y578D01*
X1426Y578D01*
X1426Y586D01*
X1428Y586D01*
X1428Y592D01*
X1430Y592D01*
X1430Y596D01*
X1432Y596D01*
X1432Y598D01*
X1434Y598D01*
X1434Y602D01*
X1436Y602D01*
X1436Y604D01*
X1438Y604D01*
X1438Y606D01*
X1440Y606D01*
X1440Y608D01*
X1442Y608D01*
X1442Y610D01*
X1444Y610D01*
X1444Y612D01*
X1446Y612D01*
X1446Y632D01*
X1444Y632D01*
X1444Y634D01*
X1442Y634D01*
X1442Y636D01*
X1440Y636D01*
X1440Y638D01*
X1438Y638D01*
X1438Y640D01*
X1436Y640D01*
X1436Y642D01*
X1434Y642D01*
X1434Y644D01*
X1432Y644D01*
X1432Y648D01*
X1430Y648D01*
X1430Y652D01*
X1428Y652D01*
X1428Y658D01*
X1426Y658D01*
X1426Y666D01*
X1424Y666D01*
X1424Y678D01*
X1426Y678D01*
X1426Y686D01*
X1428Y686D01*
X1428Y692D01*
X1430Y692D01*
X1430Y696D01*
X1432Y696D01*
X1432Y698D01*
X1434Y698D01*
X1434Y702D01*
X1436Y702D01*
X1436Y704D01*
X1438Y704D01*
X1438Y706D01*
X1440Y706D01*
X1440Y708D01*
X1442Y708D01*
X1442Y710D01*
X1444Y710D01*
X1444Y712D01*
X1446Y712D01*
X1446Y732D01*
X1444Y732D01*
X1444Y734D01*
X1442Y734D01*
X1442Y736D01*
X1440Y736D01*
X1440Y738D01*
X1438Y738D01*
X1438Y740D01*
X1436Y740D01*
X1436Y742D01*
X1434Y742D01*
X1434Y744D01*
X1432Y744D01*
X1432Y748D01*
X1430Y748D01*
X1430Y752D01*
X1428Y752D01*
X1428Y758D01*
X1426Y758D01*
X1426Y766D01*
X1424Y766D01*
X1424Y778D01*
X1426Y778D01*
X1426Y786D01*
X1428Y786D01*
X1428Y792D01*
X1430Y792D01*
X1430Y796D01*
X1432Y796D01*
X1432Y798D01*
X1434Y798D01*
X1434Y802D01*
X1436Y802D01*
X1436Y804D01*
X1438Y804D01*
X1438Y806D01*
X1440Y806D01*
X1440Y808D01*
X1442Y808D01*
X1442Y810D01*
X1444Y810D01*
X1444Y812D01*
X1446Y812D01*
X1446Y832D01*
X1444Y832D01*
X1444Y834D01*
X1442Y834D01*
X1442Y836D01*
X1440Y836D01*
X1440Y838D01*
X1438Y838D01*
X1438Y840D01*
X1436Y840D01*
X1436Y842D01*
X1434Y842D01*
X1434Y844D01*
X1432Y844D01*
X1432Y848D01*
X1430Y848D01*
X1430Y852D01*
X1428Y852D01*
X1428Y858D01*
X1426Y858D01*
X1426Y866D01*
X1424Y866D01*
X1424Y878D01*
X1426Y878D01*
X1426Y886D01*
X1428Y886D01*
X1428Y892D01*
X1430Y892D01*
X1430Y896D01*
X1432Y896D01*
X1432Y898D01*
X1434Y898D01*
X1434Y902D01*
X1436Y902D01*
X1436Y904D01*
X1438Y904D01*
X1438Y906D01*
X1440Y906D01*
X1440Y908D01*
X1442Y908D01*
X1442Y910D01*
X1444Y910D01*
X1444Y912D01*
X1446Y912D01*
X1446Y932D01*
X1444Y932D01*
X1444Y934D01*
X1442Y934D01*
X1442Y936D01*
X1440Y936D01*
X1440Y938D01*
X1438Y938D01*
X1438Y940D01*
X1436Y940D01*
X1436Y942D01*
X1434Y942D01*
X1434Y944D01*
X1432Y944D01*
X1432Y948D01*
X1430Y948D01*
X1430Y952D01*
X1428Y952D01*
X1428Y958D01*
X1426Y958D01*
X1426Y966D01*
X1424Y966D01*
X1424Y978D01*
X1426Y978D01*
X1426Y986D01*
X1428Y986D01*
X1428Y992D01*
X1430Y992D01*
X1430Y996D01*
X1432Y996D01*
X1432Y998D01*
X1434Y998D01*
X1434Y1002D01*
X1436Y1002D01*
X1436Y1004D01*
X1438Y1004D01*
X1438Y1006D01*
X1440Y1006D01*
X1440Y1008D01*
X1442Y1008D01*
X1442Y1010D01*
X1444Y1010D01*
X1444Y1012D01*
X1446Y1012D01*
X1446Y1032D01*
X1444Y1032D01*
X1444Y1034D01*
X1442Y1034D01*
X1442Y1036D01*
X1440Y1036D01*
X1440Y1038D01*
X1438Y1038D01*
X1438Y1040D01*
X1436Y1040D01*
X1436Y1042D01*
X1434Y1042D01*
X1434Y1044D01*
X1432Y1044D01*
X1432Y1048D01*
X1430Y1048D01*
X1430Y1052D01*
X1428Y1052D01*
X1428Y1058D01*
X1426Y1058D01*
X1426Y1066D01*
X1424Y1066D01*
X1424Y1078D01*
X1426Y1078D01*
X1426Y1086D01*
X1428Y1086D01*
X1428Y1092D01*
X1430Y1092D01*
X1430Y1096D01*
X1432Y1096D01*
X1432Y1098D01*
X1434Y1098D01*
X1434Y1102D01*
X1436Y1102D01*
X1436Y1104D01*
X1438Y1104D01*
X1438Y1106D01*
X1440Y1106D01*
X1440Y1108D01*
X1442Y1108D01*
X1442Y1110D01*
X1444Y1110D01*
X1444Y1112D01*
X1446Y1112D01*
X1446Y1132D01*
X1444Y1132D01*
X1444Y1134D01*
X1442Y1134D01*
X1442Y1136D01*
X1440Y1136D01*
X1440Y1138D01*
X1438Y1138D01*
X1438Y1140D01*
X1436Y1140D01*
X1436Y1142D01*
X1434Y1142D01*
X1434Y1144D01*
X1432Y1144D01*
X1432Y1148D01*
X1430Y1148D01*
X1430Y1152D01*
X1428Y1152D01*
X1428Y1158D01*
X1426Y1158D01*
X1426Y1166D01*
X1424Y1166D01*
X1424Y1178D01*
X1426Y1178D01*
X1426Y1186D01*
X1428Y1186D01*
X1428Y1192D01*
X1430Y1192D01*
X1430Y1196D01*
X1432Y1196D01*
X1432Y1198D01*
X1434Y1198D01*
X1434Y1202D01*
X1436Y1202D01*
X1436Y1204D01*
X1438Y1204D01*
X1438Y1206D01*
X1440Y1206D01*
X1440Y1208D01*
X1442Y1208D01*
X1442Y1210D01*
X1444Y1210D01*
X1444Y1212D01*
X1446Y1212D01*
X1446Y1232D01*
X1444Y1232D01*
X1444Y1234D01*
X1442Y1234D01*
X1442Y1236D01*
X1440Y1236D01*
X1440Y1238D01*
X1438Y1238D01*
X1438Y1240D01*
X1436Y1240D01*
X1436Y1242D01*
X1434Y1242D01*
X1434Y1244D01*
X1432Y1244D01*
X1432Y1248D01*
X1430Y1248D01*
X1430Y1252D01*
X1428Y1252D01*
X1428Y1258D01*
X1426Y1258D01*
X1426Y1266D01*
X1424Y1266D01*
X1424Y1278D01*
X1426Y1278D01*
X1426Y1286D01*
X1428Y1286D01*
X1428Y1292D01*
X1430Y1292D01*
X1430Y1296D01*
X1432Y1296D01*
X1432Y1298D01*
X1434Y1298D01*
X1434Y1302D01*
X1436Y1302D01*
X1436Y1304D01*
X1438Y1304D01*
X1438Y1306D01*
X1440Y1306D01*
X1440Y1308D01*
X1442Y1308D01*
X1442Y1310D01*
X1444Y1310D01*
X1444Y1312D01*
X1446Y1312D01*
X1446Y1332D01*
X1444Y1332D01*
X1444Y1334D01*
X1442Y1334D01*
X1442Y1336D01*
X1440Y1336D01*
X1440Y1338D01*
X1438Y1338D01*
X1438Y1340D01*
X1436Y1340D01*
X1436Y1342D01*
X1434Y1342D01*
X1434Y1344D01*
X1432Y1344D01*
X1432Y1348D01*
X1430Y1348D01*
X1430Y1352D01*
X1428Y1352D01*
X1428Y1358D01*
X1426Y1358D01*
X1426Y1366D01*
X1424Y1366D01*
X1424Y1378D01*
X1426Y1378D01*
X1426Y1386D01*
X1428Y1386D01*
X1428Y1392D01*
X1430Y1392D01*
X1430Y1396D01*
X1432Y1396D01*
X1432Y1398D01*
X1434Y1398D01*
X1434Y1402D01*
X1436Y1402D01*
X1436Y1404D01*
X1438Y1404D01*
X1438Y1406D01*
X1440Y1406D01*
X1440Y1408D01*
X1442Y1408D01*
X1442Y1410D01*
X1444Y1410D01*
X1444Y1412D01*
X1446Y1412D01*
X1446Y1432D01*
X1444Y1432D01*
X1444Y1434D01*
X1442Y1434D01*
X1442Y1436D01*
X1440Y1436D01*
X1440Y1438D01*
X1438Y1438D01*
X1438Y1440D01*
X1436Y1440D01*
X1436Y1442D01*
X1434Y1442D01*
X1434Y1444D01*
X1432Y1444D01*
X1432Y1448D01*
X1430Y1448D01*
X1430Y1450D01*
X1296Y1450D01*
G37*
D02*
G36*
X40Y1446D02*
X40Y1442D01*
X66Y1442D01*
X66Y1444D01*
X60Y1444D01*
X60Y1446D01*
X40Y1446D01*
G37*
D02*
G36*
X40Y1442D02*
X40Y1440D01*
X252Y1440D01*
X252Y1442D01*
X40Y1442D01*
G37*
D02*
G36*
X40Y1442D02*
X40Y1440D01*
X252Y1440D01*
X252Y1442D01*
X40Y1442D01*
G37*
D02*
G36*
X296Y1442D02*
X296Y1440D01*
X736Y1440D01*
X736Y1442D01*
X296Y1442D01*
G37*
D02*
G36*
X296Y1442D02*
X296Y1440D01*
X736Y1440D01*
X736Y1442D01*
X296Y1442D01*
G37*
D02*
G36*
X40Y1440D02*
X40Y1416D01*
X184Y1416D01*
X184Y1414D01*
X192Y1414D01*
X192Y1412D01*
X194Y1412D01*
X194Y1410D01*
X198Y1410D01*
X198Y1408D01*
X202Y1408D01*
X202Y1406D01*
X204Y1406D01*
X204Y1404D01*
X206Y1404D01*
X206Y1402D01*
X208Y1402D01*
X208Y1400D01*
X210Y1400D01*
X210Y1396D01*
X212Y1396D01*
X212Y1392D01*
X214Y1392D01*
X214Y1390D01*
X234Y1390D01*
X234Y1394D01*
X236Y1394D01*
X236Y1398D01*
X238Y1398D01*
X238Y1400D01*
X240Y1400D01*
X240Y1402D01*
X242Y1402D01*
X242Y1404D01*
X244Y1404D01*
X244Y1406D01*
X246Y1406D01*
X246Y1408D01*
X248Y1408D01*
X248Y1410D01*
X252Y1410D01*
X252Y1440D01*
X40Y1440D01*
G37*
D02*
G36*
X296Y1440D02*
X296Y1420D01*
X486Y1420D01*
X486Y1418D01*
X492Y1418D01*
X492Y1416D01*
X496Y1416D01*
X496Y1414D01*
X500Y1414D01*
X500Y1412D01*
X502Y1412D01*
X502Y1410D01*
X504Y1410D01*
X504Y1408D01*
X508Y1408D01*
X508Y1406D01*
X510Y1406D01*
X510Y1402D01*
X512Y1402D01*
X512Y1400D01*
X514Y1400D01*
X514Y1398D01*
X516Y1398D01*
X516Y1394D01*
X518Y1394D01*
X518Y1390D01*
X520Y1390D01*
X520Y1384D01*
X522Y1384D01*
X522Y1360D01*
X520Y1360D01*
X520Y1354D01*
X518Y1354D01*
X518Y1350D01*
X516Y1350D01*
X516Y1346D01*
X514Y1346D01*
X514Y1342D01*
X512Y1342D01*
X512Y1340D01*
X510Y1340D01*
X510Y1338D01*
X508Y1338D01*
X508Y1336D01*
X506Y1336D01*
X506Y1334D01*
X504Y1334D01*
X504Y1332D01*
X500Y1332D01*
X500Y1312D01*
X502Y1312D01*
X502Y1310D01*
X504Y1310D01*
X504Y1308D01*
X508Y1308D01*
X508Y1306D01*
X510Y1306D01*
X510Y1302D01*
X512Y1302D01*
X512Y1300D01*
X514Y1300D01*
X514Y1298D01*
X516Y1298D01*
X516Y1294D01*
X518Y1294D01*
X518Y1290D01*
X520Y1290D01*
X520Y1284D01*
X522Y1284D01*
X522Y1260D01*
X520Y1260D01*
X520Y1254D01*
X518Y1254D01*
X518Y1250D01*
X516Y1250D01*
X516Y1246D01*
X514Y1246D01*
X514Y1242D01*
X512Y1242D01*
X512Y1240D01*
X510Y1240D01*
X510Y1238D01*
X508Y1238D01*
X508Y1236D01*
X506Y1236D01*
X506Y1234D01*
X504Y1234D01*
X504Y1232D01*
X500Y1232D01*
X500Y1212D01*
X502Y1212D01*
X502Y1210D01*
X504Y1210D01*
X504Y1208D01*
X508Y1208D01*
X508Y1206D01*
X510Y1206D01*
X510Y1202D01*
X512Y1202D01*
X512Y1200D01*
X514Y1200D01*
X514Y1198D01*
X516Y1198D01*
X516Y1194D01*
X518Y1194D01*
X518Y1190D01*
X520Y1190D01*
X520Y1184D01*
X522Y1184D01*
X522Y1160D01*
X520Y1160D01*
X520Y1154D01*
X518Y1154D01*
X518Y1150D01*
X516Y1150D01*
X516Y1146D01*
X514Y1146D01*
X514Y1142D01*
X512Y1142D01*
X512Y1140D01*
X510Y1140D01*
X510Y1138D01*
X508Y1138D01*
X508Y1136D01*
X506Y1136D01*
X506Y1134D01*
X504Y1134D01*
X504Y1132D01*
X500Y1132D01*
X500Y1112D01*
X502Y1112D01*
X502Y1110D01*
X504Y1110D01*
X504Y1108D01*
X508Y1108D01*
X508Y1106D01*
X510Y1106D01*
X510Y1102D01*
X576Y1102D01*
X576Y1100D01*
X604Y1100D01*
X604Y1274D01*
X606Y1274D01*
X606Y1280D01*
X608Y1280D01*
X608Y1282D01*
X610Y1282D01*
X610Y1284D01*
X612Y1284D01*
X612Y1286D01*
X614Y1286D01*
X614Y1288D01*
X618Y1288D01*
X618Y1290D01*
X630Y1290D01*
X630Y1292D01*
X730Y1292D01*
X730Y1296D01*
X732Y1296D01*
X732Y1298D01*
X734Y1298D01*
X734Y1302D01*
X736Y1302D01*
X736Y1304D01*
X738Y1304D01*
X738Y1306D01*
X740Y1306D01*
X740Y1308D01*
X742Y1308D01*
X742Y1310D01*
X744Y1310D01*
X744Y1312D01*
X746Y1312D01*
X746Y1332D01*
X744Y1332D01*
X744Y1334D01*
X742Y1334D01*
X742Y1336D01*
X740Y1336D01*
X740Y1338D01*
X738Y1338D01*
X738Y1340D01*
X736Y1340D01*
X736Y1342D01*
X734Y1342D01*
X734Y1344D01*
X732Y1344D01*
X732Y1348D01*
X730Y1348D01*
X730Y1352D01*
X728Y1352D01*
X728Y1358D01*
X726Y1358D01*
X726Y1366D01*
X724Y1366D01*
X724Y1378D01*
X726Y1378D01*
X726Y1386D01*
X728Y1386D01*
X728Y1392D01*
X730Y1392D01*
X730Y1396D01*
X732Y1396D01*
X732Y1398D01*
X734Y1398D01*
X734Y1402D01*
X736Y1402D01*
X736Y1404D01*
X738Y1404D01*
X738Y1406D01*
X740Y1406D01*
X740Y1408D01*
X742Y1408D01*
X742Y1410D01*
X744Y1410D01*
X744Y1412D01*
X746Y1412D01*
X746Y1432D01*
X744Y1432D01*
X744Y1434D01*
X742Y1434D01*
X742Y1436D01*
X740Y1436D01*
X740Y1438D01*
X738Y1438D01*
X738Y1440D01*
X296Y1440D01*
G37*
D02*
G36*
X296Y1420D02*
X296Y1410D01*
X298Y1410D01*
X298Y1408D01*
X302Y1408D01*
X302Y1406D01*
X304Y1406D01*
X304Y1404D01*
X306Y1404D01*
X306Y1402D01*
X308Y1402D01*
X308Y1400D01*
X310Y1400D01*
X310Y1396D01*
X312Y1396D01*
X312Y1392D01*
X314Y1392D01*
X314Y1390D01*
X316Y1390D01*
X316Y1382D01*
X318Y1382D01*
X318Y1360D01*
X316Y1360D01*
X316Y1354D01*
X314Y1354D01*
X314Y1350D01*
X312Y1350D01*
X312Y1346D01*
X310Y1346D01*
X310Y1344D01*
X308Y1344D01*
X308Y1342D01*
X306Y1342D01*
X306Y1340D01*
X304Y1340D01*
X304Y1338D01*
X302Y1338D01*
X302Y1336D01*
X300Y1336D01*
X300Y1334D01*
X296Y1334D01*
X296Y1322D01*
X294Y1322D01*
X294Y1264D01*
X292Y1264D01*
X292Y1260D01*
X290Y1260D01*
X290Y1256D01*
X288Y1256D01*
X288Y1254D01*
X286Y1254D01*
X286Y1250D01*
X284Y1250D01*
X284Y1246D01*
X282Y1246D01*
X282Y1244D01*
X280Y1244D01*
X280Y1240D01*
X278Y1240D01*
X278Y1238D01*
X276Y1238D01*
X276Y1234D01*
X274Y1234D01*
X274Y1232D01*
X272Y1232D01*
X272Y1228D01*
X270Y1228D01*
X270Y1168D01*
X286Y1168D01*
X286Y1166D01*
X292Y1166D01*
X292Y1164D01*
X296Y1164D01*
X296Y1162D01*
X300Y1162D01*
X300Y1160D01*
X302Y1160D01*
X302Y1158D01*
X304Y1158D01*
X304Y1156D01*
X306Y1156D01*
X306Y1154D01*
X308Y1154D01*
X308Y1152D01*
X310Y1152D01*
X310Y1150D01*
X312Y1150D01*
X312Y1148D01*
X314Y1148D01*
X314Y1144D01*
X316Y1144D01*
X316Y1140D01*
X318Y1140D01*
X318Y1134D01*
X320Y1134D01*
X320Y1110D01*
X318Y1110D01*
X318Y1104D01*
X316Y1104D01*
X316Y1100D01*
X314Y1100D01*
X314Y1096D01*
X312Y1096D01*
X312Y1094D01*
X310Y1094D01*
X310Y1092D01*
X308Y1092D01*
X308Y1088D01*
X306Y1088D01*
X306Y1086D01*
X302Y1086D01*
X302Y1084D01*
X300Y1084D01*
X300Y1082D01*
X296Y1082D01*
X296Y910D01*
X298Y910D01*
X298Y908D01*
X302Y908D01*
X302Y906D01*
X304Y906D01*
X304Y904D01*
X306Y904D01*
X306Y902D01*
X308Y902D01*
X308Y900D01*
X310Y900D01*
X310Y896D01*
X312Y896D01*
X312Y894D01*
X382Y894D01*
X382Y892D01*
X386Y892D01*
X386Y890D01*
X388Y890D01*
X388Y888D01*
X390Y888D01*
X390Y886D01*
X392Y886D01*
X392Y884D01*
X394Y884D01*
X394Y880D01*
X396Y880D01*
X396Y822D01*
X468Y822D01*
X468Y824D01*
X460Y824D01*
X460Y826D01*
X454Y826D01*
X454Y828D01*
X450Y828D01*
X450Y830D01*
X446Y830D01*
X446Y832D01*
X444Y832D01*
X444Y834D01*
X442Y834D01*
X442Y836D01*
X440Y836D01*
X440Y838D01*
X438Y838D01*
X438Y840D01*
X436Y840D01*
X436Y842D01*
X434Y842D01*
X434Y844D01*
X432Y844D01*
X432Y848D01*
X430Y848D01*
X430Y852D01*
X428Y852D01*
X428Y858D01*
X426Y858D01*
X426Y866D01*
X424Y866D01*
X424Y878D01*
X426Y878D01*
X426Y886D01*
X428Y886D01*
X428Y892D01*
X430Y892D01*
X430Y896D01*
X432Y896D01*
X432Y898D01*
X434Y898D01*
X434Y902D01*
X436Y902D01*
X436Y904D01*
X438Y904D01*
X438Y906D01*
X440Y906D01*
X440Y908D01*
X442Y908D01*
X442Y910D01*
X444Y910D01*
X444Y912D01*
X446Y912D01*
X446Y932D01*
X444Y932D01*
X444Y934D01*
X442Y934D01*
X442Y936D01*
X440Y936D01*
X440Y938D01*
X438Y938D01*
X438Y940D01*
X436Y940D01*
X436Y942D01*
X434Y942D01*
X434Y944D01*
X432Y944D01*
X432Y948D01*
X430Y948D01*
X430Y952D01*
X428Y952D01*
X428Y958D01*
X426Y958D01*
X426Y966D01*
X424Y966D01*
X424Y978D01*
X426Y978D01*
X426Y986D01*
X428Y986D01*
X428Y992D01*
X430Y992D01*
X430Y996D01*
X432Y996D01*
X432Y998D01*
X434Y998D01*
X434Y1002D01*
X436Y1002D01*
X436Y1004D01*
X438Y1004D01*
X438Y1006D01*
X440Y1006D01*
X440Y1008D01*
X442Y1008D01*
X442Y1010D01*
X444Y1010D01*
X444Y1012D01*
X446Y1012D01*
X446Y1032D01*
X444Y1032D01*
X444Y1034D01*
X442Y1034D01*
X442Y1036D01*
X440Y1036D01*
X440Y1038D01*
X438Y1038D01*
X438Y1040D01*
X436Y1040D01*
X436Y1042D01*
X434Y1042D01*
X434Y1044D01*
X432Y1044D01*
X432Y1048D01*
X430Y1048D01*
X430Y1052D01*
X428Y1052D01*
X428Y1058D01*
X426Y1058D01*
X426Y1066D01*
X424Y1066D01*
X424Y1078D01*
X426Y1078D01*
X426Y1086D01*
X428Y1086D01*
X428Y1092D01*
X430Y1092D01*
X430Y1096D01*
X432Y1096D01*
X432Y1098D01*
X434Y1098D01*
X434Y1102D01*
X436Y1102D01*
X436Y1104D01*
X438Y1104D01*
X438Y1106D01*
X440Y1106D01*
X440Y1108D01*
X442Y1108D01*
X442Y1110D01*
X444Y1110D01*
X444Y1112D01*
X446Y1112D01*
X446Y1132D01*
X444Y1132D01*
X444Y1134D01*
X442Y1134D01*
X442Y1136D01*
X440Y1136D01*
X440Y1138D01*
X438Y1138D01*
X438Y1140D01*
X436Y1140D01*
X436Y1142D01*
X434Y1142D01*
X434Y1144D01*
X432Y1144D01*
X432Y1148D01*
X430Y1148D01*
X430Y1152D01*
X428Y1152D01*
X428Y1158D01*
X426Y1158D01*
X426Y1166D01*
X424Y1166D01*
X424Y1178D01*
X426Y1178D01*
X426Y1186D01*
X428Y1186D01*
X428Y1192D01*
X430Y1192D01*
X430Y1196D01*
X432Y1196D01*
X432Y1198D01*
X434Y1198D01*
X434Y1202D01*
X436Y1202D01*
X436Y1204D01*
X438Y1204D01*
X438Y1206D01*
X440Y1206D01*
X440Y1208D01*
X442Y1208D01*
X442Y1210D01*
X444Y1210D01*
X444Y1212D01*
X446Y1212D01*
X446Y1232D01*
X444Y1232D01*
X444Y1234D01*
X442Y1234D01*
X442Y1236D01*
X440Y1236D01*
X440Y1238D01*
X438Y1238D01*
X438Y1240D01*
X436Y1240D01*
X436Y1242D01*
X434Y1242D01*
X434Y1244D01*
X432Y1244D01*
X432Y1248D01*
X430Y1248D01*
X430Y1252D01*
X428Y1252D01*
X428Y1258D01*
X426Y1258D01*
X426Y1266D01*
X424Y1266D01*
X424Y1278D01*
X426Y1278D01*
X426Y1286D01*
X428Y1286D01*
X428Y1292D01*
X430Y1292D01*
X430Y1296D01*
X432Y1296D01*
X432Y1298D01*
X434Y1298D01*
X434Y1302D01*
X436Y1302D01*
X436Y1304D01*
X438Y1304D01*
X438Y1306D01*
X440Y1306D01*
X440Y1308D01*
X442Y1308D01*
X442Y1310D01*
X444Y1310D01*
X444Y1312D01*
X446Y1312D01*
X446Y1332D01*
X444Y1332D01*
X444Y1334D01*
X442Y1334D01*
X442Y1336D01*
X440Y1336D01*
X440Y1338D01*
X438Y1338D01*
X438Y1340D01*
X436Y1340D01*
X436Y1342D01*
X434Y1342D01*
X434Y1344D01*
X432Y1344D01*
X432Y1348D01*
X430Y1348D01*
X430Y1352D01*
X428Y1352D01*
X428Y1358D01*
X426Y1358D01*
X426Y1366D01*
X424Y1366D01*
X424Y1378D01*
X426Y1378D01*
X426Y1386D01*
X428Y1386D01*
X428Y1392D01*
X430Y1392D01*
X430Y1396D01*
X432Y1396D01*
X432Y1398D01*
X434Y1398D01*
X434Y1402D01*
X436Y1402D01*
X436Y1404D01*
X438Y1404D01*
X438Y1406D01*
X440Y1406D01*
X440Y1408D01*
X442Y1408D01*
X442Y1410D01*
X444Y1410D01*
X444Y1412D01*
X448Y1412D01*
X448Y1414D01*
X452Y1414D01*
X452Y1416D01*
X456Y1416D01*
X456Y1418D01*
X462Y1418D01*
X462Y1420D01*
X296Y1420D01*
G37*
D02*
G36*
X40Y1416D02*
X40Y1326D01*
X170Y1326D01*
X170Y1328D01*
X160Y1328D01*
X160Y1330D01*
X154Y1330D01*
X154Y1332D01*
X152Y1332D01*
X152Y1334D01*
X148Y1334D01*
X148Y1336D01*
X146Y1336D01*
X146Y1338D01*
X142Y1338D01*
X142Y1340D01*
X140Y1340D01*
X140Y1344D01*
X138Y1344D01*
X138Y1346D01*
X136Y1346D01*
X136Y1350D01*
X134Y1350D01*
X134Y1352D01*
X132Y1352D01*
X132Y1358D01*
X130Y1358D01*
X130Y1366D01*
X128Y1366D01*
X128Y1376D01*
X130Y1376D01*
X130Y1386D01*
X132Y1386D01*
X132Y1390D01*
X134Y1390D01*
X134Y1394D01*
X136Y1394D01*
X136Y1398D01*
X138Y1398D01*
X138Y1400D01*
X140Y1400D01*
X140Y1402D01*
X142Y1402D01*
X142Y1404D01*
X144Y1404D01*
X144Y1406D01*
X146Y1406D01*
X146Y1408D01*
X148Y1408D01*
X148Y1410D01*
X152Y1410D01*
X152Y1412D01*
X156Y1412D01*
X156Y1414D01*
X162Y1414D01*
X162Y1416D01*
X40Y1416D01*
G37*
D02*
G36*
X214Y1352D02*
X214Y1350D01*
X212Y1350D01*
X212Y1346D01*
X210Y1346D01*
X210Y1344D01*
X208Y1344D01*
X208Y1342D01*
X206Y1342D01*
X206Y1340D01*
X204Y1340D01*
X204Y1338D01*
X202Y1338D01*
X202Y1336D01*
X200Y1336D01*
X200Y1334D01*
X196Y1334D01*
X196Y1332D01*
X192Y1332D01*
X192Y1330D01*
X188Y1330D01*
X188Y1328D01*
X178Y1328D01*
X178Y1326D01*
X250Y1326D01*
X250Y1334D01*
X248Y1334D01*
X248Y1336D01*
X246Y1336D01*
X246Y1338D01*
X242Y1338D01*
X242Y1340D01*
X240Y1340D01*
X240Y1344D01*
X238Y1344D01*
X238Y1346D01*
X236Y1346D01*
X236Y1350D01*
X234Y1350D01*
X234Y1352D01*
X214Y1352D01*
G37*
D02*
G36*
X1716Y1350D02*
X1716Y1348D01*
X1714Y1348D01*
X1714Y1346D01*
X1712Y1346D01*
X1712Y1342D01*
X1710Y1342D01*
X1710Y1340D01*
X1708Y1340D01*
X1708Y1338D01*
X1706Y1338D01*
X1706Y1336D01*
X1704Y1336D01*
X1704Y1334D01*
X1700Y1334D01*
X1700Y1332D01*
X1698Y1332D01*
X1698Y1330D01*
X1696Y1330D01*
X1696Y1124D01*
X2070Y1124D01*
X2070Y1126D01*
X2060Y1126D01*
X2060Y1128D01*
X2054Y1128D01*
X2054Y1130D01*
X2050Y1130D01*
X2050Y1132D01*
X2048Y1132D01*
X2048Y1134D01*
X2044Y1134D01*
X2044Y1136D01*
X2042Y1136D01*
X2042Y1138D01*
X2040Y1138D01*
X2040Y1140D01*
X2038Y1140D01*
X2038Y1142D01*
X2036Y1142D01*
X2036Y1146D01*
X2034Y1146D01*
X2034Y1148D01*
X2032Y1148D01*
X2032Y1152D01*
X2030Y1152D01*
X2030Y1158D01*
X2028Y1158D01*
X2028Y1166D01*
X2026Y1166D01*
X2026Y1176D01*
X2028Y1176D01*
X2028Y1186D01*
X2030Y1186D01*
X2030Y1192D01*
X2032Y1192D01*
X2032Y1194D01*
X2034Y1194D01*
X2034Y1198D01*
X2036Y1198D01*
X2036Y1200D01*
X2038Y1200D01*
X2038Y1204D01*
X2040Y1204D01*
X2040Y1206D01*
X2042Y1206D01*
X2042Y1208D01*
X2046Y1208D01*
X2046Y1210D01*
X2048Y1210D01*
X2048Y1212D01*
X2050Y1212D01*
X2050Y1232D01*
X2048Y1232D01*
X2048Y1234D01*
X2044Y1234D01*
X2044Y1236D01*
X2042Y1236D01*
X2042Y1238D01*
X2040Y1238D01*
X2040Y1240D01*
X2038Y1240D01*
X2038Y1242D01*
X2036Y1242D01*
X2036Y1246D01*
X2034Y1246D01*
X2034Y1248D01*
X2032Y1248D01*
X2032Y1252D01*
X2030Y1252D01*
X2030Y1258D01*
X2028Y1258D01*
X2028Y1266D01*
X2026Y1266D01*
X2026Y1276D01*
X2028Y1276D01*
X2028Y1286D01*
X2030Y1286D01*
X2030Y1292D01*
X2032Y1292D01*
X2032Y1294D01*
X2034Y1294D01*
X2034Y1298D01*
X2036Y1298D01*
X2036Y1300D01*
X2038Y1300D01*
X2038Y1304D01*
X2040Y1304D01*
X2040Y1306D01*
X2044Y1306D01*
X2044Y1308D01*
X2046Y1308D01*
X2046Y1310D01*
X2048Y1310D01*
X2048Y1312D01*
X2050Y1312D01*
X2050Y1332D01*
X2048Y1332D01*
X2048Y1334D01*
X2044Y1334D01*
X2044Y1336D01*
X2042Y1336D01*
X2042Y1338D01*
X2040Y1338D01*
X2040Y1340D01*
X2038Y1340D01*
X2038Y1342D01*
X2036Y1342D01*
X2036Y1346D01*
X2034Y1346D01*
X2034Y1348D01*
X2032Y1348D01*
X2032Y1350D01*
X1716Y1350D01*
G37*
D02*
G36*
X40Y1326D02*
X40Y1324D01*
X250Y1324D01*
X250Y1326D01*
X40Y1326D01*
G37*
D02*
G36*
X40Y1326D02*
X40Y1324D01*
X250Y1324D01*
X250Y1326D01*
X40Y1326D01*
G37*
D02*
G36*
X40Y1324D02*
X40Y1074D01*
X168Y1074D01*
X168Y1076D01*
X160Y1076D01*
X160Y1078D01*
X154Y1078D01*
X154Y1080D01*
X150Y1080D01*
X150Y1082D01*
X148Y1082D01*
X148Y1084D01*
X144Y1084D01*
X144Y1086D01*
X142Y1086D01*
X142Y1088D01*
X140Y1088D01*
X140Y1090D01*
X138Y1090D01*
X138Y1092D01*
X136Y1092D01*
X136Y1096D01*
X134Y1096D01*
X134Y1098D01*
X132Y1098D01*
X132Y1102D01*
X130Y1102D01*
X130Y1108D01*
X128Y1108D01*
X128Y1116D01*
X126Y1116D01*
X126Y1126D01*
X128Y1126D01*
X128Y1136D01*
X130Y1136D01*
X130Y1142D01*
X132Y1142D01*
X132Y1144D01*
X134Y1144D01*
X134Y1148D01*
X136Y1148D01*
X136Y1150D01*
X138Y1150D01*
X138Y1154D01*
X140Y1154D01*
X140Y1156D01*
X142Y1156D01*
X142Y1158D01*
X146Y1158D01*
X146Y1160D01*
X148Y1160D01*
X148Y1162D01*
X152Y1162D01*
X152Y1164D01*
X156Y1164D01*
X156Y1166D01*
X162Y1166D01*
X162Y1168D01*
X178Y1168D01*
X178Y1192D01*
X176Y1192D01*
X176Y1202D01*
X178Y1202D01*
X178Y1210D01*
X180Y1210D01*
X180Y1216D01*
X182Y1216D01*
X182Y1220D01*
X184Y1220D01*
X184Y1224D01*
X186Y1224D01*
X186Y1226D01*
X188Y1226D01*
X188Y1228D01*
X190Y1228D01*
X190Y1230D01*
X192Y1230D01*
X192Y1232D01*
X194Y1232D01*
X194Y1234D01*
X196Y1234D01*
X196Y1236D01*
X200Y1236D01*
X200Y1238D01*
X204Y1238D01*
X204Y1240D01*
X208Y1240D01*
X208Y1242D01*
X216Y1242D01*
X216Y1244D01*
X230Y1244D01*
X230Y1248D01*
X232Y1248D01*
X232Y1252D01*
X234Y1252D01*
X234Y1254D01*
X236Y1254D01*
X236Y1258D01*
X238Y1258D01*
X238Y1260D01*
X240Y1260D01*
X240Y1264D01*
X242Y1264D01*
X242Y1266D01*
X244Y1266D01*
X244Y1270D01*
X246Y1270D01*
X246Y1272D01*
X248Y1272D01*
X248Y1276D01*
X250Y1276D01*
X250Y1324D01*
X40Y1324D01*
G37*
D02*
G36*
X696Y1150D02*
X696Y1090D01*
X698Y1090D01*
X698Y1086D01*
X700Y1086D01*
X700Y1082D01*
X702Y1082D01*
X702Y1074D01*
X704Y1074D01*
X704Y1070D01*
X702Y1070D01*
X702Y1060D01*
X700Y1060D01*
X700Y1056D01*
X698Y1056D01*
X698Y1054D01*
X696Y1054D01*
X696Y1052D01*
X694Y1052D01*
X694Y1050D01*
X692Y1050D01*
X692Y1048D01*
X690Y1048D01*
X690Y1046D01*
X686Y1046D01*
X686Y1044D01*
X680Y1044D01*
X680Y1042D01*
X648Y1042D01*
X648Y966D01*
X646Y966D01*
X646Y962D01*
X644Y962D01*
X644Y960D01*
X642Y960D01*
X642Y958D01*
X640Y958D01*
X640Y956D01*
X636Y956D01*
X636Y954D01*
X632Y954D01*
X632Y952D01*
X546Y952D01*
X546Y950D01*
X516Y950D01*
X516Y946D01*
X514Y946D01*
X514Y942D01*
X512Y942D01*
X512Y940D01*
X510Y940D01*
X510Y938D01*
X508Y938D01*
X508Y936D01*
X506Y936D01*
X506Y934D01*
X504Y934D01*
X504Y932D01*
X500Y932D01*
X500Y912D01*
X502Y912D01*
X502Y910D01*
X504Y910D01*
X504Y908D01*
X508Y908D01*
X508Y906D01*
X510Y906D01*
X510Y902D01*
X512Y902D01*
X512Y900D01*
X514Y900D01*
X514Y898D01*
X516Y898D01*
X516Y894D01*
X518Y894D01*
X518Y890D01*
X520Y890D01*
X520Y884D01*
X522Y884D01*
X522Y860D01*
X520Y860D01*
X520Y854D01*
X518Y854D01*
X518Y850D01*
X516Y850D01*
X516Y846D01*
X514Y846D01*
X514Y842D01*
X512Y842D01*
X512Y840D01*
X510Y840D01*
X510Y838D01*
X508Y838D01*
X508Y836D01*
X506Y836D01*
X506Y834D01*
X504Y834D01*
X504Y832D01*
X500Y832D01*
X500Y830D01*
X498Y830D01*
X498Y828D01*
X494Y828D01*
X494Y826D01*
X488Y826D01*
X488Y824D01*
X478Y824D01*
X478Y822D01*
X746Y822D01*
X746Y832D01*
X744Y832D01*
X744Y834D01*
X742Y834D01*
X742Y836D01*
X740Y836D01*
X740Y838D01*
X738Y838D01*
X738Y840D01*
X736Y840D01*
X736Y842D01*
X734Y842D01*
X734Y844D01*
X732Y844D01*
X732Y848D01*
X730Y848D01*
X730Y852D01*
X728Y852D01*
X728Y858D01*
X726Y858D01*
X726Y866D01*
X724Y866D01*
X724Y878D01*
X726Y878D01*
X726Y886D01*
X728Y886D01*
X728Y892D01*
X730Y892D01*
X730Y896D01*
X732Y896D01*
X732Y898D01*
X734Y898D01*
X734Y902D01*
X736Y902D01*
X736Y904D01*
X738Y904D01*
X738Y906D01*
X740Y906D01*
X740Y908D01*
X742Y908D01*
X742Y910D01*
X744Y910D01*
X744Y912D01*
X746Y912D01*
X746Y932D01*
X744Y932D01*
X744Y934D01*
X742Y934D01*
X742Y936D01*
X740Y936D01*
X740Y938D01*
X738Y938D01*
X738Y940D01*
X736Y940D01*
X736Y942D01*
X734Y942D01*
X734Y944D01*
X732Y944D01*
X732Y948D01*
X730Y948D01*
X730Y952D01*
X728Y952D01*
X728Y958D01*
X726Y958D01*
X726Y966D01*
X724Y966D01*
X724Y978D01*
X726Y978D01*
X726Y986D01*
X728Y986D01*
X728Y992D01*
X730Y992D01*
X730Y996D01*
X732Y996D01*
X732Y998D01*
X734Y998D01*
X734Y1002D01*
X736Y1002D01*
X736Y1004D01*
X738Y1004D01*
X738Y1006D01*
X740Y1006D01*
X740Y1008D01*
X742Y1008D01*
X742Y1010D01*
X744Y1010D01*
X744Y1012D01*
X746Y1012D01*
X746Y1032D01*
X744Y1032D01*
X744Y1034D01*
X742Y1034D01*
X742Y1036D01*
X740Y1036D01*
X740Y1038D01*
X738Y1038D01*
X738Y1040D01*
X736Y1040D01*
X736Y1042D01*
X734Y1042D01*
X734Y1044D01*
X732Y1044D01*
X732Y1048D01*
X730Y1048D01*
X730Y1052D01*
X728Y1052D01*
X728Y1058D01*
X726Y1058D01*
X726Y1066D01*
X724Y1066D01*
X724Y1078D01*
X726Y1078D01*
X726Y1086D01*
X728Y1086D01*
X728Y1092D01*
X730Y1092D01*
X730Y1096D01*
X732Y1096D01*
X732Y1098D01*
X734Y1098D01*
X734Y1102D01*
X736Y1102D01*
X736Y1104D01*
X738Y1104D01*
X738Y1106D01*
X740Y1106D01*
X740Y1108D01*
X742Y1108D01*
X742Y1110D01*
X744Y1110D01*
X744Y1112D01*
X746Y1112D01*
X746Y1132D01*
X744Y1132D01*
X744Y1134D01*
X742Y1134D01*
X742Y1136D01*
X740Y1136D01*
X740Y1138D01*
X738Y1138D01*
X738Y1140D01*
X736Y1140D01*
X736Y1142D01*
X734Y1142D01*
X734Y1144D01*
X732Y1144D01*
X732Y1148D01*
X730Y1148D01*
X730Y1150D01*
X696Y1150D01*
G37*
D02*
G36*
X1696Y1124D02*
X1696Y1122D01*
X2202Y1122D01*
X2202Y1124D01*
X1696Y1124D01*
G37*
D02*
G36*
X1696Y1124D02*
X1696Y1122D01*
X2202Y1122D01*
X2202Y1124D01*
X1696Y1124D01*
G37*
D02*
G36*
X1696Y1122D02*
X1696Y1066D01*
X1694Y1066D01*
X1694Y1062D01*
X1692Y1062D01*
X1692Y1058D01*
X1690Y1058D01*
X1690Y1056D01*
X1688Y1056D01*
X1688Y1054D01*
X1686Y1054D01*
X1686Y1052D01*
X1680Y1052D01*
X1680Y1050D01*
X1516Y1050D01*
X1516Y1046D01*
X1514Y1046D01*
X1514Y1042D01*
X1512Y1042D01*
X1512Y1040D01*
X1510Y1040D01*
X1510Y1038D01*
X1508Y1038D01*
X1508Y1036D01*
X1506Y1036D01*
X1506Y1034D01*
X1504Y1034D01*
X1504Y1032D01*
X1500Y1032D01*
X1500Y1020D01*
X1686Y1020D01*
X1686Y1018D01*
X1692Y1018D01*
X1692Y1016D01*
X1696Y1016D01*
X1696Y1014D01*
X1700Y1014D01*
X1700Y1012D01*
X1702Y1012D01*
X1702Y1010D01*
X1704Y1010D01*
X1704Y1008D01*
X1708Y1008D01*
X1708Y1006D01*
X1710Y1006D01*
X1710Y1002D01*
X1712Y1002D01*
X1712Y1000D01*
X1714Y1000D01*
X1714Y998D01*
X1716Y998D01*
X1716Y994D01*
X1718Y994D01*
X1718Y990D01*
X1720Y990D01*
X1720Y984D01*
X1722Y984D01*
X1722Y960D01*
X1720Y960D01*
X1720Y954D01*
X1718Y954D01*
X1718Y950D01*
X1716Y950D01*
X1716Y946D01*
X1714Y946D01*
X1714Y942D01*
X1712Y942D01*
X1712Y940D01*
X1710Y940D01*
X1710Y938D01*
X1708Y938D01*
X1708Y936D01*
X1706Y936D01*
X1706Y934D01*
X1704Y934D01*
X1704Y932D01*
X1700Y932D01*
X1700Y920D01*
X2076Y920D01*
X2076Y918D01*
X2086Y918D01*
X2086Y916D01*
X2092Y916D01*
X2092Y914D01*
X2096Y914D01*
X2096Y912D01*
X2100Y912D01*
X2100Y910D01*
X2102Y910D01*
X2102Y908D01*
X2106Y908D01*
X2106Y906D01*
X2108Y906D01*
X2108Y904D01*
X2110Y904D01*
X2110Y900D01*
X2112Y900D01*
X2112Y898D01*
X2114Y898D01*
X2114Y894D01*
X2116Y894D01*
X2116Y890D01*
X2118Y890D01*
X2118Y884D01*
X2120Y884D01*
X2120Y874D01*
X2122Y874D01*
X2122Y870D01*
X2120Y870D01*
X2120Y858D01*
X2118Y858D01*
X2118Y852D01*
X2116Y852D01*
X2116Y848D01*
X2114Y848D01*
X2114Y846D01*
X2112Y846D01*
X2112Y842D01*
X2110Y842D01*
X2110Y840D01*
X2108Y840D01*
X2108Y838D01*
X2106Y838D01*
X2106Y836D01*
X2104Y836D01*
X2104Y834D01*
X2100Y834D01*
X2100Y832D01*
X2098Y832D01*
X2098Y830D01*
X2094Y830D01*
X2094Y828D01*
X2088Y828D01*
X2088Y826D01*
X2082Y826D01*
X2082Y824D01*
X2202Y824D01*
X2202Y1122D01*
X1696Y1122D01*
G37*
D02*
G36*
X896Y1120D02*
X896Y1092D01*
X990Y1092D01*
X990Y1094D01*
X1032Y1094D01*
X1032Y1096D01*
X1034Y1096D01*
X1034Y1100D01*
X1036Y1100D01*
X1036Y1102D01*
X1038Y1102D01*
X1038Y1104D01*
X1040Y1104D01*
X1040Y1106D01*
X1042Y1106D01*
X1042Y1108D01*
X1044Y1108D01*
X1044Y1110D01*
X1048Y1110D01*
X1048Y1112D01*
X1050Y1112D01*
X1050Y1114D01*
X1054Y1114D01*
X1054Y1116D01*
X1060Y1116D01*
X1060Y1118D01*
X1070Y1118D01*
X1070Y1120D01*
X896Y1120D01*
G37*
D02*
G36*
X512Y1102D02*
X512Y1100D01*
X514Y1100D01*
X514Y1098D01*
X516Y1098D01*
X516Y1094D01*
X556Y1094D01*
X556Y1096D01*
X558Y1096D01*
X558Y1098D01*
X562Y1098D01*
X562Y1100D01*
X570Y1100D01*
X570Y1102D01*
X512Y1102D01*
G37*
D02*
G36*
X214Y1098D02*
X214Y1096D01*
X212Y1096D01*
X212Y1094D01*
X210Y1094D01*
X210Y1092D01*
X208Y1092D01*
X208Y1088D01*
X206Y1088D01*
X206Y1086D01*
X202Y1086D01*
X202Y1084D01*
X200Y1084D01*
X200Y1082D01*
X196Y1082D01*
X196Y1080D01*
X194Y1080D01*
X194Y1078D01*
X188Y1078D01*
X188Y1076D01*
X178Y1076D01*
X178Y1074D01*
X252Y1074D01*
X252Y1080D01*
X250Y1080D01*
X250Y1082D01*
X248Y1082D01*
X248Y1084D01*
X244Y1084D01*
X244Y1086D01*
X242Y1086D01*
X242Y1088D01*
X240Y1088D01*
X240Y1090D01*
X238Y1090D01*
X238Y1092D01*
X236Y1092D01*
X236Y1096D01*
X234Y1096D01*
X234Y1098D01*
X214Y1098D01*
G37*
D02*
G36*
X40Y1074D02*
X40Y1072D01*
X252Y1072D01*
X252Y1074D01*
X40Y1074D01*
G37*
D02*
G36*
X40Y1074D02*
X40Y1072D01*
X252Y1072D01*
X252Y1074D01*
X40Y1074D01*
G37*
D02*
G36*
X40Y1072D02*
X40Y916D01*
X184Y916D01*
X184Y914D01*
X192Y914D01*
X192Y912D01*
X194Y912D01*
X194Y910D01*
X198Y910D01*
X198Y908D01*
X202Y908D01*
X202Y906D01*
X204Y906D01*
X204Y904D01*
X206Y904D01*
X206Y902D01*
X208Y902D01*
X208Y900D01*
X210Y900D01*
X210Y896D01*
X212Y896D01*
X212Y892D01*
X214Y892D01*
X214Y890D01*
X234Y890D01*
X234Y894D01*
X236Y894D01*
X236Y898D01*
X238Y898D01*
X238Y900D01*
X240Y900D01*
X240Y902D01*
X242Y902D01*
X242Y904D01*
X244Y904D01*
X244Y906D01*
X246Y906D01*
X246Y908D01*
X248Y908D01*
X248Y910D01*
X252Y910D01*
X252Y1072D01*
X40Y1072D01*
G37*
D02*
G36*
X992Y1050D02*
X992Y1048D01*
X896Y1048D01*
X896Y1024D01*
X1066Y1024D01*
X1066Y1026D01*
X1058Y1026D01*
X1058Y1028D01*
X1054Y1028D01*
X1054Y1030D01*
X1050Y1030D01*
X1050Y1032D01*
X1046Y1032D01*
X1046Y1034D01*
X1044Y1034D01*
X1044Y1036D01*
X1042Y1036D01*
X1042Y1038D01*
X1040Y1038D01*
X1040Y1040D01*
X1038Y1040D01*
X1038Y1042D01*
X1036Y1042D01*
X1036Y1044D01*
X1034Y1044D01*
X1034Y1048D01*
X1032Y1048D01*
X1032Y1050D01*
X992Y1050D01*
G37*
D02*
G36*
X896Y1024D02*
X896Y1022D01*
X1250Y1022D01*
X1250Y1024D01*
X896Y1024D01*
G37*
D02*
G36*
X896Y1024D02*
X896Y1022D01*
X1250Y1022D01*
X1250Y1024D01*
X896Y1024D01*
G37*
D02*
G36*
X896Y1022D02*
X896Y1020D01*
X976Y1020D01*
X976Y1018D01*
X986Y1018D01*
X986Y1016D01*
X992Y1016D01*
X992Y1014D01*
X996Y1014D01*
X996Y1012D01*
X1000Y1012D01*
X1000Y1010D01*
X1002Y1010D01*
X1002Y1008D01*
X1006Y1008D01*
X1006Y1006D01*
X1008Y1006D01*
X1008Y1004D01*
X1010Y1004D01*
X1010Y1000D01*
X1012Y1000D01*
X1012Y998D01*
X1014Y998D01*
X1014Y994D01*
X1016Y994D01*
X1016Y990D01*
X1018Y990D01*
X1018Y984D01*
X1020Y984D01*
X1020Y974D01*
X1022Y974D01*
X1022Y970D01*
X1020Y970D01*
X1020Y958D01*
X1018Y958D01*
X1018Y952D01*
X1016Y952D01*
X1016Y948D01*
X1014Y948D01*
X1014Y946D01*
X1012Y946D01*
X1012Y942D01*
X1010Y942D01*
X1010Y940D01*
X1008Y940D01*
X1008Y938D01*
X1006Y938D01*
X1006Y936D01*
X1004Y936D01*
X1004Y934D01*
X1000Y934D01*
X1000Y932D01*
X998Y932D01*
X998Y930D01*
X994Y930D01*
X994Y928D01*
X988Y928D01*
X988Y926D01*
X982Y926D01*
X982Y924D01*
X1250Y924D01*
X1250Y1022D01*
X896Y1022D01*
G37*
D02*
G36*
X896Y1020D02*
X896Y996D01*
X904Y996D01*
X904Y994D01*
X932Y994D01*
X932Y996D01*
X934Y996D01*
X934Y1000D01*
X936Y1000D01*
X936Y1002D01*
X938Y1002D01*
X938Y1004D01*
X940Y1004D01*
X940Y1006D01*
X942Y1006D01*
X942Y1008D01*
X944Y1008D01*
X944Y1010D01*
X948Y1010D01*
X948Y1012D01*
X950Y1012D01*
X950Y1014D01*
X954Y1014D01*
X954Y1016D01*
X960Y1016D01*
X960Y1018D01*
X970Y1018D01*
X970Y1020D01*
X896Y1020D01*
G37*
D02*
G36*
X1500Y1020D02*
X1500Y1012D01*
X1502Y1012D01*
X1502Y1010D01*
X1504Y1010D01*
X1504Y1008D01*
X1508Y1008D01*
X1508Y1006D01*
X1510Y1006D01*
X1510Y1002D01*
X1512Y1002D01*
X1512Y1000D01*
X1514Y1000D01*
X1514Y998D01*
X1516Y998D01*
X1516Y994D01*
X1518Y994D01*
X1518Y990D01*
X1520Y990D01*
X1520Y984D01*
X1522Y984D01*
X1522Y960D01*
X1520Y960D01*
X1520Y954D01*
X1518Y954D01*
X1518Y950D01*
X1516Y950D01*
X1516Y946D01*
X1514Y946D01*
X1514Y942D01*
X1512Y942D01*
X1512Y940D01*
X1510Y940D01*
X1510Y938D01*
X1508Y938D01*
X1508Y936D01*
X1506Y936D01*
X1506Y934D01*
X1504Y934D01*
X1504Y932D01*
X1500Y932D01*
X1500Y912D01*
X1502Y912D01*
X1502Y910D01*
X1504Y910D01*
X1504Y908D01*
X1508Y908D01*
X1508Y906D01*
X1510Y906D01*
X1510Y902D01*
X1512Y902D01*
X1512Y900D01*
X1514Y900D01*
X1514Y898D01*
X1516Y898D01*
X1516Y894D01*
X1518Y894D01*
X1518Y890D01*
X1520Y890D01*
X1520Y884D01*
X1522Y884D01*
X1522Y860D01*
X1520Y860D01*
X1520Y854D01*
X1518Y854D01*
X1518Y850D01*
X1516Y850D01*
X1516Y846D01*
X1514Y846D01*
X1514Y842D01*
X1512Y842D01*
X1512Y840D01*
X1510Y840D01*
X1510Y838D01*
X1508Y838D01*
X1508Y836D01*
X1506Y836D01*
X1506Y834D01*
X1504Y834D01*
X1504Y832D01*
X1500Y832D01*
X1500Y812D01*
X1502Y812D01*
X1502Y810D01*
X1504Y810D01*
X1504Y808D01*
X1508Y808D01*
X1508Y806D01*
X1510Y806D01*
X1510Y802D01*
X1512Y802D01*
X1512Y800D01*
X1514Y800D01*
X1514Y798D01*
X1516Y798D01*
X1516Y794D01*
X1530Y794D01*
X1530Y792D01*
X1550Y792D01*
X1550Y974D01*
X1552Y974D01*
X1552Y980D01*
X1554Y980D01*
X1554Y984D01*
X1556Y984D01*
X1556Y986D01*
X1558Y986D01*
X1558Y988D01*
X1560Y988D01*
X1560Y990D01*
X1564Y990D01*
X1564Y992D01*
X1570Y992D01*
X1570Y994D01*
X1630Y994D01*
X1630Y996D01*
X1632Y996D01*
X1632Y998D01*
X1634Y998D01*
X1634Y1002D01*
X1636Y1002D01*
X1636Y1004D01*
X1638Y1004D01*
X1638Y1006D01*
X1640Y1006D01*
X1640Y1008D01*
X1642Y1008D01*
X1642Y1010D01*
X1644Y1010D01*
X1644Y1012D01*
X1648Y1012D01*
X1648Y1014D01*
X1652Y1014D01*
X1652Y1016D01*
X1656Y1016D01*
X1656Y1018D01*
X1662Y1018D01*
X1662Y1020D01*
X1500Y1020D01*
G37*
D02*
G36*
X896Y950D02*
X896Y924D01*
X966Y924D01*
X966Y926D01*
X958Y926D01*
X958Y928D01*
X954Y928D01*
X954Y930D01*
X950Y930D01*
X950Y932D01*
X946Y932D01*
X946Y934D01*
X944Y934D01*
X944Y936D01*
X942Y936D01*
X942Y938D01*
X940Y938D01*
X940Y940D01*
X938Y940D01*
X938Y942D01*
X936Y942D01*
X936Y944D01*
X934Y944D01*
X934Y948D01*
X932Y948D01*
X932Y950D01*
X896Y950D01*
G37*
D02*
G36*
X896Y924D02*
X896Y922D01*
X1250Y922D01*
X1250Y924D01*
X896Y924D01*
G37*
D02*
G36*
X896Y924D02*
X896Y922D01*
X1250Y922D01*
X1250Y924D01*
X896Y924D01*
G37*
D02*
G36*
X896Y922D02*
X896Y720D01*
X1076Y720D01*
X1076Y718D01*
X1086Y718D01*
X1086Y716D01*
X1092Y716D01*
X1092Y714D01*
X1096Y714D01*
X1096Y712D01*
X1100Y712D01*
X1100Y710D01*
X1102Y710D01*
X1102Y708D01*
X1106Y708D01*
X1106Y706D01*
X1108Y706D01*
X1108Y704D01*
X1110Y704D01*
X1110Y700D01*
X1112Y700D01*
X1112Y698D01*
X1114Y698D01*
X1114Y694D01*
X1250Y694D01*
X1250Y922D01*
X896Y922D01*
G37*
D02*
G36*
X1700Y920D02*
X1700Y912D01*
X1702Y912D01*
X1702Y910D01*
X1704Y910D01*
X1704Y908D01*
X1708Y908D01*
X1708Y906D01*
X1710Y906D01*
X1710Y902D01*
X1712Y902D01*
X1712Y900D01*
X1714Y900D01*
X1714Y898D01*
X1716Y898D01*
X1716Y894D01*
X1856Y894D01*
X1856Y898D01*
X1858Y898D01*
X1858Y900D01*
X1860Y900D01*
X1860Y904D01*
X1862Y904D01*
X1862Y906D01*
X1864Y906D01*
X1864Y908D01*
X1868Y908D01*
X1868Y910D01*
X1870Y910D01*
X1870Y912D01*
X1874Y912D01*
X1874Y914D01*
X1878Y914D01*
X1878Y916D01*
X1884Y916D01*
X1884Y918D01*
X1894Y918D01*
X1894Y920D01*
X1700Y920D01*
G37*
D02*
G36*
X1900Y920D02*
X1900Y918D01*
X1910Y918D01*
X1910Y916D01*
X1916Y916D01*
X1916Y914D01*
X1920Y914D01*
X1920Y912D01*
X1922Y912D01*
X1922Y910D01*
X1926Y910D01*
X1926Y908D01*
X1928Y908D01*
X1928Y906D01*
X1930Y906D01*
X1930Y904D01*
X1932Y904D01*
X1932Y902D01*
X1934Y902D01*
X1934Y900D01*
X1936Y900D01*
X1936Y896D01*
X1938Y896D01*
X1938Y892D01*
X1940Y892D01*
X1940Y888D01*
X1942Y888D01*
X1942Y880D01*
X1944Y880D01*
X1944Y862D01*
X1942Y862D01*
X1942Y856D01*
X1940Y856D01*
X1940Y852D01*
X1938Y852D01*
X1938Y848D01*
X1936Y848D01*
X1936Y844D01*
X1934Y844D01*
X1934Y842D01*
X1932Y842D01*
X1932Y840D01*
X1930Y840D01*
X1930Y838D01*
X1928Y838D01*
X1928Y836D01*
X1926Y836D01*
X1926Y834D01*
X1924Y834D01*
X1924Y832D01*
X1920Y832D01*
X1920Y830D01*
X1916Y830D01*
X1916Y828D01*
X1912Y828D01*
X1912Y826D01*
X1904Y826D01*
X1904Y824D01*
X2066Y824D01*
X2066Y826D01*
X2058Y826D01*
X2058Y828D01*
X2054Y828D01*
X2054Y830D01*
X2050Y830D01*
X2050Y832D01*
X2046Y832D01*
X2046Y834D01*
X2044Y834D01*
X2044Y836D01*
X2042Y836D01*
X2042Y838D01*
X2040Y838D01*
X2040Y840D01*
X2038Y840D01*
X2038Y842D01*
X2036Y842D01*
X2036Y844D01*
X2034Y844D01*
X2034Y848D01*
X2032Y848D01*
X2032Y852D01*
X2030Y852D01*
X2030Y856D01*
X2028Y856D01*
X2028Y864D01*
X2026Y864D01*
X2026Y880D01*
X2028Y880D01*
X2028Y888D01*
X2030Y888D01*
X2030Y892D01*
X2032Y892D01*
X2032Y896D01*
X2034Y896D01*
X2034Y900D01*
X2036Y900D01*
X2036Y902D01*
X2038Y902D01*
X2038Y904D01*
X2040Y904D01*
X2040Y906D01*
X2042Y906D01*
X2042Y908D01*
X2044Y908D01*
X2044Y910D01*
X2048Y910D01*
X2048Y912D01*
X2050Y912D01*
X2050Y914D01*
X2054Y914D01*
X2054Y916D01*
X2060Y916D01*
X2060Y918D01*
X2070Y918D01*
X2070Y920D01*
X1900Y920D01*
G37*
D02*
G36*
X40Y916D02*
X40Y826D01*
X170Y826D01*
X170Y828D01*
X160Y828D01*
X160Y830D01*
X154Y830D01*
X154Y832D01*
X152Y832D01*
X152Y834D01*
X148Y834D01*
X148Y836D01*
X146Y836D01*
X146Y838D01*
X142Y838D01*
X142Y840D01*
X140Y840D01*
X140Y844D01*
X138Y844D01*
X138Y846D01*
X136Y846D01*
X136Y850D01*
X134Y850D01*
X134Y852D01*
X132Y852D01*
X132Y858D01*
X130Y858D01*
X130Y866D01*
X128Y866D01*
X128Y876D01*
X130Y876D01*
X130Y886D01*
X132Y886D01*
X132Y890D01*
X134Y890D01*
X134Y894D01*
X136Y894D01*
X136Y898D01*
X138Y898D01*
X138Y900D01*
X140Y900D01*
X140Y902D01*
X142Y902D01*
X142Y904D01*
X144Y904D01*
X144Y906D01*
X146Y906D01*
X146Y908D01*
X148Y908D01*
X148Y910D01*
X152Y910D01*
X152Y912D01*
X156Y912D01*
X156Y914D01*
X162Y914D01*
X162Y916D01*
X40Y916D01*
G37*
D02*
G36*
X214Y852D02*
X214Y850D01*
X212Y850D01*
X212Y846D01*
X210Y846D01*
X210Y844D01*
X208Y844D01*
X208Y842D01*
X206Y842D01*
X206Y840D01*
X204Y840D01*
X204Y838D01*
X202Y838D01*
X202Y836D01*
X200Y836D01*
X200Y834D01*
X196Y834D01*
X196Y832D01*
X192Y832D01*
X192Y830D01*
X188Y830D01*
X188Y828D01*
X178Y828D01*
X178Y826D01*
X270Y826D01*
X270Y828D01*
X260Y828D01*
X260Y830D01*
X254Y830D01*
X254Y832D01*
X252Y832D01*
X252Y834D01*
X248Y834D01*
X248Y836D01*
X246Y836D01*
X246Y838D01*
X242Y838D01*
X242Y840D01*
X240Y840D01*
X240Y844D01*
X238Y844D01*
X238Y846D01*
X236Y846D01*
X236Y850D01*
X234Y850D01*
X234Y852D01*
X214Y852D01*
G37*
D02*
G36*
X312Y850D02*
X312Y846D01*
X310Y846D01*
X310Y844D01*
X308Y844D01*
X308Y842D01*
X306Y842D01*
X306Y840D01*
X304Y840D01*
X304Y838D01*
X302Y838D01*
X302Y836D01*
X300Y836D01*
X300Y834D01*
X296Y834D01*
X296Y832D01*
X292Y832D01*
X292Y830D01*
X288Y830D01*
X288Y828D01*
X278Y828D01*
X278Y826D01*
X352Y826D01*
X352Y850D01*
X312Y850D01*
G37*
D02*
G36*
X1716Y850D02*
X1716Y846D01*
X1714Y846D01*
X1714Y842D01*
X1712Y842D01*
X1712Y840D01*
X1710Y840D01*
X1710Y838D01*
X1708Y838D01*
X1708Y836D01*
X1706Y836D01*
X1706Y834D01*
X1704Y834D01*
X1704Y832D01*
X1700Y832D01*
X1700Y830D01*
X1698Y830D01*
X1698Y828D01*
X1696Y828D01*
X1696Y824D01*
X1888Y824D01*
X1888Y826D01*
X1882Y826D01*
X1882Y828D01*
X1876Y828D01*
X1876Y830D01*
X1872Y830D01*
X1872Y832D01*
X1870Y832D01*
X1870Y834D01*
X1866Y834D01*
X1866Y836D01*
X1864Y836D01*
X1864Y838D01*
X1862Y838D01*
X1862Y840D01*
X1860Y840D01*
X1860Y842D01*
X1858Y842D01*
X1858Y846D01*
X1856Y846D01*
X1856Y850D01*
X1716Y850D01*
G37*
D02*
G36*
X40Y826D02*
X40Y824D01*
X352Y824D01*
X352Y826D01*
X40Y826D01*
G37*
D02*
G36*
X40Y826D02*
X40Y824D01*
X352Y824D01*
X352Y826D01*
X40Y826D01*
G37*
D02*
G36*
X40Y826D02*
X40Y824D01*
X352Y824D01*
X352Y826D01*
X40Y826D01*
G37*
D02*
G36*
X40Y824D02*
X40Y722D01*
X578Y722D01*
X578Y720D01*
X588Y720D01*
X588Y718D01*
X594Y718D01*
X594Y716D01*
X598Y716D01*
X598Y714D01*
X600Y714D01*
X600Y712D01*
X604Y712D01*
X604Y710D01*
X606Y710D01*
X606Y708D01*
X608Y708D01*
X608Y706D01*
X610Y706D01*
X610Y704D01*
X612Y704D01*
X612Y702D01*
X614Y702D01*
X614Y698D01*
X616Y698D01*
X616Y696D01*
X618Y696D01*
X618Y692D01*
X620Y692D01*
X620Y686D01*
X622Y686D01*
X622Y676D01*
X624Y676D01*
X624Y666D01*
X622Y666D01*
X622Y658D01*
X620Y658D01*
X620Y652D01*
X618Y652D01*
X618Y648D01*
X616Y648D01*
X616Y644D01*
X614Y644D01*
X614Y642D01*
X612Y642D01*
X612Y640D01*
X610Y640D01*
X610Y636D01*
X606Y636D01*
X606Y634D01*
X604Y634D01*
X604Y632D01*
X602Y632D01*
X602Y612D01*
X604Y612D01*
X604Y610D01*
X606Y610D01*
X606Y608D01*
X608Y608D01*
X608Y606D01*
X610Y606D01*
X610Y604D01*
X612Y604D01*
X612Y602D01*
X614Y602D01*
X614Y598D01*
X616Y598D01*
X616Y596D01*
X618Y596D01*
X618Y592D01*
X620Y592D01*
X620Y586D01*
X622Y586D01*
X622Y576D01*
X624Y576D01*
X624Y566D01*
X622Y566D01*
X622Y558D01*
X620Y558D01*
X620Y552D01*
X618Y552D01*
X618Y548D01*
X616Y548D01*
X616Y544D01*
X614Y544D01*
X614Y542D01*
X612Y542D01*
X612Y540D01*
X610Y540D01*
X610Y536D01*
X606Y536D01*
X606Y534D01*
X604Y534D01*
X604Y532D01*
X602Y532D01*
X602Y512D01*
X604Y512D01*
X604Y510D01*
X606Y510D01*
X606Y508D01*
X608Y508D01*
X608Y506D01*
X610Y506D01*
X610Y504D01*
X612Y504D01*
X612Y502D01*
X614Y502D01*
X614Y498D01*
X616Y498D01*
X616Y496D01*
X618Y496D01*
X618Y492D01*
X620Y492D01*
X620Y486D01*
X622Y486D01*
X622Y476D01*
X624Y476D01*
X624Y466D01*
X622Y466D01*
X622Y458D01*
X620Y458D01*
X620Y452D01*
X618Y452D01*
X618Y448D01*
X616Y448D01*
X616Y444D01*
X614Y444D01*
X614Y442D01*
X612Y442D01*
X612Y440D01*
X610Y440D01*
X610Y436D01*
X606Y436D01*
X606Y434D01*
X604Y434D01*
X604Y432D01*
X602Y432D01*
X602Y412D01*
X604Y412D01*
X604Y410D01*
X606Y410D01*
X606Y408D01*
X608Y408D01*
X608Y406D01*
X610Y406D01*
X610Y404D01*
X612Y404D01*
X612Y402D01*
X614Y402D01*
X614Y398D01*
X616Y398D01*
X616Y396D01*
X618Y396D01*
X618Y392D01*
X620Y392D01*
X620Y386D01*
X622Y386D01*
X622Y376D01*
X624Y376D01*
X624Y366D01*
X622Y366D01*
X622Y358D01*
X620Y358D01*
X620Y352D01*
X618Y352D01*
X618Y348D01*
X616Y348D01*
X616Y344D01*
X614Y344D01*
X614Y342D01*
X866Y342D01*
X866Y344D01*
X860Y344D01*
X860Y346D01*
X858Y346D01*
X858Y348D01*
X854Y348D01*
X854Y350D01*
X668Y350D01*
X668Y352D01*
X664Y352D01*
X664Y354D01*
X660Y354D01*
X660Y356D01*
X658Y356D01*
X658Y358D01*
X656Y358D01*
X656Y362D01*
X654Y362D01*
X654Y366D01*
X652Y366D01*
X652Y750D01*
X366Y750D01*
X366Y752D01*
X362Y752D01*
X362Y754D01*
X360Y754D01*
X360Y756D01*
X358Y756D01*
X358Y758D01*
X356Y758D01*
X356Y760D01*
X354Y760D01*
X354Y764D01*
X352Y764D01*
X352Y824D01*
X40Y824D01*
G37*
D02*
G36*
X1696Y824D02*
X1696Y822D01*
X2202Y822D01*
X2202Y824D01*
X1696Y824D01*
G37*
D02*
G36*
X1696Y824D02*
X1696Y822D01*
X2202Y822D01*
X2202Y824D01*
X1696Y824D01*
G37*
D02*
G36*
X1696Y824D02*
X1696Y822D01*
X2202Y822D01*
X2202Y824D01*
X1696Y824D01*
G37*
D02*
G36*
X396Y822D02*
X396Y820D01*
X746Y820D01*
X746Y822D01*
X396Y822D01*
G37*
D02*
G36*
X396Y822D02*
X396Y820D01*
X746Y820D01*
X746Y822D01*
X396Y822D01*
G37*
D02*
G36*
X1696Y822D02*
X1696Y712D01*
X1694Y712D01*
X1694Y708D01*
X1692Y708D01*
X1692Y706D01*
X1690Y706D01*
X1690Y704D01*
X1688Y704D01*
X1688Y702D01*
X1684Y702D01*
X1684Y700D01*
X1594Y700D01*
X1594Y670D01*
X1686Y670D01*
X1686Y668D01*
X1692Y668D01*
X1692Y666D01*
X1696Y666D01*
X1696Y664D01*
X2078Y664D01*
X2078Y662D01*
X2088Y662D01*
X2088Y660D01*
X2094Y660D01*
X2094Y658D01*
X2096Y658D01*
X2096Y656D01*
X2100Y656D01*
X2100Y654D01*
X2102Y654D01*
X2102Y652D01*
X2106Y652D01*
X2106Y650D01*
X2108Y650D01*
X2108Y648D01*
X2110Y648D01*
X2110Y644D01*
X2112Y644D01*
X2112Y642D01*
X2114Y642D01*
X2114Y638D01*
X2116Y638D01*
X2116Y634D01*
X2118Y634D01*
X2118Y628D01*
X2120Y628D01*
X2120Y618D01*
X2122Y618D01*
X2122Y614D01*
X2120Y614D01*
X2120Y602D01*
X2118Y602D01*
X2118Y596D01*
X2116Y596D01*
X2116Y594D01*
X2114Y594D01*
X2114Y590D01*
X2112Y590D01*
X2112Y586D01*
X2110Y586D01*
X2110Y584D01*
X2108Y584D01*
X2108Y582D01*
X2106Y582D01*
X2106Y580D01*
X2104Y580D01*
X2104Y578D01*
X2100Y578D01*
X2100Y576D01*
X2098Y576D01*
X2098Y574D01*
X2094Y574D01*
X2094Y572D01*
X2088Y572D01*
X2088Y570D01*
X2082Y570D01*
X2082Y568D01*
X2202Y568D01*
X2202Y822D01*
X1696Y822D01*
G37*
D02*
G36*
X396Y820D02*
X396Y794D01*
X678Y794D01*
X678Y792D01*
X684Y792D01*
X684Y790D01*
X688Y790D01*
X688Y788D01*
X690Y788D01*
X690Y786D01*
X692Y786D01*
X692Y782D01*
X694Y782D01*
X694Y776D01*
X696Y776D01*
X696Y422D01*
X768Y422D01*
X768Y424D01*
X760Y424D01*
X760Y426D01*
X754Y426D01*
X754Y428D01*
X750Y428D01*
X750Y430D01*
X746Y430D01*
X746Y432D01*
X744Y432D01*
X744Y434D01*
X742Y434D01*
X742Y436D01*
X740Y436D01*
X740Y438D01*
X738Y438D01*
X738Y440D01*
X736Y440D01*
X736Y442D01*
X734Y442D01*
X734Y444D01*
X732Y444D01*
X732Y448D01*
X730Y448D01*
X730Y452D01*
X728Y452D01*
X728Y458D01*
X726Y458D01*
X726Y466D01*
X724Y466D01*
X724Y478D01*
X726Y478D01*
X726Y486D01*
X728Y486D01*
X728Y492D01*
X730Y492D01*
X730Y496D01*
X732Y496D01*
X732Y498D01*
X734Y498D01*
X734Y502D01*
X736Y502D01*
X736Y504D01*
X738Y504D01*
X738Y506D01*
X740Y506D01*
X740Y508D01*
X742Y508D01*
X742Y510D01*
X744Y510D01*
X744Y512D01*
X746Y512D01*
X746Y532D01*
X744Y532D01*
X744Y534D01*
X742Y534D01*
X742Y536D01*
X740Y536D01*
X740Y538D01*
X738Y538D01*
X738Y540D01*
X736Y540D01*
X736Y542D01*
X734Y542D01*
X734Y544D01*
X732Y544D01*
X732Y548D01*
X730Y548D01*
X730Y552D01*
X728Y552D01*
X728Y558D01*
X726Y558D01*
X726Y566D01*
X724Y566D01*
X724Y578D01*
X726Y578D01*
X726Y586D01*
X728Y586D01*
X728Y592D01*
X730Y592D01*
X730Y596D01*
X732Y596D01*
X732Y598D01*
X734Y598D01*
X734Y602D01*
X736Y602D01*
X736Y604D01*
X738Y604D01*
X738Y606D01*
X740Y606D01*
X740Y608D01*
X742Y608D01*
X742Y610D01*
X744Y610D01*
X744Y612D01*
X746Y612D01*
X746Y632D01*
X744Y632D01*
X744Y634D01*
X742Y634D01*
X742Y636D01*
X740Y636D01*
X740Y638D01*
X738Y638D01*
X738Y640D01*
X736Y640D01*
X736Y642D01*
X734Y642D01*
X734Y644D01*
X732Y644D01*
X732Y648D01*
X730Y648D01*
X730Y652D01*
X728Y652D01*
X728Y658D01*
X726Y658D01*
X726Y666D01*
X724Y666D01*
X724Y678D01*
X726Y678D01*
X726Y686D01*
X728Y686D01*
X728Y692D01*
X730Y692D01*
X730Y696D01*
X732Y696D01*
X732Y698D01*
X734Y698D01*
X734Y702D01*
X736Y702D01*
X736Y704D01*
X738Y704D01*
X738Y706D01*
X740Y706D01*
X740Y708D01*
X742Y708D01*
X742Y710D01*
X744Y710D01*
X744Y712D01*
X746Y712D01*
X746Y732D01*
X744Y732D01*
X744Y734D01*
X742Y734D01*
X742Y736D01*
X740Y736D01*
X740Y738D01*
X738Y738D01*
X738Y740D01*
X736Y740D01*
X736Y742D01*
X734Y742D01*
X734Y744D01*
X732Y744D01*
X732Y748D01*
X730Y748D01*
X730Y752D01*
X728Y752D01*
X728Y758D01*
X726Y758D01*
X726Y766D01*
X724Y766D01*
X724Y778D01*
X726Y778D01*
X726Y786D01*
X728Y786D01*
X728Y792D01*
X730Y792D01*
X730Y796D01*
X732Y796D01*
X732Y798D01*
X734Y798D01*
X734Y802D01*
X736Y802D01*
X736Y804D01*
X738Y804D01*
X738Y806D01*
X740Y806D01*
X740Y808D01*
X742Y808D01*
X742Y810D01*
X744Y810D01*
X744Y812D01*
X746Y812D01*
X746Y820D01*
X396Y820D01*
G37*
D02*
G36*
X40Y722D02*
X40Y718D01*
X60Y718D01*
X60Y720D01*
X68Y720D01*
X68Y722D01*
X40Y722D01*
G37*
D02*
G36*
X78Y722D02*
X78Y720D01*
X88Y720D01*
X88Y718D01*
X94Y718D01*
X94Y716D01*
X98Y716D01*
X98Y714D01*
X100Y714D01*
X100Y712D01*
X104Y712D01*
X104Y710D01*
X106Y710D01*
X106Y708D01*
X108Y708D01*
X108Y706D01*
X110Y706D01*
X110Y704D01*
X112Y704D01*
X112Y702D01*
X114Y702D01*
X114Y700D01*
X134Y700D01*
X134Y702D01*
X136Y702D01*
X136Y706D01*
X138Y706D01*
X138Y708D01*
X142Y708D01*
X142Y710D01*
X144Y710D01*
X144Y712D01*
X146Y712D01*
X146Y714D01*
X150Y714D01*
X150Y716D01*
X154Y716D01*
X154Y718D01*
X160Y718D01*
X160Y720D01*
X168Y720D01*
X168Y722D01*
X78Y722D01*
G37*
D02*
G36*
X178Y722D02*
X178Y720D01*
X188Y720D01*
X188Y718D01*
X194Y718D01*
X194Y716D01*
X198Y716D01*
X198Y714D01*
X200Y714D01*
X200Y712D01*
X204Y712D01*
X204Y710D01*
X206Y710D01*
X206Y708D01*
X208Y708D01*
X208Y706D01*
X210Y706D01*
X210Y704D01*
X212Y704D01*
X212Y702D01*
X214Y702D01*
X214Y700D01*
X234Y700D01*
X234Y702D01*
X236Y702D01*
X236Y706D01*
X238Y706D01*
X238Y708D01*
X242Y708D01*
X242Y710D01*
X244Y710D01*
X244Y712D01*
X246Y712D01*
X246Y714D01*
X250Y714D01*
X250Y716D01*
X254Y716D01*
X254Y718D01*
X260Y718D01*
X260Y720D01*
X268Y720D01*
X268Y722D01*
X178Y722D01*
G37*
D02*
G36*
X278Y722D02*
X278Y720D01*
X288Y720D01*
X288Y718D01*
X294Y718D01*
X294Y716D01*
X298Y716D01*
X298Y714D01*
X300Y714D01*
X300Y712D01*
X304Y712D01*
X304Y710D01*
X306Y710D01*
X306Y708D01*
X308Y708D01*
X308Y706D01*
X310Y706D01*
X310Y704D01*
X312Y704D01*
X312Y702D01*
X314Y702D01*
X314Y700D01*
X334Y700D01*
X334Y702D01*
X336Y702D01*
X336Y706D01*
X338Y706D01*
X338Y708D01*
X342Y708D01*
X342Y710D01*
X344Y710D01*
X344Y712D01*
X346Y712D01*
X346Y714D01*
X350Y714D01*
X350Y716D01*
X354Y716D01*
X354Y718D01*
X360Y718D01*
X360Y720D01*
X368Y720D01*
X368Y722D01*
X278Y722D01*
G37*
D02*
G36*
X378Y722D02*
X378Y720D01*
X388Y720D01*
X388Y718D01*
X394Y718D01*
X394Y716D01*
X398Y716D01*
X398Y714D01*
X400Y714D01*
X400Y712D01*
X404Y712D01*
X404Y710D01*
X406Y710D01*
X406Y708D01*
X408Y708D01*
X408Y706D01*
X410Y706D01*
X410Y704D01*
X412Y704D01*
X412Y702D01*
X414Y702D01*
X414Y700D01*
X434Y700D01*
X434Y702D01*
X436Y702D01*
X436Y706D01*
X438Y706D01*
X438Y708D01*
X442Y708D01*
X442Y710D01*
X444Y710D01*
X444Y712D01*
X446Y712D01*
X446Y714D01*
X450Y714D01*
X450Y716D01*
X454Y716D01*
X454Y718D01*
X460Y718D01*
X460Y720D01*
X468Y720D01*
X468Y722D01*
X378Y722D01*
G37*
D02*
G36*
X478Y722D02*
X478Y720D01*
X488Y720D01*
X488Y718D01*
X494Y718D01*
X494Y716D01*
X498Y716D01*
X498Y714D01*
X500Y714D01*
X500Y712D01*
X504Y712D01*
X504Y710D01*
X506Y710D01*
X506Y708D01*
X508Y708D01*
X508Y706D01*
X510Y706D01*
X510Y704D01*
X512Y704D01*
X512Y702D01*
X514Y702D01*
X514Y700D01*
X534Y700D01*
X534Y702D01*
X536Y702D01*
X536Y706D01*
X538Y706D01*
X538Y708D01*
X542Y708D01*
X542Y710D01*
X544Y710D01*
X544Y712D01*
X546Y712D01*
X546Y714D01*
X550Y714D01*
X550Y716D01*
X554Y716D01*
X554Y718D01*
X560Y718D01*
X560Y720D01*
X568Y720D01*
X568Y722D01*
X478Y722D01*
G37*
D02*
G36*
X896Y720D02*
X896Y624D01*
X1066Y624D01*
X1066Y626D01*
X1058Y626D01*
X1058Y628D01*
X1054Y628D01*
X1054Y630D01*
X1050Y630D01*
X1050Y632D01*
X1046Y632D01*
X1046Y634D01*
X1044Y634D01*
X1044Y636D01*
X1042Y636D01*
X1042Y638D01*
X1040Y638D01*
X1040Y640D01*
X1038Y640D01*
X1038Y642D01*
X1036Y642D01*
X1036Y644D01*
X1034Y644D01*
X1034Y648D01*
X1032Y648D01*
X1032Y652D01*
X1030Y652D01*
X1030Y656D01*
X1028Y656D01*
X1028Y664D01*
X1026Y664D01*
X1026Y680D01*
X1028Y680D01*
X1028Y688D01*
X1030Y688D01*
X1030Y692D01*
X1032Y692D01*
X1032Y696D01*
X1034Y696D01*
X1034Y700D01*
X1036Y700D01*
X1036Y702D01*
X1038Y702D01*
X1038Y704D01*
X1040Y704D01*
X1040Y706D01*
X1042Y706D01*
X1042Y708D01*
X1044Y708D01*
X1044Y710D01*
X1048Y710D01*
X1048Y712D01*
X1050Y712D01*
X1050Y714D01*
X1054Y714D01*
X1054Y716D01*
X1060Y716D01*
X1060Y718D01*
X1070Y718D01*
X1070Y720D01*
X896Y720D01*
G37*
D02*
G36*
X1594Y670D02*
X1594Y564D01*
X1592Y564D01*
X1592Y542D01*
X1624Y542D01*
X1624Y544D01*
X1630Y544D01*
X1630Y546D01*
X1632Y546D01*
X1632Y548D01*
X1634Y548D01*
X1634Y552D01*
X1636Y552D01*
X1636Y554D01*
X1638Y554D01*
X1638Y556D01*
X1640Y556D01*
X1640Y558D01*
X1642Y558D01*
X1642Y560D01*
X1644Y560D01*
X1644Y562D01*
X1646Y562D01*
X1646Y582D01*
X1644Y582D01*
X1644Y584D01*
X1642Y584D01*
X1642Y586D01*
X1640Y586D01*
X1640Y588D01*
X1638Y588D01*
X1638Y590D01*
X1636Y590D01*
X1636Y592D01*
X1634Y592D01*
X1634Y594D01*
X1632Y594D01*
X1632Y598D01*
X1630Y598D01*
X1630Y602D01*
X1628Y602D01*
X1628Y608D01*
X1626Y608D01*
X1626Y616D01*
X1624Y616D01*
X1624Y628D01*
X1626Y628D01*
X1626Y636D01*
X1628Y636D01*
X1628Y642D01*
X1630Y642D01*
X1630Y646D01*
X1632Y646D01*
X1632Y648D01*
X1634Y648D01*
X1634Y652D01*
X1636Y652D01*
X1636Y654D01*
X1638Y654D01*
X1638Y656D01*
X1640Y656D01*
X1640Y658D01*
X1642Y658D01*
X1642Y660D01*
X1644Y660D01*
X1644Y662D01*
X1648Y662D01*
X1648Y664D01*
X1652Y664D01*
X1652Y666D01*
X1656Y666D01*
X1656Y668D01*
X1662Y668D01*
X1662Y670D01*
X1594Y670D01*
G37*
D02*
G36*
X1700Y664D02*
X1700Y662D01*
X1702Y662D01*
X1702Y660D01*
X1704Y660D01*
X1704Y658D01*
X1708Y658D01*
X1708Y656D01*
X1710Y656D01*
X1710Y652D01*
X1712Y652D01*
X1712Y650D01*
X1714Y650D01*
X1714Y648D01*
X1716Y648D01*
X1716Y644D01*
X1780Y644D01*
X1780Y642D01*
X1786Y642D01*
X1786Y640D01*
X1788Y640D01*
X1788Y638D01*
X1790Y638D01*
X1790Y636D01*
X1792Y636D01*
X1792Y632D01*
X1794Y632D01*
X1794Y628D01*
X1796Y628D01*
X1796Y568D01*
X1890Y568D01*
X1890Y570D01*
X1882Y570D01*
X1882Y572D01*
X1876Y572D01*
X1876Y574D01*
X1872Y574D01*
X1872Y576D01*
X1870Y576D01*
X1870Y578D01*
X1866Y578D01*
X1866Y580D01*
X1864Y580D01*
X1864Y582D01*
X1862Y582D01*
X1862Y584D01*
X1860Y584D01*
X1860Y586D01*
X1858Y586D01*
X1858Y590D01*
X1856Y590D01*
X1856Y594D01*
X1854Y594D01*
X1854Y596D01*
X1852Y596D01*
X1852Y602D01*
X1850Y602D01*
X1850Y614D01*
X1848Y614D01*
X1848Y616D01*
X1850Y616D01*
X1850Y628D01*
X1852Y628D01*
X1852Y634D01*
X1854Y634D01*
X1854Y638D01*
X1856Y638D01*
X1856Y642D01*
X1858Y642D01*
X1858Y644D01*
X1860Y644D01*
X1860Y648D01*
X1862Y648D01*
X1862Y650D01*
X1864Y650D01*
X1864Y652D01*
X1868Y652D01*
X1868Y654D01*
X1870Y654D01*
X1870Y656D01*
X1874Y656D01*
X1874Y658D01*
X1876Y658D01*
X1876Y660D01*
X1882Y660D01*
X1882Y662D01*
X1892Y662D01*
X1892Y664D01*
X1700Y664D01*
G37*
D02*
G36*
X1900Y664D02*
X1900Y662D01*
X1910Y662D01*
X1910Y660D01*
X1916Y660D01*
X1916Y658D01*
X1920Y658D01*
X1920Y656D01*
X1922Y656D01*
X1922Y654D01*
X1926Y654D01*
X1926Y652D01*
X1928Y652D01*
X1928Y650D01*
X1930Y650D01*
X1930Y648D01*
X1932Y648D01*
X1932Y646D01*
X1934Y646D01*
X1934Y644D01*
X1936Y644D01*
X1936Y640D01*
X1938Y640D01*
X1938Y636D01*
X1940Y636D01*
X1940Y632D01*
X1942Y632D01*
X1942Y624D01*
X1944Y624D01*
X1944Y606D01*
X1942Y606D01*
X1942Y600D01*
X1940Y600D01*
X1940Y596D01*
X1938Y596D01*
X1938Y592D01*
X1936Y592D01*
X1936Y588D01*
X1934Y588D01*
X1934Y586D01*
X1932Y586D01*
X1932Y584D01*
X1930Y584D01*
X1930Y582D01*
X1928Y582D01*
X1928Y580D01*
X1926Y580D01*
X1926Y578D01*
X1924Y578D01*
X1924Y576D01*
X1920Y576D01*
X1920Y574D01*
X1916Y574D01*
X1916Y572D01*
X1912Y572D01*
X1912Y570D01*
X1904Y570D01*
X1904Y568D01*
X2066Y568D01*
X2066Y570D01*
X2058Y570D01*
X2058Y572D01*
X2054Y572D01*
X2054Y574D01*
X2050Y574D01*
X2050Y576D01*
X2046Y576D01*
X2046Y578D01*
X2044Y578D01*
X2044Y580D01*
X2042Y580D01*
X2042Y582D01*
X2040Y582D01*
X2040Y584D01*
X2038Y584D01*
X2038Y586D01*
X2036Y586D01*
X2036Y588D01*
X2034Y588D01*
X2034Y592D01*
X2032Y592D01*
X2032Y596D01*
X2030Y596D01*
X2030Y600D01*
X2028Y600D01*
X2028Y608D01*
X2026Y608D01*
X2026Y624D01*
X2028Y624D01*
X2028Y632D01*
X2030Y632D01*
X2030Y636D01*
X2032Y636D01*
X2032Y640D01*
X2034Y640D01*
X2034Y644D01*
X2036Y644D01*
X2036Y646D01*
X2038Y646D01*
X2038Y648D01*
X2040Y648D01*
X2040Y650D01*
X2042Y650D01*
X2042Y652D01*
X2044Y652D01*
X2044Y654D01*
X2048Y654D01*
X2048Y656D01*
X2050Y656D01*
X2050Y658D01*
X2054Y658D01*
X2054Y660D01*
X2060Y660D01*
X2060Y662D01*
X2070Y662D01*
X2070Y664D01*
X1900Y664D01*
G37*
D02*
G36*
X1116Y650D02*
X1116Y648D01*
X1114Y648D01*
X1114Y646D01*
X1112Y646D01*
X1112Y642D01*
X1110Y642D01*
X1110Y640D01*
X1108Y640D01*
X1108Y638D01*
X1106Y638D01*
X1106Y636D01*
X1104Y636D01*
X1104Y634D01*
X1100Y634D01*
X1100Y632D01*
X1098Y632D01*
X1098Y630D01*
X1094Y630D01*
X1094Y628D01*
X1088Y628D01*
X1088Y626D01*
X1082Y626D01*
X1082Y624D01*
X1250Y624D01*
X1250Y650D01*
X1116Y650D01*
G37*
D02*
G36*
X896Y624D02*
X896Y622D01*
X1250Y622D01*
X1250Y624D01*
X896Y624D01*
G37*
D02*
G36*
X896Y624D02*
X896Y622D01*
X1250Y622D01*
X1250Y624D01*
X896Y624D01*
G37*
D02*
G36*
X896Y622D02*
X896Y620D01*
X976Y620D01*
X976Y618D01*
X986Y618D01*
X986Y616D01*
X992Y616D01*
X992Y614D01*
X996Y614D01*
X996Y612D01*
X1000Y612D01*
X1000Y610D01*
X1002Y610D01*
X1002Y608D01*
X1006Y608D01*
X1006Y606D01*
X1008Y606D01*
X1008Y604D01*
X1010Y604D01*
X1010Y600D01*
X1012Y600D01*
X1012Y598D01*
X1014Y598D01*
X1014Y594D01*
X1016Y594D01*
X1016Y590D01*
X1018Y590D01*
X1018Y584D01*
X1020Y584D01*
X1020Y574D01*
X1022Y574D01*
X1022Y570D01*
X1020Y570D01*
X1020Y558D01*
X1018Y558D01*
X1018Y552D01*
X1016Y552D01*
X1016Y548D01*
X1014Y548D01*
X1014Y546D01*
X1012Y546D01*
X1012Y542D01*
X1010Y542D01*
X1010Y540D01*
X1008Y540D01*
X1008Y538D01*
X1006Y538D01*
X1006Y536D01*
X1004Y536D01*
X1004Y534D01*
X1000Y534D01*
X1000Y532D01*
X998Y532D01*
X998Y530D01*
X996Y530D01*
X996Y502D01*
X1176Y502D01*
X1176Y500D01*
X1186Y500D01*
X1186Y498D01*
X1188Y498D01*
X1188Y496D01*
X1192Y496D01*
X1192Y494D01*
X1194Y494D01*
X1194Y492D01*
X1196Y492D01*
X1196Y490D01*
X1198Y490D01*
X1198Y486D01*
X1200Y486D01*
X1200Y484D01*
X1202Y484D01*
X1202Y474D01*
X1204Y474D01*
X1204Y470D01*
X1202Y470D01*
X1202Y460D01*
X1200Y460D01*
X1200Y456D01*
X1198Y456D01*
X1198Y454D01*
X1196Y454D01*
X1196Y452D01*
X1194Y452D01*
X1194Y450D01*
X1192Y450D01*
X1192Y448D01*
X1190Y448D01*
X1190Y446D01*
X1186Y446D01*
X1186Y444D01*
X1180Y444D01*
X1180Y442D01*
X1252Y442D01*
X1252Y488D01*
X1250Y488D01*
X1250Y622D01*
X896Y622D01*
G37*
D02*
G36*
X896Y620D02*
X896Y590D01*
X898Y590D01*
X898Y586D01*
X900Y586D01*
X900Y584D01*
X902Y584D01*
X902Y574D01*
X904Y574D01*
X904Y570D01*
X902Y570D01*
X902Y560D01*
X900Y560D01*
X900Y556D01*
X898Y556D01*
X898Y554D01*
X896Y554D01*
X896Y552D01*
X894Y552D01*
X894Y550D01*
X892Y550D01*
X892Y548D01*
X890Y548D01*
X890Y546D01*
X886Y546D01*
X886Y544D01*
X880Y544D01*
X880Y542D01*
X936Y542D01*
X936Y544D01*
X934Y544D01*
X934Y548D01*
X932Y548D01*
X932Y552D01*
X930Y552D01*
X930Y556D01*
X928Y556D01*
X928Y564D01*
X926Y564D01*
X926Y580D01*
X928Y580D01*
X928Y588D01*
X930Y588D01*
X930Y592D01*
X932Y592D01*
X932Y596D01*
X934Y596D01*
X934Y600D01*
X936Y600D01*
X936Y602D01*
X938Y602D01*
X938Y604D01*
X940Y604D01*
X940Y606D01*
X942Y606D01*
X942Y608D01*
X944Y608D01*
X944Y610D01*
X948Y610D01*
X948Y612D01*
X950Y612D01*
X950Y614D01*
X954Y614D01*
X954Y616D01*
X960Y616D01*
X960Y618D01*
X970Y618D01*
X970Y620D01*
X896Y620D01*
G37*
D02*
G36*
X1716Y600D02*
X1716Y596D01*
X1714Y596D01*
X1714Y592D01*
X1712Y592D01*
X1712Y590D01*
X1710Y590D01*
X1710Y588D01*
X1708Y588D01*
X1708Y586D01*
X1706Y586D01*
X1706Y584D01*
X1704Y584D01*
X1704Y582D01*
X1700Y582D01*
X1700Y562D01*
X1702Y562D01*
X1702Y560D01*
X1704Y560D01*
X1704Y558D01*
X1708Y558D01*
X1708Y556D01*
X1710Y556D01*
X1710Y552D01*
X1712Y552D01*
X1712Y550D01*
X1714Y550D01*
X1714Y548D01*
X1716Y548D01*
X1716Y544D01*
X1718Y544D01*
X1718Y540D01*
X1720Y540D01*
X1720Y534D01*
X1722Y534D01*
X1722Y510D01*
X1720Y510D01*
X1720Y504D01*
X1718Y504D01*
X1718Y500D01*
X1716Y500D01*
X1716Y496D01*
X1714Y496D01*
X1714Y492D01*
X1712Y492D01*
X1712Y490D01*
X1710Y490D01*
X1710Y488D01*
X1708Y488D01*
X1708Y486D01*
X1706Y486D01*
X1706Y484D01*
X1704Y484D01*
X1704Y482D01*
X1700Y482D01*
X1700Y480D01*
X1698Y480D01*
X1698Y478D01*
X1694Y478D01*
X1694Y476D01*
X1688Y476D01*
X1688Y474D01*
X1678Y474D01*
X1678Y472D01*
X1744Y472D01*
X1744Y478D01*
X1746Y478D01*
X1746Y484D01*
X1748Y484D01*
X1748Y488D01*
X1750Y488D01*
X1750Y490D01*
X1752Y490D01*
X1752Y600D01*
X1716Y600D01*
G37*
D02*
G36*
X1796Y568D02*
X1796Y566D01*
X2202Y566D01*
X2202Y568D01*
X1796Y568D01*
G37*
D02*
G36*
X1796Y568D02*
X1796Y566D01*
X2202Y566D01*
X2202Y568D01*
X1796Y568D01*
G37*
D02*
G36*
X1796Y568D02*
X1796Y566D01*
X2202Y566D01*
X2202Y568D01*
X1796Y568D01*
G37*
D02*
G36*
X1796Y566D02*
X1796Y502D01*
X1926Y502D01*
X1926Y500D01*
X1936Y500D01*
X1936Y498D01*
X1938Y498D01*
X1938Y496D01*
X1942Y496D01*
X1942Y494D01*
X1944Y494D01*
X1944Y492D01*
X1946Y492D01*
X1946Y490D01*
X1948Y490D01*
X1948Y486D01*
X1950Y486D01*
X1950Y484D01*
X1952Y484D01*
X1952Y474D01*
X1954Y474D01*
X1954Y470D01*
X1952Y470D01*
X1952Y460D01*
X1950Y460D01*
X1950Y456D01*
X1948Y456D01*
X1948Y454D01*
X1946Y454D01*
X1946Y420D01*
X2026Y420D01*
X2026Y418D01*
X2036Y418D01*
X2036Y416D01*
X2042Y416D01*
X2042Y414D01*
X2046Y414D01*
X2046Y412D01*
X2050Y412D01*
X2050Y410D01*
X2052Y410D01*
X2052Y408D01*
X2056Y408D01*
X2056Y406D01*
X2058Y406D01*
X2058Y404D01*
X2060Y404D01*
X2060Y400D01*
X2062Y400D01*
X2062Y398D01*
X2064Y398D01*
X2064Y394D01*
X2066Y394D01*
X2066Y390D01*
X2068Y390D01*
X2068Y384D01*
X2070Y384D01*
X2070Y374D01*
X2072Y374D01*
X2072Y370D01*
X2070Y370D01*
X2070Y358D01*
X2068Y358D01*
X2068Y352D01*
X2066Y352D01*
X2066Y348D01*
X2064Y348D01*
X2064Y346D01*
X2062Y346D01*
X2062Y342D01*
X2060Y342D01*
X2060Y340D01*
X2058Y340D01*
X2058Y338D01*
X2056Y338D01*
X2056Y336D01*
X2054Y336D01*
X2054Y334D01*
X2050Y334D01*
X2050Y332D01*
X2048Y332D01*
X2048Y330D01*
X2044Y330D01*
X2044Y328D01*
X2038Y328D01*
X2038Y326D01*
X2032Y326D01*
X2032Y324D01*
X2202Y324D01*
X2202Y566D01*
X1796Y566D01*
G37*
D02*
G36*
X812Y542D02*
X812Y540D01*
X938Y540D01*
X938Y542D01*
X812Y542D01*
G37*
D02*
G36*
X812Y542D02*
X812Y540D01*
X938Y540D01*
X938Y542D01*
X812Y542D01*
G37*
D02*
G36*
X810Y540D02*
X810Y538D01*
X808Y538D01*
X808Y536D01*
X806Y536D01*
X806Y534D01*
X804Y534D01*
X804Y532D01*
X800Y532D01*
X800Y512D01*
X802Y512D01*
X802Y510D01*
X804Y510D01*
X804Y508D01*
X808Y508D01*
X808Y506D01*
X810Y506D01*
X810Y502D01*
X812Y502D01*
X812Y500D01*
X814Y500D01*
X814Y498D01*
X816Y498D01*
X816Y494D01*
X952Y494D01*
X952Y530D01*
X950Y530D01*
X950Y532D01*
X946Y532D01*
X946Y534D01*
X944Y534D01*
X944Y536D01*
X942Y536D01*
X942Y538D01*
X940Y538D01*
X940Y540D01*
X810Y540D01*
G37*
D02*
G36*
X996Y502D02*
X996Y494D01*
X1156Y494D01*
X1156Y496D01*
X1158Y496D01*
X1158Y498D01*
X1162Y498D01*
X1162Y500D01*
X1170Y500D01*
X1170Y502D01*
X996Y502D01*
G37*
D02*
G36*
X1294Y502D02*
X1294Y494D01*
X1296Y494D01*
X1296Y314D01*
X1300Y314D01*
X1300Y312D01*
X1302Y312D01*
X1302Y310D01*
X1304Y310D01*
X1304Y308D01*
X1308Y308D01*
X1308Y306D01*
X1310Y306D01*
X1310Y302D01*
X1312Y302D01*
X1312Y300D01*
X1314Y300D01*
X1314Y298D01*
X1334Y298D01*
X1334Y302D01*
X1336Y302D01*
X1336Y304D01*
X1338Y304D01*
X1338Y306D01*
X1340Y306D01*
X1340Y308D01*
X1342Y308D01*
X1342Y310D01*
X1344Y310D01*
X1344Y312D01*
X1348Y312D01*
X1348Y314D01*
X1352Y314D01*
X1352Y452D01*
X1350Y452D01*
X1350Y456D01*
X1348Y456D01*
X1348Y458D01*
X1346Y458D01*
X1346Y464D01*
X1344Y464D01*
X1344Y478D01*
X1346Y478D01*
X1346Y484D01*
X1348Y484D01*
X1348Y488D01*
X1350Y488D01*
X1350Y490D01*
X1352Y490D01*
X1352Y492D01*
X1354Y492D01*
X1354Y494D01*
X1356Y494D01*
X1356Y496D01*
X1358Y496D01*
X1358Y498D01*
X1362Y498D01*
X1362Y500D01*
X1370Y500D01*
X1370Y502D01*
X1294Y502D01*
G37*
D02*
G36*
X1796Y502D02*
X1796Y490D01*
X1798Y490D01*
X1798Y486D01*
X1800Y486D01*
X1800Y484D01*
X1802Y484D01*
X1802Y474D01*
X1804Y474D01*
X1804Y470D01*
X1802Y470D01*
X1802Y460D01*
X1800Y460D01*
X1800Y456D01*
X1798Y456D01*
X1798Y454D01*
X1796Y454D01*
X1796Y452D01*
X1794Y452D01*
X1794Y450D01*
X1792Y450D01*
X1792Y448D01*
X1790Y448D01*
X1790Y446D01*
X1786Y446D01*
X1786Y444D01*
X1780Y444D01*
X1780Y442D01*
X1902Y442D01*
X1902Y452D01*
X1900Y452D01*
X1900Y456D01*
X1898Y456D01*
X1898Y458D01*
X1896Y458D01*
X1896Y464D01*
X1894Y464D01*
X1894Y478D01*
X1896Y478D01*
X1896Y484D01*
X1898Y484D01*
X1898Y488D01*
X1900Y488D01*
X1900Y490D01*
X1902Y490D01*
X1902Y492D01*
X1904Y492D01*
X1904Y494D01*
X1906Y494D01*
X1906Y496D01*
X1908Y496D01*
X1908Y498D01*
X1912Y498D01*
X1912Y500D01*
X1920Y500D01*
X1920Y502D01*
X1796Y502D01*
G37*
D02*
G36*
X1594Y498D02*
X1594Y472D01*
X1668Y472D01*
X1668Y474D01*
X1660Y474D01*
X1660Y476D01*
X1654Y476D01*
X1654Y478D01*
X1650Y478D01*
X1650Y480D01*
X1646Y480D01*
X1646Y482D01*
X1644Y482D01*
X1644Y484D01*
X1642Y484D01*
X1642Y486D01*
X1640Y486D01*
X1640Y488D01*
X1638Y488D01*
X1638Y490D01*
X1636Y490D01*
X1636Y492D01*
X1634Y492D01*
X1634Y494D01*
X1632Y494D01*
X1632Y498D01*
X1594Y498D01*
G37*
D02*
G36*
X1594Y472D02*
X1594Y470D01*
X1744Y470D01*
X1744Y472D01*
X1594Y472D01*
G37*
D02*
G36*
X1594Y472D02*
X1594Y470D01*
X1744Y470D01*
X1744Y472D01*
X1594Y472D01*
G37*
D02*
G36*
X1594Y470D02*
X1594Y462D01*
X1592Y462D01*
X1592Y458D01*
X1590Y458D01*
X1590Y456D01*
X1588Y456D01*
X1588Y454D01*
X1586Y454D01*
X1586Y452D01*
X1582Y452D01*
X1582Y450D01*
X1574Y450D01*
X1574Y448D01*
X1754Y448D01*
X1754Y450D01*
X1752Y450D01*
X1752Y452D01*
X1750Y452D01*
X1750Y456D01*
X1748Y456D01*
X1748Y458D01*
X1746Y458D01*
X1746Y464D01*
X1744Y464D01*
X1744Y470D01*
X1594Y470D01*
G37*
D02*
G36*
X816Y450D02*
X816Y446D01*
X814Y446D01*
X814Y442D01*
X1166Y442D01*
X1166Y444D01*
X1160Y444D01*
X1160Y446D01*
X1158Y446D01*
X1158Y448D01*
X1154Y448D01*
X1154Y450D01*
X816Y450D01*
G37*
D02*
G36*
X1516Y450D02*
X1516Y448D01*
X1558Y448D01*
X1558Y450D01*
X1516Y450D01*
G37*
D02*
G36*
X1516Y448D02*
X1516Y446D01*
X1758Y446D01*
X1758Y448D01*
X1516Y448D01*
G37*
D02*
G36*
X1516Y448D02*
X1516Y446D01*
X1758Y446D01*
X1758Y448D01*
X1516Y448D01*
G37*
D02*
G36*
X1514Y446D02*
X1514Y442D01*
X1766Y442D01*
X1766Y444D01*
X1760Y444D01*
X1760Y446D01*
X1514Y446D01*
G37*
D02*
G36*
X812Y442D02*
X812Y440D01*
X1252Y440D01*
X1252Y442D01*
X812Y442D01*
G37*
D02*
G36*
X812Y442D02*
X812Y440D01*
X1252Y440D01*
X1252Y442D01*
X812Y442D01*
G37*
D02*
G36*
X1512Y442D02*
X1512Y440D01*
X1902Y440D01*
X1902Y442D01*
X1512Y442D01*
G37*
D02*
G36*
X1512Y442D02*
X1512Y440D01*
X1902Y440D01*
X1902Y442D01*
X1512Y442D01*
G37*
D02*
G36*
X810Y440D02*
X810Y438D01*
X808Y438D01*
X808Y436D01*
X806Y436D01*
X806Y434D01*
X804Y434D01*
X804Y432D01*
X800Y432D01*
X800Y430D01*
X798Y430D01*
X798Y428D01*
X794Y428D01*
X794Y426D01*
X788Y426D01*
X788Y424D01*
X778Y424D01*
X778Y422D01*
X1252Y422D01*
X1252Y440D01*
X810Y440D01*
G37*
D02*
G36*
X1510Y440D02*
X1510Y438D01*
X1508Y438D01*
X1508Y436D01*
X1506Y436D01*
X1506Y434D01*
X1504Y434D01*
X1504Y432D01*
X1500Y432D01*
X1500Y430D01*
X1498Y430D01*
X1498Y428D01*
X1494Y428D01*
X1494Y426D01*
X1488Y426D01*
X1488Y424D01*
X1478Y424D01*
X1478Y422D01*
X1902Y422D01*
X1902Y440D01*
X1510Y440D01*
G37*
D02*
G36*
X696Y422D02*
X696Y420D01*
X1252Y420D01*
X1252Y422D01*
X696Y422D01*
G37*
D02*
G36*
X696Y422D02*
X696Y420D01*
X1252Y420D01*
X1252Y422D01*
X696Y422D01*
G37*
D02*
G36*
X1396Y422D02*
X1396Y420D01*
X1902Y420D01*
X1902Y422D01*
X1396Y422D01*
G37*
D02*
G36*
X1396Y422D02*
X1396Y420D01*
X1902Y420D01*
X1902Y422D01*
X1396Y422D01*
G37*
D02*
G36*
X696Y420D02*
X696Y402D01*
X1180Y402D01*
X1180Y400D01*
X1186Y400D01*
X1186Y398D01*
X1190Y398D01*
X1190Y396D01*
X1194Y396D01*
X1194Y394D01*
X1196Y394D01*
X1196Y392D01*
X1198Y392D01*
X1198Y388D01*
X1200Y388D01*
X1200Y386D01*
X1202Y386D01*
X1202Y380D01*
X1204Y380D01*
X1204Y364D01*
X1202Y364D01*
X1202Y360D01*
X1200Y360D01*
X1200Y356D01*
X1198Y356D01*
X1198Y354D01*
X1196Y354D01*
X1196Y350D01*
X1192Y350D01*
X1192Y348D01*
X1190Y348D01*
X1190Y346D01*
X1186Y346D01*
X1186Y344D01*
X1180Y344D01*
X1180Y342D01*
X1252Y342D01*
X1252Y420D01*
X696Y420D01*
G37*
D02*
G36*
X1396Y420D02*
X1396Y402D01*
X1530Y402D01*
X1530Y400D01*
X1536Y400D01*
X1536Y398D01*
X1540Y398D01*
X1540Y396D01*
X1542Y396D01*
X1542Y394D01*
X1544Y394D01*
X1544Y392D01*
X1546Y392D01*
X1546Y390D01*
X1548Y390D01*
X1548Y386D01*
X1550Y386D01*
X1550Y382D01*
X1552Y382D01*
X1552Y362D01*
X1550Y362D01*
X1550Y358D01*
X1548Y358D01*
X1548Y354D01*
X1546Y354D01*
X1546Y352D01*
X1544Y352D01*
X1544Y350D01*
X1542Y350D01*
X1542Y348D01*
X1538Y348D01*
X1538Y346D01*
X1536Y346D01*
X1536Y344D01*
X1528Y344D01*
X1528Y342D01*
X1886Y342D01*
X1886Y344D01*
X1884Y344D01*
X1884Y348D01*
X1882Y348D01*
X1882Y352D01*
X1880Y352D01*
X1880Y356D01*
X1878Y356D01*
X1878Y364D01*
X1876Y364D01*
X1876Y380D01*
X1878Y380D01*
X1878Y388D01*
X1880Y388D01*
X1880Y392D01*
X1882Y392D01*
X1882Y396D01*
X1884Y396D01*
X1884Y400D01*
X1886Y400D01*
X1886Y402D01*
X1888Y402D01*
X1888Y404D01*
X1890Y404D01*
X1890Y406D01*
X1892Y406D01*
X1892Y408D01*
X1894Y408D01*
X1894Y410D01*
X1898Y410D01*
X1898Y412D01*
X1900Y412D01*
X1900Y414D01*
X1902Y414D01*
X1902Y420D01*
X1396Y420D01*
G37*
D02*
G36*
X1946Y420D02*
X1946Y412D01*
X1950Y412D01*
X1950Y410D01*
X1952Y410D01*
X1952Y408D01*
X1956Y408D01*
X1956Y406D01*
X1958Y406D01*
X1958Y404D01*
X1960Y404D01*
X1960Y400D01*
X1962Y400D01*
X1962Y398D01*
X1964Y398D01*
X1964Y396D01*
X1984Y396D01*
X1984Y400D01*
X1986Y400D01*
X1986Y402D01*
X1988Y402D01*
X1988Y404D01*
X1990Y404D01*
X1990Y406D01*
X1992Y406D01*
X1992Y408D01*
X1994Y408D01*
X1994Y410D01*
X1998Y410D01*
X1998Y412D01*
X2000Y412D01*
X2000Y414D01*
X2004Y414D01*
X2004Y416D01*
X2010Y416D01*
X2010Y418D01*
X2020Y418D01*
X2020Y420D01*
X1946Y420D01*
G37*
D02*
G36*
X696Y402D02*
X696Y394D01*
X856Y394D01*
X856Y396D01*
X858Y396D01*
X858Y398D01*
X862Y398D01*
X862Y400D01*
X870Y400D01*
X870Y402D01*
X696Y402D01*
G37*
D02*
G36*
X876Y402D02*
X876Y400D01*
X886Y400D01*
X886Y398D01*
X888Y398D01*
X888Y396D01*
X892Y396D01*
X892Y394D01*
X1078Y394D01*
X1078Y392D01*
X1084Y392D01*
X1084Y390D01*
X1086Y390D01*
X1086Y388D01*
X1088Y388D01*
X1088Y386D01*
X1090Y386D01*
X1090Y384D01*
X1092Y384D01*
X1092Y380D01*
X1094Y380D01*
X1094Y342D01*
X1170Y342D01*
X1170Y344D01*
X1162Y344D01*
X1162Y346D01*
X1158Y346D01*
X1158Y348D01*
X1156Y348D01*
X1156Y350D01*
X1154Y350D01*
X1154Y352D01*
X1152Y352D01*
X1152Y354D01*
X1150Y354D01*
X1150Y358D01*
X1148Y358D01*
X1148Y360D01*
X1146Y360D01*
X1146Y370D01*
X1144Y370D01*
X1144Y374D01*
X1146Y374D01*
X1146Y384D01*
X1148Y384D01*
X1148Y388D01*
X1150Y388D01*
X1150Y390D01*
X1152Y390D01*
X1152Y392D01*
X1154Y392D01*
X1154Y394D01*
X1156Y394D01*
X1156Y396D01*
X1158Y396D01*
X1158Y398D01*
X1162Y398D01*
X1162Y400D01*
X1168Y400D01*
X1168Y402D01*
X876Y402D01*
G37*
D02*
G36*
X1396Y402D02*
X1396Y342D01*
X1518Y342D01*
X1518Y344D01*
X1512Y344D01*
X1512Y346D01*
X1508Y346D01*
X1508Y348D01*
X1506Y348D01*
X1506Y350D01*
X1502Y350D01*
X1502Y352D01*
X1500Y352D01*
X1500Y356D01*
X1498Y356D01*
X1498Y358D01*
X1496Y358D01*
X1496Y364D01*
X1494Y364D01*
X1494Y380D01*
X1496Y380D01*
X1496Y386D01*
X1498Y386D01*
X1498Y388D01*
X1500Y388D01*
X1500Y392D01*
X1502Y392D01*
X1502Y394D01*
X1504Y394D01*
X1504Y396D01*
X1508Y396D01*
X1508Y398D01*
X1512Y398D01*
X1512Y400D01*
X1518Y400D01*
X1518Y402D01*
X1396Y402D01*
G37*
D02*
G36*
X892Y350D02*
X892Y348D01*
X890Y348D01*
X890Y346D01*
X886Y346D01*
X886Y344D01*
X880Y344D01*
X880Y342D01*
X1050Y342D01*
X1050Y350D01*
X892Y350D01*
G37*
D02*
G36*
X1964Y348D02*
X1964Y346D01*
X1962Y346D01*
X1962Y342D01*
X1960Y342D01*
X1960Y340D01*
X1958Y340D01*
X1958Y338D01*
X1956Y338D01*
X1956Y336D01*
X1954Y336D01*
X1954Y334D01*
X1950Y334D01*
X1950Y332D01*
X1948Y332D01*
X1948Y330D01*
X1946Y330D01*
X1946Y324D01*
X2016Y324D01*
X2016Y326D01*
X2008Y326D01*
X2008Y328D01*
X2004Y328D01*
X2004Y330D01*
X2000Y330D01*
X2000Y332D01*
X1996Y332D01*
X1996Y334D01*
X1994Y334D01*
X1994Y336D01*
X1992Y336D01*
X1992Y338D01*
X1990Y338D01*
X1990Y340D01*
X1988Y340D01*
X1988Y342D01*
X1986Y342D01*
X1986Y344D01*
X1984Y344D01*
X1984Y348D01*
X1964Y348D01*
G37*
D02*
G36*
X612Y342D02*
X612Y340D01*
X1050Y340D01*
X1050Y342D01*
X612Y342D01*
G37*
D02*
G36*
X612Y342D02*
X612Y340D01*
X1050Y340D01*
X1050Y342D01*
X612Y342D01*
G37*
D02*
G36*
X1094Y342D02*
X1094Y340D01*
X1252Y340D01*
X1252Y342D01*
X1094Y342D01*
G37*
D02*
G36*
X1094Y342D02*
X1094Y340D01*
X1252Y340D01*
X1252Y342D01*
X1094Y342D01*
G37*
D02*
G36*
X1396Y342D02*
X1396Y340D01*
X1888Y340D01*
X1888Y342D01*
X1396Y342D01*
G37*
D02*
G36*
X1396Y342D02*
X1396Y340D01*
X1888Y340D01*
X1888Y342D01*
X1396Y342D01*
G37*
D02*
G36*
X610Y340D02*
X610Y336D01*
X606Y336D01*
X606Y334D01*
X604Y334D01*
X604Y332D01*
X602Y332D01*
X602Y312D01*
X604Y312D01*
X604Y310D01*
X606Y310D01*
X606Y308D01*
X608Y308D01*
X608Y306D01*
X610Y306D01*
X610Y304D01*
X612Y304D01*
X612Y302D01*
X614Y302D01*
X614Y298D01*
X616Y298D01*
X616Y296D01*
X618Y296D01*
X618Y292D01*
X620Y292D01*
X620Y286D01*
X622Y286D01*
X622Y276D01*
X624Y276D01*
X624Y266D01*
X622Y266D01*
X622Y258D01*
X620Y258D01*
X620Y252D01*
X618Y252D01*
X618Y248D01*
X616Y248D01*
X616Y244D01*
X614Y244D01*
X614Y242D01*
X612Y242D01*
X612Y240D01*
X610Y240D01*
X610Y236D01*
X606Y236D01*
X606Y234D01*
X604Y234D01*
X604Y232D01*
X602Y232D01*
X602Y212D01*
X604Y212D01*
X604Y210D01*
X606Y210D01*
X606Y208D01*
X608Y208D01*
X608Y206D01*
X610Y206D01*
X610Y204D01*
X612Y204D01*
X612Y202D01*
X614Y202D01*
X614Y198D01*
X616Y198D01*
X616Y196D01*
X618Y196D01*
X618Y192D01*
X620Y192D01*
X620Y186D01*
X622Y186D01*
X622Y176D01*
X624Y176D01*
X624Y166D01*
X622Y166D01*
X622Y158D01*
X620Y158D01*
X620Y152D01*
X618Y152D01*
X618Y148D01*
X616Y148D01*
X616Y144D01*
X614Y144D01*
X614Y142D01*
X612Y142D01*
X612Y140D01*
X610Y140D01*
X610Y136D01*
X606Y136D01*
X606Y134D01*
X604Y134D01*
X604Y132D01*
X602Y132D01*
X602Y130D01*
X598Y130D01*
X598Y128D01*
X594Y128D01*
X594Y126D01*
X590Y126D01*
X590Y124D01*
X582Y124D01*
X582Y122D01*
X1068Y122D01*
X1068Y124D01*
X1060Y124D01*
X1060Y126D01*
X1054Y126D01*
X1054Y128D01*
X1050Y128D01*
X1050Y130D01*
X1046Y130D01*
X1046Y132D01*
X1044Y132D01*
X1044Y134D01*
X1042Y134D01*
X1042Y136D01*
X1040Y136D01*
X1040Y138D01*
X1038Y138D01*
X1038Y140D01*
X1036Y140D01*
X1036Y142D01*
X1034Y142D01*
X1034Y144D01*
X1032Y144D01*
X1032Y148D01*
X1030Y148D01*
X1030Y152D01*
X1028Y152D01*
X1028Y158D01*
X1026Y158D01*
X1026Y166D01*
X1024Y166D01*
X1024Y178D01*
X1026Y178D01*
X1026Y186D01*
X1028Y186D01*
X1028Y192D01*
X1030Y192D01*
X1030Y196D01*
X1032Y196D01*
X1032Y198D01*
X1034Y198D01*
X1034Y202D01*
X1036Y202D01*
X1036Y204D01*
X1038Y204D01*
X1038Y206D01*
X1040Y206D01*
X1040Y208D01*
X1042Y208D01*
X1042Y210D01*
X1044Y210D01*
X1044Y212D01*
X1046Y212D01*
X1046Y232D01*
X1044Y232D01*
X1044Y234D01*
X1042Y234D01*
X1042Y236D01*
X1040Y236D01*
X1040Y238D01*
X1038Y238D01*
X1038Y240D01*
X1036Y240D01*
X1036Y242D01*
X1034Y242D01*
X1034Y244D01*
X1032Y244D01*
X1032Y248D01*
X1030Y248D01*
X1030Y252D01*
X1028Y252D01*
X1028Y258D01*
X1026Y258D01*
X1026Y266D01*
X1024Y266D01*
X1024Y278D01*
X1026Y278D01*
X1026Y286D01*
X1028Y286D01*
X1028Y292D01*
X1030Y292D01*
X1030Y296D01*
X1032Y296D01*
X1032Y298D01*
X1034Y298D01*
X1034Y302D01*
X1036Y302D01*
X1036Y304D01*
X1038Y304D01*
X1038Y306D01*
X1040Y306D01*
X1040Y308D01*
X1042Y308D01*
X1042Y310D01*
X1044Y310D01*
X1044Y312D01*
X1048Y312D01*
X1048Y314D01*
X1050Y314D01*
X1050Y340D01*
X610Y340D01*
G37*
D02*
G36*
X1094Y340D02*
X1094Y322D01*
X1096Y322D01*
X1096Y320D01*
X1186Y320D01*
X1186Y318D01*
X1192Y318D01*
X1192Y316D01*
X1196Y316D01*
X1196Y314D01*
X1200Y314D01*
X1200Y312D01*
X1202Y312D01*
X1202Y310D01*
X1204Y310D01*
X1204Y308D01*
X1208Y308D01*
X1208Y306D01*
X1210Y306D01*
X1210Y302D01*
X1212Y302D01*
X1212Y300D01*
X1214Y300D01*
X1214Y298D01*
X1234Y298D01*
X1234Y302D01*
X1236Y302D01*
X1236Y304D01*
X1238Y304D01*
X1238Y306D01*
X1240Y306D01*
X1240Y308D01*
X1242Y308D01*
X1242Y310D01*
X1244Y310D01*
X1244Y312D01*
X1248Y312D01*
X1248Y314D01*
X1252Y314D01*
X1252Y340D01*
X1094Y340D01*
G37*
D02*
G36*
X1396Y340D02*
X1396Y314D01*
X1400Y314D01*
X1400Y312D01*
X1402Y312D01*
X1402Y310D01*
X1404Y310D01*
X1404Y308D01*
X1408Y308D01*
X1408Y306D01*
X1410Y306D01*
X1410Y302D01*
X1412Y302D01*
X1412Y300D01*
X1414Y300D01*
X1414Y298D01*
X1416Y298D01*
X1416Y294D01*
X1418Y294D01*
X1418Y290D01*
X1420Y290D01*
X1420Y284D01*
X1422Y284D01*
X1422Y260D01*
X1420Y260D01*
X1420Y254D01*
X1418Y254D01*
X1418Y250D01*
X1416Y250D01*
X1416Y246D01*
X1414Y246D01*
X1414Y242D01*
X1412Y242D01*
X1412Y240D01*
X1410Y240D01*
X1410Y238D01*
X1408Y238D01*
X1408Y236D01*
X1406Y236D01*
X1406Y234D01*
X1404Y234D01*
X1404Y232D01*
X1400Y232D01*
X1400Y212D01*
X1402Y212D01*
X1402Y210D01*
X1404Y210D01*
X1404Y208D01*
X1408Y208D01*
X1408Y206D01*
X1410Y206D01*
X1410Y202D01*
X1412Y202D01*
X1412Y200D01*
X1414Y200D01*
X1414Y198D01*
X1416Y198D01*
X1416Y194D01*
X1418Y194D01*
X1418Y190D01*
X1420Y190D01*
X1420Y184D01*
X1422Y184D01*
X1422Y174D01*
X1916Y174D01*
X1916Y176D01*
X1908Y176D01*
X1908Y178D01*
X1904Y178D01*
X1904Y180D01*
X1900Y180D01*
X1900Y182D01*
X1896Y182D01*
X1896Y184D01*
X1894Y184D01*
X1894Y186D01*
X1892Y186D01*
X1892Y188D01*
X1890Y188D01*
X1890Y190D01*
X1888Y190D01*
X1888Y192D01*
X1886Y192D01*
X1886Y194D01*
X1884Y194D01*
X1884Y198D01*
X1882Y198D01*
X1882Y202D01*
X1880Y202D01*
X1880Y206D01*
X1878Y206D01*
X1878Y214D01*
X1876Y214D01*
X1876Y230D01*
X1878Y230D01*
X1878Y238D01*
X1880Y238D01*
X1880Y242D01*
X1882Y242D01*
X1882Y246D01*
X1884Y246D01*
X1884Y250D01*
X1886Y250D01*
X1886Y252D01*
X1888Y252D01*
X1888Y254D01*
X1890Y254D01*
X1890Y256D01*
X1892Y256D01*
X1892Y258D01*
X1894Y258D01*
X1894Y260D01*
X1898Y260D01*
X1898Y262D01*
X1900Y262D01*
X1900Y264D01*
X1902Y264D01*
X1902Y330D01*
X1900Y330D01*
X1900Y332D01*
X1896Y332D01*
X1896Y334D01*
X1894Y334D01*
X1894Y336D01*
X1892Y336D01*
X1892Y338D01*
X1890Y338D01*
X1890Y340D01*
X1396Y340D01*
G37*
D02*
G36*
X1946Y324D02*
X1946Y322D01*
X2202Y322D01*
X2202Y324D01*
X1946Y324D01*
G37*
D02*
G36*
X1946Y324D02*
X1946Y322D01*
X2202Y322D01*
X2202Y324D01*
X1946Y324D01*
G37*
D02*
G36*
X1946Y322D02*
X1946Y270D01*
X2026Y270D01*
X2026Y268D01*
X2036Y268D01*
X2036Y266D01*
X2042Y266D01*
X2042Y264D01*
X2046Y264D01*
X2046Y262D01*
X2050Y262D01*
X2050Y260D01*
X2052Y260D01*
X2052Y258D01*
X2056Y258D01*
X2056Y256D01*
X2058Y256D01*
X2058Y254D01*
X2060Y254D01*
X2060Y250D01*
X2062Y250D01*
X2062Y248D01*
X2064Y248D01*
X2064Y244D01*
X2160Y244D01*
X2160Y242D01*
X2202Y242D01*
X2202Y322D01*
X1946Y322D01*
G37*
D02*
G36*
X1096Y320D02*
X1096Y314D01*
X1100Y314D01*
X1100Y312D01*
X1102Y312D01*
X1102Y310D01*
X1104Y310D01*
X1104Y308D01*
X1108Y308D01*
X1108Y306D01*
X1110Y306D01*
X1110Y302D01*
X1112Y302D01*
X1112Y300D01*
X1114Y300D01*
X1114Y298D01*
X1134Y298D01*
X1134Y302D01*
X1136Y302D01*
X1136Y304D01*
X1138Y304D01*
X1138Y306D01*
X1140Y306D01*
X1140Y308D01*
X1142Y308D01*
X1142Y310D01*
X1144Y310D01*
X1144Y312D01*
X1148Y312D01*
X1148Y314D01*
X1152Y314D01*
X1152Y316D01*
X1156Y316D01*
X1156Y318D01*
X1162Y318D01*
X1162Y320D01*
X1096Y320D01*
G37*
D02*
G36*
X1946Y270D02*
X1946Y262D01*
X1950Y262D01*
X1950Y260D01*
X1952Y260D01*
X1952Y258D01*
X1956Y258D01*
X1956Y256D01*
X1958Y256D01*
X1958Y254D01*
X1960Y254D01*
X1960Y250D01*
X1962Y250D01*
X1962Y248D01*
X1964Y248D01*
X1964Y246D01*
X1984Y246D01*
X1984Y250D01*
X1986Y250D01*
X1986Y252D01*
X1988Y252D01*
X1988Y254D01*
X1990Y254D01*
X1990Y256D01*
X1992Y256D01*
X1992Y258D01*
X1994Y258D01*
X1994Y260D01*
X1998Y260D01*
X1998Y262D01*
X2000Y262D01*
X2000Y264D01*
X2004Y264D01*
X2004Y266D01*
X2010Y266D01*
X2010Y268D01*
X2020Y268D01*
X2020Y270D01*
X1946Y270D01*
G37*
D02*
G36*
X2066Y200D02*
X2066Y198D01*
X2064Y198D01*
X2064Y196D01*
X2062Y196D01*
X2062Y192D01*
X2060Y192D01*
X2060Y190D01*
X2058Y190D01*
X2058Y188D01*
X2056Y188D01*
X2056Y186D01*
X2054Y186D01*
X2054Y184D01*
X2050Y184D01*
X2050Y182D01*
X2048Y182D01*
X2048Y180D01*
X2044Y180D01*
X2044Y178D01*
X2038Y178D01*
X2038Y176D01*
X2032Y176D01*
X2032Y174D01*
X2246Y174D01*
X2246Y198D01*
X2156Y198D01*
X2156Y200D01*
X2066Y200D01*
G37*
D02*
G36*
X1964Y198D02*
X1964Y196D01*
X1962Y196D01*
X1962Y192D01*
X1960Y192D01*
X1960Y190D01*
X1958Y190D01*
X1958Y188D01*
X1956Y188D01*
X1956Y186D01*
X1954Y186D01*
X1954Y184D01*
X1950Y184D01*
X1950Y182D01*
X1948Y182D01*
X1948Y180D01*
X1944Y180D01*
X1944Y178D01*
X1938Y178D01*
X1938Y176D01*
X1932Y176D01*
X1932Y174D01*
X2016Y174D01*
X2016Y176D01*
X2008Y176D01*
X2008Y178D01*
X2004Y178D01*
X2004Y180D01*
X2000Y180D01*
X2000Y182D01*
X1996Y182D01*
X1996Y184D01*
X1994Y184D01*
X1994Y186D01*
X1992Y186D01*
X1992Y188D01*
X1990Y188D01*
X1990Y190D01*
X1988Y190D01*
X1988Y192D01*
X1986Y192D01*
X1986Y194D01*
X1984Y194D01*
X1984Y198D01*
X1964Y198D01*
G37*
D02*
G36*
X1422Y174D02*
X1422Y172D01*
X2246Y172D01*
X2246Y174D01*
X1422Y174D01*
G37*
D02*
G36*
X1422Y174D02*
X1422Y172D01*
X2246Y172D01*
X2246Y174D01*
X1422Y174D01*
G37*
D02*
G36*
X1422Y174D02*
X1422Y172D01*
X2246Y172D01*
X2246Y174D01*
X1422Y174D01*
G37*
D02*
G36*
X1422Y172D02*
X1422Y160D01*
X1420Y160D01*
X1420Y154D01*
X1418Y154D01*
X1418Y150D01*
X1416Y150D01*
X1416Y146D01*
X1414Y146D01*
X1414Y142D01*
X1412Y142D01*
X1412Y140D01*
X1410Y140D01*
X1410Y138D01*
X1408Y138D01*
X1408Y136D01*
X1406Y136D01*
X1406Y134D01*
X1404Y134D01*
X1404Y132D01*
X1400Y132D01*
X1400Y130D01*
X1398Y130D01*
X1398Y128D01*
X1394Y128D01*
X1394Y126D01*
X1388Y126D01*
X1388Y124D01*
X1378Y124D01*
X1378Y122D01*
X2246Y122D01*
X2246Y172D01*
X1422Y172D01*
G37*
D02*
G36*
X114Y144D02*
X114Y142D01*
X112Y142D01*
X112Y140D01*
X110Y140D01*
X110Y136D01*
X106Y136D01*
X106Y134D01*
X104Y134D01*
X104Y132D01*
X102Y132D01*
X102Y130D01*
X98Y130D01*
X98Y128D01*
X94Y128D01*
X94Y126D01*
X90Y126D01*
X90Y124D01*
X82Y124D01*
X82Y122D01*
X164Y122D01*
X164Y124D01*
X158Y124D01*
X158Y126D01*
X152Y126D01*
X152Y128D01*
X148Y128D01*
X148Y130D01*
X146Y130D01*
X146Y132D01*
X142Y132D01*
X142Y134D01*
X140Y134D01*
X140Y136D01*
X138Y136D01*
X138Y138D01*
X136Y138D01*
X136Y140D01*
X134Y140D01*
X134Y144D01*
X114Y144D01*
G37*
D02*
G36*
X214Y144D02*
X214Y142D01*
X212Y142D01*
X212Y140D01*
X210Y140D01*
X210Y136D01*
X206Y136D01*
X206Y134D01*
X204Y134D01*
X204Y132D01*
X202Y132D01*
X202Y130D01*
X198Y130D01*
X198Y128D01*
X194Y128D01*
X194Y126D01*
X190Y126D01*
X190Y124D01*
X182Y124D01*
X182Y122D01*
X264Y122D01*
X264Y124D01*
X258Y124D01*
X258Y126D01*
X252Y126D01*
X252Y128D01*
X248Y128D01*
X248Y130D01*
X246Y130D01*
X246Y132D01*
X242Y132D01*
X242Y134D01*
X240Y134D01*
X240Y136D01*
X238Y136D01*
X238Y138D01*
X236Y138D01*
X236Y140D01*
X234Y140D01*
X234Y144D01*
X214Y144D01*
G37*
D02*
G36*
X314Y144D02*
X314Y142D01*
X312Y142D01*
X312Y140D01*
X310Y140D01*
X310Y136D01*
X306Y136D01*
X306Y134D01*
X304Y134D01*
X304Y132D01*
X302Y132D01*
X302Y130D01*
X298Y130D01*
X298Y128D01*
X294Y128D01*
X294Y126D01*
X290Y126D01*
X290Y124D01*
X282Y124D01*
X282Y122D01*
X364Y122D01*
X364Y124D01*
X358Y124D01*
X358Y126D01*
X352Y126D01*
X352Y128D01*
X348Y128D01*
X348Y130D01*
X346Y130D01*
X346Y132D01*
X342Y132D01*
X342Y134D01*
X340Y134D01*
X340Y136D01*
X338Y136D01*
X338Y138D01*
X336Y138D01*
X336Y140D01*
X334Y140D01*
X334Y144D01*
X314Y144D01*
G37*
D02*
G36*
X414Y144D02*
X414Y142D01*
X412Y142D01*
X412Y140D01*
X410Y140D01*
X410Y136D01*
X406Y136D01*
X406Y134D01*
X404Y134D01*
X404Y132D01*
X402Y132D01*
X402Y130D01*
X398Y130D01*
X398Y128D01*
X394Y128D01*
X394Y126D01*
X390Y126D01*
X390Y124D01*
X382Y124D01*
X382Y122D01*
X464Y122D01*
X464Y124D01*
X458Y124D01*
X458Y126D01*
X452Y126D01*
X452Y128D01*
X448Y128D01*
X448Y130D01*
X446Y130D01*
X446Y132D01*
X442Y132D01*
X442Y134D01*
X440Y134D01*
X440Y136D01*
X438Y136D01*
X438Y138D01*
X436Y138D01*
X436Y140D01*
X434Y140D01*
X434Y144D01*
X414Y144D01*
G37*
D02*
G36*
X514Y144D02*
X514Y142D01*
X512Y142D01*
X512Y140D01*
X510Y140D01*
X510Y136D01*
X506Y136D01*
X506Y134D01*
X504Y134D01*
X504Y132D01*
X502Y132D01*
X502Y130D01*
X498Y130D01*
X498Y128D01*
X494Y128D01*
X494Y126D01*
X490Y126D01*
X490Y124D01*
X482Y124D01*
X482Y122D01*
X564Y122D01*
X564Y124D01*
X558Y124D01*
X558Y126D01*
X552Y126D01*
X552Y128D01*
X548Y128D01*
X548Y130D01*
X546Y130D01*
X546Y132D01*
X542Y132D01*
X542Y134D01*
X540Y134D01*
X540Y136D01*
X538Y136D01*
X538Y138D01*
X536Y138D01*
X536Y140D01*
X534Y140D01*
X534Y144D01*
X514Y144D01*
G37*
D02*
G36*
X1114Y144D02*
X1114Y142D01*
X1112Y142D01*
X1112Y140D01*
X1110Y140D01*
X1110Y138D01*
X1108Y138D01*
X1108Y136D01*
X1106Y136D01*
X1106Y134D01*
X1104Y134D01*
X1104Y132D01*
X1100Y132D01*
X1100Y130D01*
X1098Y130D01*
X1098Y128D01*
X1094Y128D01*
X1094Y126D01*
X1088Y126D01*
X1088Y124D01*
X1078Y124D01*
X1078Y122D01*
X1168Y122D01*
X1168Y124D01*
X1160Y124D01*
X1160Y126D01*
X1154Y126D01*
X1154Y128D01*
X1150Y128D01*
X1150Y130D01*
X1146Y130D01*
X1146Y132D01*
X1144Y132D01*
X1144Y134D01*
X1142Y134D01*
X1142Y136D01*
X1140Y136D01*
X1140Y138D01*
X1138Y138D01*
X1138Y140D01*
X1136Y140D01*
X1136Y142D01*
X1134Y142D01*
X1134Y144D01*
X1114Y144D01*
G37*
D02*
G36*
X1214Y144D02*
X1214Y142D01*
X1212Y142D01*
X1212Y140D01*
X1210Y140D01*
X1210Y138D01*
X1208Y138D01*
X1208Y136D01*
X1206Y136D01*
X1206Y134D01*
X1204Y134D01*
X1204Y132D01*
X1200Y132D01*
X1200Y130D01*
X1198Y130D01*
X1198Y128D01*
X1194Y128D01*
X1194Y126D01*
X1188Y126D01*
X1188Y124D01*
X1178Y124D01*
X1178Y122D01*
X1268Y122D01*
X1268Y124D01*
X1260Y124D01*
X1260Y126D01*
X1254Y126D01*
X1254Y128D01*
X1250Y128D01*
X1250Y130D01*
X1246Y130D01*
X1246Y132D01*
X1244Y132D01*
X1244Y134D01*
X1242Y134D01*
X1242Y136D01*
X1240Y136D01*
X1240Y138D01*
X1238Y138D01*
X1238Y140D01*
X1236Y140D01*
X1236Y142D01*
X1234Y142D01*
X1234Y144D01*
X1214Y144D01*
G37*
D02*
G36*
X1314Y144D02*
X1314Y142D01*
X1312Y142D01*
X1312Y140D01*
X1310Y140D01*
X1310Y138D01*
X1308Y138D01*
X1308Y136D01*
X1306Y136D01*
X1306Y134D01*
X1304Y134D01*
X1304Y132D01*
X1300Y132D01*
X1300Y130D01*
X1298Y130D01*
X1298Y128D01*
X1294Y128D01*
X1294Y126D01*
X1288Y126D01*
X1288Y124D01*
X1278Y124D01*
X1278Y122D01*
X1368Y122D01*
X1368Y124D01*
X1360Y124D01*
X1360Y126D01*
X1354Y126D01*
X1354Y128D01*
X1350Y128D01*
X1350Y130D01*
X1346Y130D01*
X1346Y132D01*
X1344Y132D01*
X1344Y134D01*
X1342Y134D01*
X1342Y136D01*
X1340Y136D01*
X1340Y138D01*
X1338Y138D01*
X1338Y140D01*
X1336Y140D01*
X1336Y142D01*
X1334Y142D01*
X1334Y144D01*
X1314Y144D01*
G37*
D02*
G36*
X40Y124D02*
X40Y122D01*
X64Y122D01*
X64Y124D01*
X40Y124D01*
G37*
D02*
G36*
X40Y122D02*
X40Y120D01*
X2246Y120D01*
X2246Y122D01*
X40Y122D01*
G37*
D02*
G36*
X40Y122D02*
X40Y120D01*
X2246Y120D01*
X2246Y122D01*
X40Y122D01*
G37*
D02*
G36*
X40Y122D02*
X40Y120D01*
X2246Y120D01*
X2246Y122D01*
X40Y122D01*
G37*
D02*
G36*
X40Y122D02*
X40Y120D01*
X2246Y120D01*
X2246Y122D01*
X40Y122D01*
G37*
D02*
G36*
X40Y122D02*
X40Y120D01*
X2246Y120D01*
X2246Y122D01*
X40Y122D01*
G37*
D02*
G36*
X40Y122D02*
X40Y120D01*
X2246Y120D01*
X2246Y122D01*
X40Y122D01*
G37*
D02*
G36*
X40Y122D02*
X40Y120D01*
X2246Y120D01*
X2246Y122D01*
X40Y122D01*
G37*
D02*
G36*
X40Y122D02*
X40Y120D01*
X2246Y120D01*
X2246Y122D01*
X40Y122D01*
G37*
D02*
G36*
X40Y122D02*
X40Y120D01*
X2246Y120D01*
X2246Y122D01*
X40Y122D01*
G37*
D02*
G36*
X40Y122D02*
X40Y120D01*
X2246Y120D01*
X2246Y122D01*
X40Y122D01*
G37*
D02*
G36*
X40Y122D02*
X40Y120D01*
X2246Y120D01*
X2246Y122D01*
X40Y122D01*
G37*
D02*
G36*
X40Y120D02*
X40Y42D01*
X2246Y42D01*
X2246Y120D01*
X40Y120D01*
G37*
D02*
G36*
X359Y1506D02*
X384Y1506D01*
X384Y1480D01*
X359Y1480D01*
X359Y1506D01*
G37*
D02*
G36*
X359Y1466D02*
X384Y1466D01*
X384Y1442D01*
X359Y1442D01*
X359Y1466D01*
G37*
D02*
G36*
X340Y1485D02*
X364Y1485D01*
X364Y1460D01*
X340Y1460D01*
X340Y1485D01*
G37*
D02*
G36*
X59Y1466D02*
X84Y1466D01*
X84Y1442D01*
X59Y1442D01*
X59Y1466D01*
G37*
D02*
G36*
X40Y1485D02*
X64Y1485D01*
X64Y1460D01*
X40Y1460D01*
X40Y1485D01*
G37*
D02*
G36*
X78Y1485D02*
X104Y1485D01*
X104Y1460D01*
X78Y1460D01*
X78Y1485D01*
G37*
D02*
G36*
X420Y1397D02*
X452Y1397D01*
X452Y1352D01*
X420Y1352D01*
X420Y1397D01*
G37*
D02*
G36*
X149Y1626D02*
X194Y1626D01*
X194Y1592D01*
X149Y1592D01*
X149Y1626D01*
G37*
D02*
G36*
X151Y1360D02*
X192Y1360D01*
X192Y1326D01*
X151Y1326D01*
X151Y1360D01*
G37*
D02*
G36*
X2022Y1196D02*
X2048Y1196D01*
X2048Y1153D01*
X2022Y1153D01*
X2022Y1196D01*
G37*
D02*
G36*
X151Y860D02*
X192Y860D01*
X192Y826D01*
X151Y826D01*
X151Y860D01*
G37*
D02*
G36*
X124Y895D02*
X156Y895D01*
X156Y854D01*
X124Y854D01*
X124Y895D01*
G37*
D02*
G36*
X2050Y668D02*
X2093Y668D01*
X2093Y636D01*
X2050Y636D01*
X2050Y668D01*
G37*
D02*
G36*
X2022Y640D02*
X2054Y640D01*
X2054Y597D01*
X2022Y597D01*
X2022Y640D01*
G37*
D02*
G36*
X2050Y858D02*
X2093Y858D01*
X2093Y824D01*
X2050Y824D01*
X2050Y858D01*
G37*
D02*
G36*
X2022Y896D02*
X2054Y896D01*
X2054Y853D01*
X2022Y853D01*
X2022Y896D01*
G37*
D02*
G36*
X2038Y396D02*
X2072Y396D01*
X2072Y353D01*
X2038Y353D01*
X2038Y396D01*
G37*
D02*
G36*
X1509Y368D02*
X1534Y368D01*
X1534Y342D01*
X1509Y342D01*
X1509Y368D01*
G37*
D02*
G36*
X1490Y387D02*
X1514Y387D01*
X1514Y362D01*
X1490Y362D01*
X1490Y387D01*
G37*
D02*
G36*
X1140Y387D02*
X1166Y387D01*
X1166Y362D01*
X1140Y362D01*
X1140Y387D01*
G37*
D02*
G36*
X1180Y387D02*
X1204Y387D01*
X1204Y362D01*
X1180Y362D01*
X1180Y387D01*
G37*
D02*
G36*
X1149Y156D02*
X1194Y156D01*
X1194Y122D01*
X1149Y122D01*
X1149Y156D01*
G37*
D02*
G04 End of Copper0*
M02*