; NON-PLATED HOLES START AT T1
; THROUGH (PLATED) HOLES START AT T100
M48
INCH
T100C0.032000
T101C0.046111
T102C0.030000
T103C0.039370
T104C0.015748
T105C0.038000
T106C0.040000
T107C0.035000
%
T100
X001736Y011214
X002236Y011964
X002736Y011214
T101
X020736Y011714
X020736Y014714
X020736Y012714
X020736Y013714
T102
X002736Y013714
X001736Y013714
X002736Y008714
X001736Y008714
T103
X000736Y003714
X002736Y003714
X004736Y003714
X005736Y003714
X001736Y001714
X003736Y001714
X000736Y001714
X002736Y001714
X004736Y001714
X001736Y006714
X003736Y006714
X005736Y001714
X000736Y006714
X002736Y006714
X004736Y006714
X005736Y006714
X001736Y004714
X003736Y004714
X000736Y004714
X002736Y004714
X004736Y004714
X005736Y004714
X001736Y002714
X003736Y002714
X000736Y002714
X002736Y002714
X004736Y002714
X005736Y002714
X001736Y005714
X003736Y005714
X000736Y005714
X002736Y005714
X004736Y005714
X005736Y005714
X001736Y003714
X003736Y003714
T104
X015234Y003718
X000736Y014714
X008736Y003714
X005736Y010714
X017736Y004714
X006736Y010714
X008736Y005714
X011736Y004714
X019236Y004714
X003736Y014714
X013736Y004714
X011744Y003718
T105
X004736Y011714
X007736Y011714
X014736Y013714
X004736Y008714
X014736Y005714
X007736Y008714
X014736Y011714
X007736Y014714
X007736Y006714
X016736Y008714
X014736Y008714
X004736Y012714
X011736Y001714
X013736Y001714
X016736Y005214
X007736Y012714
X010736Y001714
X012736Y001714
X014736Y014714
X007736Y004714
X004736Y009714
X014736Y006714
X007736Y009714
X004736Y010714
X007736Y010714
X014736Y012714
X014736Y004714
X007736Y007714
X016736Y009714
X014736Y009714
X004736Y013714
X011736Y002714
X013736Y002714
X014736Y010714
X016736Y006214
X007736Y013714
X010736Y002714
X012736Y002714
X007736Y005714
X014736Y007714
T106
X002736Y015714
X001736Y015714
T107
X016736Y013714
X020736Y008714
X018964Y006154
X016736Y014714
X009736Y009714
X020736Y006154
X020236Y002214
X020236Y003714
X019236Y002214
X019236Y003714
X009736Y005714
X010736Y006714
X010736Y010714
X018964Y008714
T00
M30
