G04 MADE WITH FRITZING*
G04 WWW.FRITZING.ORG*
G04 DOUBLE SIDED*
G04 HOLES PLATED*
G04 CONTOUR ON CENTER OF CONTOUR VECTOR*
%ASAXBY*%
%FSLAX23Y23*%
%MOIN*%
%OFA0B0*%
%SFA1.0B1.0*%
%ADD10C,0.049370*%
%ADD11C,0.089370*%
%ADD12C,0.088000*%
%ADD13C,0.085000*%
%ADD14C,0.080000*%
%ADD15C,0.090000*%
%ADD16C,0.083889*%
%ADD17C,0.084000*%
%ADD18R,0.090000X0.090000*%
%LNMASK0*%
G90*
G70*
G54D10*
X554Y1068D03*
X654Y1068D03*
G54D11*
X554Y268D03*
X454Y268D03*
X354Y268D03*
X254Y268D03*
X154Y268D03*
X54Y268D03*
X554Y368D03*
X454Y368D03*
X354Y368D03*
X254Y368D03*
X154Y368D03*
X54Y368D03*
X554Y468D03*
X454Y468D03*
X354Y468D03*
X254Y468D03*
X154Y468D03*
X54Y468D03*
X554Y568D03*
X454Y568D03*
X354Y568D03*
X254Y568D03*
X154Y568D03*
X54Y568D03*
X554Y668D03*
X454Y668D03*
X354Y668D03*
X254Y668D03*
X154Y668D03*
X54Y668D03*
X554Y168D03*
X454Y168D03*
X354Y168D03*
X254Y168D03*
X154Y168D03*
X54Y168D03*
G54D12*
X1354Y168D03*
X1254Y168D03*
X1154Y168D03*
X1054Y168D03*
X1354Y268D03*
X1254Y268D03*
X1154Y268D03*
X1054Y268D03*
G54D13*
X1054Y1068D03*
X1054Y668D03*
X954Y968D03*
X954Y568D03*
G54D10*
X1354Y468D03*
X1154Y468D03*
X854Y568D03*
X854Y368D03*
G54D14*
X154Y1368D03*
X254Y1368D03*
X154Y868D03*
X254Y868D03*
G54D15*
X154Y1568D03*
X254Y1568D03*
G54D16*
X2054Y1168D03*
X2054Y1268D03*
X2054Y1368D03*
X2054Y1468D03*
G54D17*
X254Y1118D03*
X204Y1193D03*
X154Y1118D03*
G54D12*
X1454Y1468D03*
X1454Y1368D03*
X1454Y1268D03*
X1454Y1168D03*
X1454Y1068D03*
X1454Y968D03*
X1454Y868D03*
X1454Y768D03*
X1454Y668D03*
X1454Y568D03*
X1454Y468D03*
X754Y1468D03*
X754Y1368D03*
X754Y1268D03*
X754Y1168D03*
X754Y1068D03*
X754Y968D03*
X754Y868D03*
X754Y768D03*
X754Y668D03*
X754Y568D03*
X754Y468D03*
X454Y1368D03*
X454Y1268D03*
X454Y1168D03*
X454Y1068D03*
X454Y968D03*
X454Y868D03*
X1654Y968D03*
X1654Y868D03*
G54D13*
X1654Y1368D03*
X1654Y1468D03*
X2054Y868D03*
X2054Y612D03*
X1877Y868D03*
X1877Y612D03*
G54D10*
X54Y1468D03*
X354Y1468D03*
G54D13*
X1904Y368D03*
X2004Y368D03*
X1904Y218D03*
X2004Y218D03*
G54D12*
X1654Y618D03*
X1654Y518D03*
G54D10*
X1504Y369D03*
X1155Y369D03*
X1754Y468D03*
X1904Y468D03*
G54D18*
X154Y1568D03*
G04 End of Mask0*
M02*