; NON-PLATED HOLES START AT T1
; THROUGH (PLATED) HOLES START AT T100
M48
INCH
T100C0.032000
T101C0.046111
T102C0.030000
T103C0.039370
T104C0.015748
T105C0.038000
T106C0.040000
T107C0.035000
%
T100
X002038Y011931
X002538Y011181
X001538Y011181
T101
X020538Y014681
X020538Y012681
X020538Y013681
X020538Y011681
T102
X002538Y013681
X001538Y013681
X002538Y008681
X001538Y008681
T103
X000538Y003681
X002538Y003681
X004538Y003681
X001538Y001681
X003538Y001681
X005538Y001681
X000538Y001681
X002538Y001681
X004538Y001681
X001538Y006681
X003538Y006681
X005538Y006681
X000538Y006681
X002538Y006681
X004538Y006681
X001538Y004681
X003538Y004681
X005538Y004681
X000538Y004681
X002538Y004681
X004538Y004681
X001538Y002681
X003538Y002681
X005538Y002681
X000538Y002681
X002538Y002681
X004538Y002681
X001538Y005681
X003538Y005681
X005538Y005681
X000538Y005681
X002538Y005681
X004538Y005681
X001538Y003681
X003538Y003681
X005538Y003681
T104
X003538Y014681
X013538Y004681
X011546Y003685
X015036Y003685
X000538Y014681
X008538Y003681
X017538Y004681
X005538Y010681
X006538Y010681
X008538Y005681
X011538Y004681
X019038Y004681
T105
X007538Y011681
X014538Y013681
X004538Y008681
X014538Y005681
X007538Y008681
X014538Y011681
X007538Y014681
X007538Y006681
X016538Y008681
X014538Y008681
X004538Y012681
X011538Y001681
X013538Y001681
X016538Y005181
X007538Y012681
X010538Y001681
X012538Y001681
X014538Y014681
X007538Y004681
X004538Y009681
X014538Y006681
X007538Y009681
X004538Y010681
X007538Y010681
X014538Y012681
X014538Y004681
X007538Y007681
X016538Y009681
X014538Y009681
X004538Y013681
X011538Y002681
X013538Y002681
X014538Y010681
X016538Y006181
X007538Y013681
X010538Y002681
X012538Y002681
X007538Y005681
X014538Y007681
X004538Y011681
T106
X002538Y015681
X001538Y015681
T107
X018766Y006122
X020538Y006122
X018766Y008681
X016538Y013681
X020538Y008681
X016538Y014681
X009538Y009681
X020038Y002181
X020038Y003681
X019038Y002181
X019038Y003681
X009538Y005681
X010538Y006681
X010538Y010681
T00
M30
