; NON-PLATED HOLES START AT T1
; THROUGH (PLATED) HOLES START AT T100
M48
INCH
T100C0.032000
T101C0.046111
T102C0.030000
T103C0.039370
T104C0.015748
T105C0.038000
T106C0.040000
T107C0.035000
%
T100
X002336Y012508
X002836Y011758
X001836Y011758
T101
X020836Y012758
X020836Y015758
X020836Y013758
X020836Y014758
T102
X002836Y014758
X001836Y014758
X002836Y009758
X001836Y009758
T103
X001836Y006758
X003836Y006758
X000836Y006758
X002836Y006758
X004836Y006758
X005836Y006758
X001836Y004758
X003836Y004758
X000836Y004758
X002836Y004758
X004836Y004758
X005836Y004758
X001836Y002758
X003836Y002758
X000836Y002758
X002836Y002758
X004836Y002758
X001836Y007758
X003836Y007758
X005836Y002758
X000836Y007758
X002836Y007758
X004836Y007758
X005836Y007758
X001836Y005758
X003836Y005758
X000836Y005758
X002836Y005758
X004836Y005758
X005836Y005758
X001836Y003758
X003836Y003758
X000836Y003758
X002836Y003758
X004836Y003758
X005836Y003758
T104
X017845Y006721
X006836Y011758
X008836Y006758
X011836Y005758
X003836Y015758
X005836Y015758
X013836Y005758
X008836Y003758
X000836Y015758
X005836Y011758
T105
X016836Y005758
X014836Y005758
X007836Y008758
X004836Y014758
X011836Y003758
X013836Y003758
X014836Y011758
X007836Y014758
X010836Y003758
X012836Y003758
X007836Y006758
X016836Y008758
X014836Y008758
X004836Y012758
X011836Y001758
X013836Y001758
X007836Y012758
X010836Y001758
X012836Y001758
X014836Y014758
X004836Y009758
X014836Y006758
X007836Y009758
X004836Y010758
X007836Y010758
X014836Y012758
X007836Y015758
X016836Y004758
X007836Y007758
X014836Y009758
X004836Y013758
X011836Y002758
X013836Y002758
X014836Y010758
X007836Y013758
X010836Y002758
X012836Y002758
X014836Y015758
X007836Y005758
X016836Y007758
X014836Y007758
X004836Y011758
X007836Y011758
X014836Y013758
T106
X002836Y016758
X001836Y016758
T107
X016836Y015758
X009836Y006758
X009836Y010758
X010836Y007758
X010836Y011758
X020836Y007758
X019064Y007758
X004836Y016758
X020836Y005199
X005836Y016758
X019064Y005199
X016836Y014758
X004836Y017758
X005836Y017758
T00
M30
