G04 MADE WITH FRITZING*
G04 WWW.FRITZING.ORG*
G04 DOUBLE SIDED*
G04 HOLES PLATED*
G04 CONTOUR ON CENTER OF CONTOUR VECTOR*
%ASAXBY*%
%FSLAX23Y23*%
%MOIN*%
%OFA0B0*%
%SFA1.0B1.0*%
%ADD10C,0.049370*%
%ADD11C,0.089370*%
%ADD12C,0.088000*%
%ADD13C,0.085000*%
%ADD14C,0.080000*%
%ADD15C,0.090000*%
%ADD16C,0.083889*%
%ADD17C,0.084000*%
%ADD18R,0.090000X0.090000*%
%LNMASK0*%
G90*
G70*
G54D10*
X584Y1176D03*
X684Y1176D03*
G54D11*
X584Y376D03*
X484Y376D03*
X384Y376D03*
X284Y376D03*
X184Y376D03*
X84Y376D03*
X584Y476D03*
X484Y476D03*
X384Y476D03*
X284Y476D03*
X184Y476D03*
X84Y476D03*
X584Y576D03*
X484Y576D03*
X384Y576D03*
X284Y576D03*
X184Y576D03*
X84Y576D03*
X584Y676D03*
X484Y676D03*
X384Y676D03*
X284Y676D03*
X184Y676D03*
X84Y676D03*
X584Y776D03*
X484Y776D03*
X384Y776D03*
X284Y776D03*
X184Y776D03*
X84Y776D03*
X584Y276D03*
X484Y276D03*
X384Y276D03*
X284Y276D03*
X184Y276D03*
X84Y276D03*
G54D12*
X1384Y276D03*
X1284Y276D03*
X1184Y276D03*
X1084Y276D03*
X1384Y176D03*
X1284Y176D03*
X1184Y176D03*
X1084Y176D03*
X1384Y376D03*
X1284Y376D03*
X1184Y376D03*
X1084Y376D03*
G54D13*
X1084Y1176D03*
X1084Y776D03*
X984Y1076D03*
X984Y676D03*
G54D10*
X1384Y576D03*
X1184Y576D03*
X884Y676D03*
X884Y376D03*
G54D14*
X184Y1476D03*
X284Y1476D03*
X184Y976D03*
X284Y976D03*
G54D15*
X184Y1676D03*
X284Y1676D03*
G54D16*
X2084Y1276D03*
X2084Y1376D03*
X2084Y1476D03*
X2084Y1576D03*
G54D17*
X284Y1176D03*
X234Y1251D03*
X184Y1176D03*
G54D12*
X1484Y1576D03*
X1484Y1476D03*
X1484Y1376D03*
X1484Y1276D03*
X1484Y1176D03*
X1484Y1076D03*
X1484Y976D03*
X1484Y876D03*
X1484Y776D03*
X1484Y676D03*
X1484Y576D03*
X784Y1576D03*
X784Y1476D03*
X784Y1376D03*
X784Y1276D03*
X784Y1176D03*
X784Y1076D03*
X784Y976D03*
X784Y876D03*
X784Y776D03*
X784Y676D03*
X784Y576D03*
X484Y1476D03*
X484Y1376D03*
X484Y1276D03*
X484Y1176D03*
X484Y1076D03*
X484Y976D03*
X1684Y876D03*
X1684Y776D03*
G54D13*
X1684Y1476D03*
X1684Y1576D03*
X2084Y776D03*
X2084Y520D03*
X1906Y776D03*
X1906Y520D03*
G54D10*
X84Y1576D03*
X384Y1576D03*
G54D13*
X484Y1776D03*
X584Y1776D03*
X484Y1676D03*
X584Y1676D03*
G54D12*
X1684Y576D03*
X1684Y476D03*
G54D10*
X1785Y672D03*
X584Y1576D03*
G54D18*
X184Y1676D03*
G04 End of Mask0*
M02*